<svg width="38" height="116" viewBox="0 0 38 116" fill="none" xmlns="http://www.w3.org/2000/svg">
<rect x="33" width="2" height="112" fill="white"/>
<circle cx="34" cy="112" r="4" fill="white"/>
<path d="M8.872 91.68C9.288 91.68 9.65067 91.5787 9.96 91.376C10.2693 91.1733 10.5307 90.928 10.744 90.64C10.9467 90.3413 11.2027 89.936 11.512 89.424C11.8533 88.8587 12.136 88.4267 12.36 88.128C12.584 87.8187 12.872 87.5573 13.224 87.344C13.5653 87.12 13.976 87.008 14.456 87.008C14.968 87.008 15.432 87.136 15.848 87.392C16.264 87.648 16.5947 88.0267 16.84 88.528C17.0747 89.0187 17.192 89.6107 17.192 90.304C17.192 91.1253 17.0053 91.8773 16.632 92.56C16.6 92.6133 16.5627 92.6507 16.52 92.672C16.4773 92.6827 16.4133 92.6933 16.328 92.704L14.152 92.912C14.1093 92.9227 14.0827 92.9013 14.072 92.848C14.0613 92.784 14.0773 92.7467 14.12 92.736C14.888 92.5653 15.5493 92.2507 16.104 91.792C16.6587 91.3227 16.936 90.704 16.936 89.936C16.936 89.4027 16.792 88.9547 16.504 88.592C16.2053 88.2187 15.736 88.032 15.096 88.032C14.616 88.032 14.2 88.1387 13.848 88.352C13.496 88.5653 13.208 88.8267 12.984 89.136C12.7493 89.4347 12.4773 89.8453 12.168 90.368C11.8587 90.88 11.592 91.2853 11.368 91.584C11.144 91.872 10.8613 92.1173 10.52 92.32C10.1787 92.5227 9.77867 92.624 9.32 92.624C8.78667 92.624 8.33333 92.4853 7.96 92.208C7.576 91.92 7.29333 91.552 7.112 91.104C6.92 90.6453 6.824 90.16 6.824 89.648C6.824 89.0187 6.952 88.3947 7.208 87.776C7.26133 87.616 7.352 87.536 7.48 87.536L9.32 87.424C9.36267 87.424 9.384 87.4507 9.384 87.504C9.384 87.5573 9.36267 87.5893 9.32 87.6C8.76533 87.6853 8.25333 87.9147 7.784 88.288C7.304 88.6613 7.064 89.2 7.064 89.904C7.064 90.5013 7.24 90.9493 7.592 91.248C7.93333 91.536 8.36 91.68 8.872 91.68ZM6.824 76.3646C6.824 75.6926 6.872 75.1273 6.968 74.6686C7.064 74.21 7.22933 73.7513 7.464 73.2926C7.50667 73.218 7.544 73.1753 7.576 73.1646C7.608 73.154 7.688 73.138 7.816 73.1166L9.72 72.9246C9.752 72.9246 9.77333 72.9566 9.784 73.0206C9.784 73.074 9.768 73.106 9.736 73.1166C7.95467 73.6073 7.064 74.706 7.064 76.4126C7.064 77.3086 7.26133 78.098 7.656 78.7806C8.05067 79.4633 8.616 79.9913 9.352 80.3646C10.0773 80.738 10.9253 80.9246 11.896 80.9246C12.824 80.9246 13.6773 80.722 14.456 80.3166C15.224 79.9006 15.832 79.346 16.28 78.6526C16.728 77.9486 16.952 77.186 16.952 76.3646C16.952 75.49 16.7387 74.7806 16.312 74.2366C15.8853 73.6926 15.2347 73.2766 14.36 72.9886C14.3387 72.9886 14.328 72.962 14.328 72.9086C14.328 72.834 14.344 72.7966 14.376 72.7966L16.136 72.9566C16.264 72.9673 16.344 72.9833 16.376 73.0046C16.408 73.026 16.4453 73.0686 16.488 73.1326C16.7547 73.6873 16.9413 74.21 17.048 74.7006C17.1547 75.1806 17.208 75.7353 17.208 76.3646C17.208 77.4846 16.9893 78.4873 16.552 79.3726C16.104 80.2473 15.48 80.93 14.68 81.4206C13.88 81.9113 12.9627 82.1566 11.928 82.1566C10.9253 82.1566 10.04 81.906 9.272 81.4046C8.49333 80.9033 7.89067 80.2153 7.464 79.3406C7.03733 78.4553 6.824 77.4633 6.824 76.3646ZM16.808 57.8439C16.808 57.8225 16.84 57.8119 16.904 57.8119C16.968 57.8119 17 57.8225 17 57.8439L17 59.9079C17 60.1745 16.5573 60.6759 15.672 61.4119C14.7867 62.1479 13.5707 63.0225 12.024 64.0359C12.088 64.3239 12.12 64.6225 12.12 64.9319C12.12 64.9959 12.104 65.2359 12.072 65.6519L15.704 65.6519C16.0347 65.6519 16.2747 65.6199 16.424 65.5559C16.5733 65.4919 16.6747 65.3692 16.728 65.1879C16.7813 64.9959 16.808 64.6972 16.808 64.2919C16.808 64.2599 16.84 64.2439 16.904 64.2439C16.968 64.2439 17 64.2599 17 64.2919C17 64.6225 16.9947 64.8839 16.984 65.0759L16.968 66.1799L16.984 67.2679C16.9947 67.4599 17 67.7319 17 68.0839C17 68.1052 16.968 68.1159 16.904 68.1159C16.84 68.1159 16.808 68.1052 16.808 68.0839C16.808 67.6785 16.7813 67.3799 16.728 67.1879C16.6747 66.9959 16.5733 66.8679 16.424 66.8039C16.264 66.7292 16.024 66.6919 15.704 66.6919L8.296 66.6919C7.976 66.6919 7.74133 66.7239 7.592 66.7879C7.44266 66.8519 7.34133 66.9799 7.288 67.1719C7.224 67.3532 7.192 67.6465 7.192 68.0519C7.192 68.0839 7.16 68.0999 7.096 68.0999C7.032 68.0999 7 68.0839 7 68.0519L7.016 67.2679C7.03733 66.8199 7.048 66.4572 7.048 66.1799C7.048 65.9452 7.04266 65.7265 7.032 65.5239C7.02133 65.3212 7.01067 65.1505 7 65.0119C6.968 64.6172 6.952 64.2599 6.952 63.9399C6.952 63.0972 7.144 62.4465 7.528 61.9879C7.912 61.5292 8.424 61.2999 9.064 61.2999C9.64 61.2999 10.1627 61.4705 10.632 61.8119C11.0907 62.1425 11.4533 62.5852 11.72 63.1399C13.0107 62.2439 14.024 61.4919 14.76 60.8839C15.4853 60.2652 16.008 59.7212 16.328 59.2519C16.648 58.7719 16.808 58.3025 16.808 57.8439ZM11.688 65.6519C11.7307 65.3852 11.752 65.0705 11.752 64.7079C11.752 63.8759 11.5707 63.2839 11.208 62.9319C10.8453 62.5692 10.2853 62.3879 9.528 62.3879C8.696 62.3879 8.09866 62.5745 7.736 62.9479C7.37333 63.3105 7.192 63.8439 7.192 64.5479C7.192 64.9639 7.26666 65.2519 7.416 65.4119C7.56533 65.5719 7.86933 65.6519 8.328 65.6519L11.688 65.6519ZM17.192 49.7003C17.192 50.6923 16.9627 51.5776 16.504 52.3563C16.0347 53.1243 15.4053 53.7216 14.616 54.1483C13.816 54.5643 12.9467 54.7723 12.008 54.7723C10.9093 54.7723 9.97066 54.4949 9.192 53.9403C8.40266 53.3856 7.81066 52.6763 7.416 51.8123C7.02133 50.9376 6.824 50.0469 6.824 49.1403C6.824 48.1269 7.064 47.2363 7.544 46.4683C8.01333 45.7003 8.63733 45.1136 9.416 44.7083C10.1947 44.2923 11.0213 44.0843 11.896 44.0843C12.8667 44.0843 13.7573 44.3403 14.568 44.8523C15.3787 45.3643 16.0187 46.0523 16.488 46.9163C16.9573 47.7696 17.192 48.6976 17.192 49.7003ZM16.856 49.1403C16.856 48.4149 16.68 47.7643 16.328 47.1883C15.976 46.6016 15.4587 46.1429 14.776 45.8123C14.0933 45.4709 13.2827 45.3003 12.344 45.3003C11.3413 45.3003 10.4507 45.4869 9.672 45.8603C8.89333 46.2336 8.28533 46.7616 7.848 47.4443C7.41066 48.1163 7.192 48.9056 7.192 49.8123C7.192 50.9856 7.57066 51.9029 8.328 52.5643C9.08533 53.2256 10.1253 53.5563 11.448 53.5563C12.4507 53.5563 13.368 53.3696 14.2 52.9963C15.0213 52.6229 15.672 52.1003 16.152 51.4283C16.6213 50.7563 16.856 49.9936 16.856 49.1403ZM15.64 37.1463C15.9493 37.1463 16.1733 37.1142 16.312 37.0502C16.4507 36.9862 16.5467 36.8689 16.6 36.6982C16.6427 36.5276 16.664 36.2502 16.664 35.8662L16.664 34.1222C16.664 33.5142 16.4773 33.0289 16.104 32.6662C15.7307 32.3036 15.2133 32.0636 14.552 31.9462C14.52 31.9462 14.5093 31.9196 14.52 31.8662C14.52 31.8022 14.536 31.7702 14.568 31.7702C15.4533 31.8662 16.184 31.9142 16.76 31.9142C16.8453 31.9142 16.9093 31.9302 16.952 31.9622C16.984 31.9942 17 32.0582 17 32.1542L17 39.5463C17 39.5676 16.968 39.5783 16.904 39.5783C16.84 39.5783 16.808 39.5676 16.808 39.5463C16.808 39.1409 16.7813 38.8476 16.728 38.6662C16.6747 38.4742 16.5733 38.3462 16.424 38.2822C16.264 38.2182 16.024 38.1862 15.704 38.1863L8.296 38.1863C7.976 38.1863 7.74133 38.2183 7.592 38.2823C7.44266 38.3463 7.34133 38.4743 7.288 38.6663C7.224 38.8476 7.192 39.1409 7.192 39.5463C7.192 39.5676 7.16 39.5783 7.096 39.5783C7.032 39.5783 7 39.5676 7 39.5463L7.016 38.7623C7.03733 38.3143 7.048 37.9516 7.048 37.6743C7.048 37.3756 7.03733 37.0023 7.016 36.5543L7 35.7863C7 35.7543 7.032 35.7383 7.096 35.7383C7.16 35.7383 7.192 35.7543 7.192 35.7863C7.192 36.1809 7.224 36.4743 7.288 36.6663C7.34133 36.8476 7.448 36.9756 7.608 37.0503C7.75733 37.1143 7.992 37.1463 8.312 37.1463L15.64 37.1463ZM15.64 25.415C15.9493 25.415 16.1733 25.383 16.312 25.319C16.4507 25.255 16.5467 25.1377 16.6 24.967C16.6427 24.7963 16.664 24.519 16.664 24.135L16.664 22.391C16.664 21.783 16.4773 21.2977 16.104 20.935C15.7307 20.5723 15.2133 20.3323 14.552 20.215C14.52 20.215 14.5093 20.1883 14.52 20.135C14.52 20.071 14.536 20.039 14.568 20.039C15.4533 20.135 16.184 20.183 16.76 20.183C16.8453 20.183 16.9093 20.199 16.952 20.231C16.984 20.263 17 20.327 17 20.423L17 27.815C17 27.8363 16.968 27.847 16.904 27.847C16.84 27.847 16.808 27.8363 16.808 27.815C16.808 27.4097 16.7813 27.1163 16.728 26.935C16.6747 26.743 16.5733 26.615 16.424 26.551C16.264 26.487 16.024 26.455 15.704 26.455L8.296 26.455C7.976 26.455 7.74133 26.487 7.592 26.551C7.44266 26.615 7.34133 26.743 7.288 26.935C7.224 27.1163 7.192 27.4097 7.192 27.815C7.192 27.8363 7.16 27.847 7.096 27.847C7.032 27.847 7 27.8363 7 27.815L7.016 27.031C7.03733 26.583 7.048 26.2203 7.048 25.943C7.048 25.6443 7.03733 25.271 7.016 24.823L7 24.055C7 24.023 7.032 24.007 7.096 24.007C7.16 24.007 7.192 24.023 7.192 24.055C7.192 24.4497 7.224 24.743 7.288 24.935C7.34133 25.1163 7.448 25.2443 7.608 25.319C7.75733 25.383 7.992 25.415 8.312 25.415L15.64 25.415Z" fill="white"/>
</svg>
