<svg width="80" height="29" viewBox="0 0 80 29" fill="none" xmlns="http://www.w3.org/2000/svg">
<g clip-path="url(#clip0_477_2019)">
<path d="M4.96432 12.366C8.98598 12.575 12.796 6.93253 13.9326 2.18731C13.4825 2.12879 13.0013 2.08352 12.4792 2.05635C10.8247 1.96561 9.18183 2.379 7.77314 3.24056C4.61508 5.19103 2.86742 8.80219 3.03816 10.442C3.14823 11.5057 4.21361 12.327 4.96432 12.366ZM17.387 14.2614C18.5448 12.6126 20.0138 9.4549 19.7859 7.23624C19.7083 6.4881 19.5488 5.73647 19.1897 5.04614C16.9136 7.1018 15.1786 10.1849 13.6377 12.3667C12.1977 14.4042 10.251 16.4418 7.82182 17.7068C8.94612 18.1237 10.129 18.3664 11.3284 18.4264C13.6321 18.5469 16.249 15.8817 17.387 14.2614ZM59.2447 12.2141C59.3379 11.0564 58.7163 10.1438 58.1914 10.1167C57.5034 10.0811 56.3654 11.1093 54.696 13.902C53.443 15.9973 53.0196 18.0586 54.0109 18.0892C55.1187 18.1234 56.9573 16.7852 58.1638 14.919C57.2466 14.919 56.8543 14.6069 56.6885 13.624C56.5262 12.6551 57.5486 11.4931 58.2753 11.5308C58.6584 11.5489 59.0366 11.8219 59.2447 12.2141ZM79.418 13.0723C79.66 12.7756 80.029 12.7812 79.9979 13.0027C79.6325 13.5599 78.1487 15.1656 76.5626 15.0925C75.8034 15.0583 75.2757 14.3123 75.2072 13.5223C75.2072 13.5223 74.2293 13.0612 74.0141 13.4318C73.0553 15.0855 71.7839 17.3557 71.4741 17.9638C71.2385 18.4292 71.1101 18.4849 70.7015 18.4919C70.7015 18.4919 69.8732 18.4689 69.3709 18.4772C68.9616 18.4835 68.8022 18.1477 69.1987 17.4769C69.6129 16.7747 71.4565 13.7849 72.3321 12.2998C73.2183 10.7965 72.6199 10.8251 71.8953 11.6645C71.6519 11.9431 69.7547 14.3172 68.5277 15.8706C66.9409 17.8788 65.5997 18.6019 64.8144 18.5873C62.8438 18.5441 63.5444 16.7065 63.8555 16.1165C64.765 14.3945 65.7831 13.112 66.7356 11.723C67.2852 10.9205 66.4421 11.2131 65.6829 11.8923C64.6634 12.8041 63.4668 13.872 62.9842 14.6334C62.1552 16.0963 61.2316 17.7625 61.0446 18.138C60.919 18.3908 60.7878 18.4758 60.3736 18.48C60.1754 18.48 59.5136 18.48 59.1551 18.48C58.5307 18.4758 58.5201 18.1317 58.8539 17.5097C59.1608 16.944 59.3943 16.6243 59.9044 15.7835C60.066 15.516 60.7687 14.4307 61.5561 13.0528C60.6029 13.7257 59.7012 14.2858 59.0557 14.6097C57.9409 16.8493 55.7537 18.82 53.9291 18.7503C52.9561 18.7127 52.2061 17.8705 51.9655 16.7037C50.2722 17.9262 48.4378 18.5086 47.6285 18.4668C45.8978 18.3769 46.4432 16.7566 46.7564 16.1645C47.6659 14.4418 48.7454 12.8954 49.5935 11.3894C50.1452 10.4106 49.1807 10.6335 48.3693 11.4082C48.0184 11.7409 47.7082 12.1131 47.4451 12.5171C46.4996 13.9368 44.6807 17.2693 44.3173 17.9868C44.0817 18.4522 43.9138 18.4703 43.6725 18.4703H42.2282C41.6757 18.4703 41.7717 17.945 42.1139 17.3731C42.5316 16.6765 44.6539 13.1476 45.5351 11.661C46.4918 10.0491 45.0102 10.6684 44.3067 11.3127C43.7225 11.8449 43.6717 11.9139 43.156 12.7219C42.1195 14.352 40.489 17.3195 40.1623 17.9812C40.0029 18.3038 39.9126 18.4689 39.4455 18.4689H38.0711C37.5257 18.4689 37.6174 17.9381 37.9596 17.3662C38.3766 16.6696 40.4064 13.4088 41.2552 11.9027C41.8197 10.9003 41.2637 10.8363 40.6428 11.5983C39.9669 12.428 39.0497 13.5202 38.3688 14.423C35.4055 18.3539 34.3083 18.5093 33.2641 18.4946C32.6291 18.4856 32.306 17.9492 32.313 17.3104C30.9993 18.2543 30.0009 18.5225 29.3659 18.5225C28.091 18.5225 28.0501 16.9141 28.5129 16.0642C28.6971 15.7257 29.8464 13.6623 29.8464 13.6623C29.0837 14.4718 27.8843 15.183 26.9882 15.0716C26.0287 14.9511 25.7761 14.1792 25.6723 13.7606C25.6545 13.6749 25.6413 13.5884 25.6328 13.5014C25.479 13.436 24.6387 13.0835 24.4722 13.3677C23.4894 15.0437 22.158 17.433 21.8504 18.0412C21.6147 18.5065 21.3099 18.4682 21.046 18.4682C21.046 18.4682 20.3108 18.4556 19.7887 18.4556C19.2807 18.4556 19.3111 17.9833 19.6526 17.4107C20.0702 16.7141 22.1488 13.4269 22.9687 11.9034C23.4978 10.9191 23.0745 10.807 22.4183 11.5377C21.5272 12.5304 20.1126 14.3847 19.4324 15.2485C17.5747 18.0349 14.4315 19.3326 11.8879 19.1996C9.88133 19.0951 8.32982 18.6207 6.98856 18.0976C5.46881 18.7547 3.81441 19.0517 2.15763 18.9648C1.56073 18.9335 0.111521 18.4675 0.00780405 17.4922C-0.0909736 16.54 1.07742 15.9695 2.26558 16.0294C3.5257 16.0949 4.52335 16.3923 5.47021 16.7573C5.81452 16.889 6.15248 17.0304 6.49397 17.1753C7.35545 16.6932 8.08217 15.9799 8.80536 15.0193C10.8515 12.3061 13.8649 6.93322 18.4073 4.22207C18.4559 4.19281 18.506 4.16425 18.5554 4.13569C17.7652 3.2733 16.4797 2.58715 14.3849 2.24931C14.2147 3.26722 13.9387 4.26513 13.5615 5.22726C11.7059 9.95506 8.73057 13.0856 5.16541 12.8989C3.57085 12.816 2.29451 11.3873 2.02569 10.2037C1.59742 8.32293 2.45326 6.3244 3.27029 5.24885C5.25501 2.48267 8.4032 0.974533 12.0192 1.16261C12.7178 1.19721 13.4132 1.28078 14.0998 1.41269C14.1723 1.01926 14.2239 0.622355 14.2544 0.223601L14.5577 -0.000701904C14.5747 0.498076 14.5525 0.9974 14.4914 1.4928C16.5912 1.96997 17.9973 2.87972 18.9421 3.92044C21.0411 2.80589 23.6305 2.15109 24.1505 2.48963C24.1505 2.48963 21.7516 3.01835 19.8607 4.47563C19.7612 4.55295 19.6646 4.63585 19.5672 4.71665C20.6918 6.38848 20.8682 8.19058 20.9543 9.01883C21.1018 10.4364 21.1011 11.2598 20.8132 12.3625C21.2647 11.7767 22.2194 10.6858 22.5425 10.3667C22.6836 10.2274 23.3751 9.4354 24.5477 9.4354C26.1451 9.4354 25.7845 11.2591 25.2906 12.0901C25.1418 12.3409 24.9195 12.6474 24.9195 12.6474C24.9626 12.763 25.1502 12.8376 25.3464 12.8181C25.4927 12.7957 25.634 12.7486 25.7641 12.6788C26.004 11.7774 27.4779 8.96032 29.0216 8.96032C29.4104 8.96032 29.646 9.05924 29.6884 9.45839C29.936 11.7774 27.6387 12.9414 26.2446 13.3343C26.1648 13.8219 26.2961 14.3903 27.202 14.4377C28.34 14.4969 29.6058 13.5056 30.8363 11.9139C30.8363 11.9139 31.6759 10.3375 31.8241 10.0393C32.0534 9.56984 32.2862 9.50506 32.5621 9.46814C32.5621 9.46814 33.4793 9.45908 33.9922 9.47928C34.5306 9.50018 34.3662 9.97526 34.0318 10.5527C33.6239 11.2577 31.8678 14.3269 31.0395 15.8469C30.5012 16.8347 30.4419 17.697 31.2998 17.1641C31.8368 16.8298 32.3836 16.3282 32.8746 15.8127C33.7079 14.3415 35.682 10.8481 36.0496 10.1139C36.3714 9.46744 36.6183 9.50436 36.8963 9.46744C36.8963 9.46744 37.7719 9.44724 38.2877 9.46744C38.826 9.48834 38.6454 9.9467 38.2503 10.6161C37.8361 11.3197 36.0877 14.3297 35.2601 15.8497C34.7218 16.8374 34.8664 17.2547 35.5028 16.6598C36.2712 15.9416 36.7199 15.4289 38.5191 13.1385L38.5748 13.0654C39.1273 12.3527 39.8448 11.436 40.2364 11.0013C41.1974 9.92371 41.8274 9.41241 42.8879 9.46884C43.5744 9.50436 43.9603 10.0059 44.0005 10.6133C44.8924 9.92023 46.0008 9.41311 46.5934 9.47302C47.4401 9.558 47.8507 10.139 47.934 10.7708C48.9183 10.0198 50.0217 9.44724 50.9806 9.46884C52.0714 9.48973 52.2781 11.0787 51.6699 11.9863C51.1224 12.8027 49.4333 15.5083 48.9352 16.4585C48.6932 16.9189 48.1386 17.9137 49.1229 17.5877C49.8221 17.3564 50.8113 16.6974 51.8964 15.6442C51.941 14.9014 52.1526 14.1777 52.5159 13.5258C54.5048 9.91884 56.491 9.09407 57.8485 9.16512C59.2059 9.23617 59.9411 10.676 59.7647 12.336C59.7301 12.6444 59.6704 12.9496 59.5862 13.2486C60.1034 13.1093 61.3501 12.6509 62.5496 11.3134C64.0933 8.60505 65.8226 5.56093 66.2043 4.89568C66.4626 4.44567 66.9332 3.67594 67.209 3.63832C67.209 3.63832 68.1905 3.56866 68.7098 3.65295C69.3532 3.75883 68.5496 4.748 68.2159 5.32478C67.8821 5.90156 66.0562 9.22572 64.8842 11.3364C65.7874 10.7736 67.5562 9.4758 68.8897 9.48068C70.039 9.48416 70.0891 10.7506 69.4047 11.7481C68.8502 12.5582 67.0806 15.0179 66.1401 16.4508C65.8579 16.8827 65.7584 17.844 66.8139 16.8688C67.2429 16.471 68.2575 15.0186 69.4894 13.562C70.0376 12.8787 70.83 11.8101 71.261 11.3274C72.2262 10.2407 72.862 9.46117 74.1242 9.46117C75.6962 9.46117 75.3448 11.2284 74.8869 12.0797C74.7787 12.2902 74.6477 12.4886 74.496 12.6711C74.6442 12.917 75.0386 12.8759 75.3427 12.7031C75.8507 10.9616 77.5384 8.92967 78.6002 8.9847C78.9883 9.0049 79.2268 9.11148 79.2684 9.51133C79.4963 11.7035 77.2886 13.0431 75.8218 13.374C75.742 13.8574 75.8718 14.3868 76.7806 14.462C77.9483 14.561 79.1654 13.3802 79.418 13.0723Z" fill="#001655"/>
<path fill-rule="evenodd" clip-rule="evenodd" d="M75.2165 17.681C74.9378 18.2104 75.1459 18.6416 75.6814 18.6416C76.2169 18.6416 76.8809 18.2104 77.1631 17.681C77.4453 17.1516 77.2336 16.7232 76.6918 16.7232C76.1499 16.7232 75.4959 17.1516 75.2165 17.681ZM75.39 17.681C75.6229 17.2394 76.1704 16.8785 76.6099 16.8785C77.0495 16.8785 77.2216 17.2394 76.9895 17.681C76.7574 18.1227 76.2049 18.4856 75.7633 18.4856C75.3216 18.4856 75.1565 18.1234 75.39 17.681Z" fill="#001655"/>
<path fill-rule="evenodd" clip-rule="evenodd" d="M75.5089 18.255H75.348L75.3262 18.2975H75.8349L75.8568 18.255H75.7036L76.0014 17.6887H76.1093C76.3259 17.6887 76.3252 17.7584 76.2236 17.9806C76.1136 18.2181 76.0875 18.2975 76.2942 18.2975H76.4191L76.4409 18.255H76.3986C76.2942 18.255 76.3281 18.168 76.4127 17.9889C76.539 17.7228 76.4833 17.6887 76.2399 17.6587V17.6553C76.4163 17.6351 76.5729 17.5779 76.6759 17.3822C76.805 17.1377 76.6759 17.0924 76.4579 17.0924H75.9576L75.9358 17.1342H76.0959L75.5089 18.255ZM76.2935 17.1342H76.3824C76.5567 17.1342 76.5658 17.2268 76.4833 17.3836C76.4127 17.5229 76.3005 17.6364 76.1488 17.6364H76.0289L76.2935 17.1342Z" fill="#001655"/>
<path fill-rule="evenodd" clip-rule="evenodd" d="M28.1523 28.5883H28.2935L28.6237 27.4794H29.3793L29.6862 28.5883H30.2006L29.2248 25.3499H29.1429L28.1523 28.5883ZM29.3398 27.3414H28.6603L29.0131 26.2039H29.0209L29.3398 27.3414Z" fill="#001655"/>
<path fill-rule="evenodd" clip-rule="evenodd" d="M31.5781 26.9179H32.0325C32.4389 26.9179 32.6011 27.2028 32.6011 27.6974C32.6011 28.1523 32.4798 28.4776 31.9661 28.4776H31.5767L31.5781 26.9179ZM31.5781 25.515H31.9556C32.3126 25.515 32.3789 25.8222 32.3789 26.183C32.3789 26.6372 32.2378 26.78 31.916 26.78H31.5753L31.5781 25.515ZM31.1152 28.5883H32.1545C32.6985 28.5883 33.0887 28.4149 33.0887 27.7336C33.0887 27.1185 32.7472 26.9228 32.242 26.8559V26.8469C32.5948 26.7667 32.8671 26.5682 32.8671 26.1294C32.8671 25.7372 32.726 25.4035 32.1199 25.4035H31.1152V28.5883Z" fill="#001655"/>
<path fill-rule="evenodd" clip-rule="evenodd" d="M61.4257 27.0398C61.4257 26.2826 61.1252 25.4376 60.438 25.4376C59.7508 25.4376 59.4502 26.2798 59.4502 27.0398C59.4502 27.7998 59.7508 28.642 60.438 28.642C61.1252 28.642 61.4257 27.7998 61.4257 27.0398ZM60.9382 27.0398C60.9382 28.0471 60.8161 28.5026 60.4344 28.5026C60.0527 28.5026 59.9307 28.0485 59.9307 27.0398C59.9307 26.0311 60.0527 25.5769 60.4344 25.5769C60.8161 25.5769 60.9382 26.036 60.9382 27.0398Z" fill="#001655"/>
<path fill-rule="evenodd" clip-rule="evenodd" d="M48.2539 28.4776V28.5883H49.5126C50.4588 28.5883 50.7636 27.8137 50.7636 26.998C50.7636 26.036 50.3529 25.4035 49.5006 25.4035H48.2539V28.4776ZM48.7167 25.515H49.4223C50.0312 25.515 50.2549 26.1203 50.2549 26.998C50.2549 27.7733 50.0192 28.4776 49.4082 28.4776H48.7217L48.7167 25.515Z" fill="#001655"/>
<path fill-rule="evenodd" clip-rule="evenodd" d="M34.1553 28.5883H36.2381V27.4125H36.1393C36.0095 28.286 35.7576 28.4776 35.2926 28.4776H34.6188V25.4035H34.156L34.1553 28.5883Z" fill="#001655"/>
<path fill-rule="evenodd" clip-rule="evenodd" d="M19.5439 28.5883H21.6049L21.6416 27.4975H21.5322C21.4468 28.1342 21.2436 28.4776 20.6227 28.4776H20.0089V27.0335H20.2283C20.6996 27.0335 20.7222 27.1805 20.7279 27.7378H20.8499V26.2227H20.7279C20.7321 26.7041 20.6996 26.8956 20.2283 26.8956H20.0089V25.515H20.2043C21.13 25.515 21.2803 25.5951 21.4038 26.3836H21.5096L21.4856 25.4035H19.5439V28.5883Z" fill="#001655"/>
<path fill-rule="evenodd" clip-rule="evenodd" d="M22.6083 28.4414C22.8781 28.5788 23.1783 28.6478 23.4818 28.642C23.9855 28.642 24.4971 28.286 24.4971 27.6751C24.4971 26.477 22.9449 26.8065 22.9449 26.0096C22.9449 25.6571 23.2172 25.4878 23.5015 25.4878C23.879 25.4878 24.1147 25.733 24.212 26.2408H24.3214L24.2974 25.5442C24.0643 25.4265 23.8077 25.3611 23.546 25.3527C23.0669 25.3527 22.6288 25.6689 22.6288 26.2346C22.6288 27.3352 24.2043 27.028 24.2043 27.8876C24.2043 28.3153 23.8712 28.5068 23.5347 28.5068C23.0634 28.5068 22.7219 28.0568 22.6937 27.5442H22.5801L22.6083 28.4414Z" fill="#001655"/>
<path fill-rule="evenodd" clip-rule="evenodd" d="M26.215 28.5883H26.6779V25.5414H27.0264C27.4413 25.5414 27.5993 26.0095 27.6155 26.4233H27.7376V25.4035H25.1553V26.4233H25.2773C25.2936 26.0095 25.4481 25.5414 25.8658 25.5414H26.215V28.5883Z" fill="#001655"/>
<path fill-rule="evenodd" clip-rule="evenodd" d="M38.8554 28.4414C39.1251 28.5788 39.4253 28.6478 39.7288 28.642C40.2326 28.642 40.7441 28.286 40.7441 27.6751C40.7441 26.477 39.1919 26.8065 39.1919 26.0096C39.1919 25.6571 39.4643 25.4878 39.7486 25.4878C40.1261 25.4878 40.3617 25.733 40.4591 26.2408H40.5685L40.5445 25.5442C40.3113 25.4265 40.0548 25.3611 39.7931 25.3527C39.314 25.3527 38.8758 25.6689 38.8758 26.2346C38.8758 27.3352 40.4513 27.028 40.4513 27.8876C40.4513 28.3153 40.1183 28.5068 39.7818 28.5068C39.3105 28.5068 38.969 28.0568 38.9407 27.5442H38.8271L38.8554 28.4414Z" fill="#001655"/>
<path fill-rule="evenodd" clip-rule="evenodd" d="M43.4771 26.8956H42.2177V25.4035H41.7549V28.5883H42.2177V27.0071H43.4771V28.5883H43.9393V25.4035H43.4771V26.8956Z" fill="#001655"/>
<path fill-rule="evenodd" clip-rule="evenodd" d="M45.1162 28.5883H47.175L47.2117 27.4975H47.1024C47.017 28.1342 46.8138 28.4776 46.1929 28.4776H45.5791V27.0335H45.7985C46.2698 27.0335 46.2924 27.1805 46.298 27.7378H46.4201V26.2227H46.2994C46.3037 26.7041 46.2712 26.8956 45.7999 26.8956H45.5805V25.515H45.7759C46.7016 25.515 46.8519 25.5951 46.9754 26.3836H47.0812L47.0565 25.4035H45.1162V28.5883Z" fill="#001655"/>
<path fill-rule="evenodd" clip-rule="evenodd" d="M52.4455 26.4679C52.6283 26.3433 52.7921 26.1934 52.9316 26.0228H52.9394V28.5883H53.4022V25.4035H53.2033C53.029 25.8215 52.7037 26.1294 52.3672 26.3746L52.4455 26.4679Z" fill="#001655"/>
<path fill-rule="evenodd" clip-rule="evenodd" d="M54.3838 26.4129L54.4812 26.4616L54.6724 25.9538H55.9649C55.4534 26.7514 55.0308 27.6256 54.8607 28.5911H55.368C55.4287 27.3665 55.7497 26.4839 56.42 25.4996H54.7133L54.3838 26.4129Z" fill="#001655"/>
<path fill-rule="evenodd" clip-rule="evenodd" d="M56.9531 26.4129L57.0505 26.4616L57.241 25.9538H58.5371C58.0249 26.7514 57.6029 27.6256 57.4322 28.5911H57.9409C58.0023 27.3665 58.3233 26.4839 58.9929 25.4996H57.2798L56.9531 26.4129Z" fill="#001655"/>
<path d="M37.7031 25.4035H37.2402V28.589H37.7031V25.4035Z" fill="#001655"/>
</g>
<defs>
<clipPath id="clip0_477_2019">
<rect width="80" height="28.642" fill="white"/>
</clipPath>
</defs>
</svg>
