<svg width="128" height="47" viewBox="0 0 128 47" fill="none" xmlns="http://www.w3.org/2000/svg">
<g clip-path="url(#clip0_477_569)">
<path d="M7.94272 20.0957C14.3774 20.4353 20.4734 11.2659 22.292 3.55456C21.5718 3.45947 20.8019 3.38589 19.9665 3.34174C17.3192 3.19428 14.6907 3.86608 12.4368 5.26618C7.38392 8.43585 4.58767 14.3043 4.86086 16.9691C5.03697 18.6977 6.74159 20.0323 7.94272 20.0957ZM27.819 23.1759C29.6715 20.4964 32.0219 15.365 31.6573 11.7595C31.5331 10.5437 31.2779 9.32222 30.7033 8.20039C27.0616 11.541 24.2856 16.5513 21.8201 20.0968C19.5161 23.408 16.4015 26.7192 12.5147 28.7749C14.3136 29.4525 16.2062 29.8469 18.1253 29.9443C21.8111 30.1402 25.9981 25.809 27.819 23.1759ZM94.7914 19.8489C94.9404 17.9675 93.9459 16.4845 93.106 16.4404C92.0053 16.3827 90.1844 18.0535 87.5135 22.5918C85.5086 25.9969 84.8312 29.3466 86.4173 29.3964C88.1897 29.4519 91.1315 27.2773 93.0619 24.2446C91.5944 24.2446 90.9667 23.7374 90.7014 22.1401C90.4418 20.5655 92.0775 18.6773 93.2403 18.7384C93.8533 18.7678 94.4584 19.2116 94.7914 19.8489ZM127.069 21.2436C127.456 20.7613 128.046 20.7704 127.996 21.1304C127.412 22.036 125.038 24.6453 122.5 24.5264C121.285 24.471 120.441 23.2586 120.331 21.9749C120.331 21.9749 118.767 21.2255 118.422 21.8277C116.888 24.5151 114.854 28.2044 114.358 29.1927C113.981 29.9488 113.776 30.0394 113.122 30.0507C113.122 30.0507 111.797 30.0134 110.993 30.027C110.338 30.0371 110.083 29.4915 110.718 28.4014C111.38 27.2603 114.33 22.4016 115.731 19.9882C117.149 17.5452 116.192 17.5917 115.032 18.9558C114.643 19.4086 111.607 23.2665 109.644 25.7909C107.105 29.0545 104.959 30.2296 103.703 30.2058C100.55 30.1356 101.671 27.1493 102.169 26.1905C103.624 23.3922 105.253 21.3081 106.777 19.0508C107.656 17.7468 106.307 18.2222 105.092 19.3259C103.461 20.8077 101.547 22.5431 100.774 23.7804C99.4481 26.1577 97.9703 28.8655 97.6712 29.4757C97.4702 29.8866 97.2603 30.0247 96.5976 30.0315C96.2804 30.0315 95.2215 30.0315 94.648 30.0315C93.649 30.0247 93.632 29.4655 94.166 28.4546C94.6571 27.5354 95.0307 27.0158 95.8469 25.6494C96.1054 25.2147 97.2298 23.451 98.4896 21.2119C96.9645 22.3054 95.5218 23.2156 94.4888 23.742C92.7052 27.3814 89.2057 30.5839 86.2864 30.4707C84.7296 30.4096 83.5296 29.041 83.1447 27.1448C80.4353 29.1315 77.5002 30.0779 76.2054 30.01C73.4362 29.8639 74.3089 27.2309 74.8101 26.2686C76.2652 23.4691 77.9924 20.956 79.3493 18.5086C80.2321 16.9181 78.6889 17.2804 77.3907 18.5392C76.8292 19.0799 76.3329 19.6847 75.9119 20.3414C74.3992 22.6484 71.4889 28.064 70.9075 29.23C70.5305 29.9862 70.2618 30.0156 69.8757 30.0156H67.5649C66.681 30.0156 66.8345 29.1621 67.382 28.2327C68.0503 27.1007 71.446 21.3658 72.856 18.9501C74.3868 16.3306 72.0161 17.337 70.8906 18.3841C69.9559 19.2489 69.8746 19.361 69.0494 20.6742C67.391 23.3231 64.7822 28.1455 64.2595 29.221C64.0044 29.7451 63.8599 30.0134 63.1126 30.0134H60.9135C60.0409 30.0134 60.1876 29.1508 60.7351 28.2214C61.4023 27.0894 64.6501 21.7903 66.0082 19.3429C66.9113 17.7139 66.0217 17.6098 65.0283 18.8482C63.9468 20.1965 62.4793 21.9715 61.3899 23.4386C56.6486 29.8266 54.8931 30.079 53.2224 30.0553C52.2064 30.0405 51.6894 29.1689 51.7006 28.1308C49.5987 29.6647 48.0013 30.1005 46.9853 30.1005C44.9454 30.1005 44.8799 27.4867 45.6205 26.1056C45.9151 25.5555 47.7541 22.2024 47.7541 22.2024C46.5337 23.5178 44.6146 24.6736 43.1809 24.4925C41.6456 24.2966 41.2415 23.0424 41.0756 22.362C41.047 22.2229 41.0259 22.0823 41.0123 21.9409C40.7662 21.8345 39.4217 21.2617 39.1553 21.7236C37.5828 24.4472 35.4526 28.3301 34.9604 29.3183C34.5833 30.0745 34.0956 30.0122 33.6734 30.0122C33.6734 30.0122 32.4971 29.9919 31.6618 29.9919C30.849 29.9919 30.8975 29.2243 31.4439 28.2938C32.1122 27.1618 35.4379 21.8198 36.7497 19.344C37.5963 17.7445 36.919 17.5622 35.8691 18.7497C34.4433 20.3629 32.1799 23.3763 31.0917 24.78C28.1193 29.3081 23.0901 31.4171 19.0205 31.2009C15.8099 31.0311 13.3275 30.2602 11.1815 29.41C8.7499 30.4779 6.10286 30.9606 3.45201 30.8194C2.49697 30.7684 0.178238 30.0111 0.0122912 28.4263C-0.145753 26.8788 1.72368 25.9517 3.62473 26.049C5.64092 26.1554 7.23717 26.6388 8.75214 27.232C9.30303 27.4459 9.84377 27.6757 10.3902 27.9112C11.7685 27.1278 12.9313 25.9686 14.0884 24.4076C17.3622 19.9983 22.1836 11.267 29.4514 6.8612C29.5293 6.81366 29.6095 6.76725 29.6885 6.72083C28.4241 5.31939 26.3673 4.20434 23.0156 3.65531C22.7433 5.3095 22.3018 6.93119 21.6982 8.49471C18.7292 16.1778 13.9687 21.2651 8.26445 20.9617C5.71317 20.827 3.67101 18.5052 3.24091 16.5819C2.55567 13.5254 3.92501 10.2777 5.23226 8.52981C8.40782 4.03454 13.4449 1.5837 19.2305 1.88935C20.3484 1.94557 21.4609 2.08138 22.5596 2.29575C22.6755 1.65639 22.758 1.01139 22.8068 0.363381L23.2922 -0.00112915C23.3193 0.809425 23.2838 1.62086 23.1861 2.42593C26.5457 3.20137 28.7955 4.67979 30.3071 6.37103C33.6655 4.5598 37.8086 3.49569 38.6405 4.04586C38.6405 4.04586 34.8023 4.90506 31.7769 7.27326C31.6177 7.39891 31.4631 7.53363 31.3073 7.66494C33.1067 10.3818 33.389 13.3103 33.5267 14.6563C33.7626 16.96 33.7615 18.298 33.3009 20.09C34.0234 19.138 35.5508 17.3653 36.0678 16.8468C36.2936 16.6204 37.3999 15.3333 39.2761 15.3333C41.8319 15.3333 41.2551 18.2969 40.4648 19.6474C40.2266 20.055 39.871 20.553 39.871 20.553C39.9399 20.741 40.2402 20.8621 40.554 20.8304C40.7881 20.7941 41.0142 20.7175 41.2223 20.604C41.6061 19.1391 43.9644 14.5612 46.4344 14.5612C47.0564 14.5612 47.4335 14.722 47.5012 15.3706C47.8974 19.1391 44.2218 21.0308 41.9911 21.6692C41.8635 22.4616 42.0735 23.3854 43.523 23.4623C45.3439 23.5586 47.3691 21.9477 49.3379 19.361C49.3379 19.361 50.6813 16.7992 50.9183 16.3147C51.2852 15.5518 51.6577 15.4465 52.0991 15.3865C52.0991 15.3865 53.5667 15.3718 54.3874 15.4046C55.2487 15.4386 54.9857 16.2106 54.4506 17.149C53.7981 18.2947 50.9883 23.2824 49.663 25.7524C48.8017 27.3576 48.7068 28.7591 50.0796 27.8931C50.9386 27.3497 51.8135 26.5347 52.5992 25.697C53.9325 23.3061 57.0911 17.629 57.6792 16.4359C58.194 15.3853 58.5891 15.4453 59.0339 15.3853C59.0339 15.3853 60.4348 15.3525 61.2601 15.3853C62.1214 15.4193 61.8324 16.1642 61.2002 17.2521C60.5376 18.3954 57.7402 23.2869 56.416 25.757C55.5547 27.3622 55.7861 28.0403 56.8043 27.0735C58.0337 25.9064 58.7517 25.0732 61.6303 21.3511L61.7195 21.2323C62.6034 20.0742 63.7515 18.5845 64.378 17.8781C65.9156 16.1268 66.9237 15.2959 68.6204 15.3876C69.7188 15.4453 70.3363 16.2604 70.4007 17.2475C71.8276 16.1212 73.6011 15.2971 74.5493 15.3944C75.904 15.5325 76.561 16.4766 76.6942 17.5034C78.269 16.283 80.0346 15.3525 81.5687 15.3876C83.314 15.4216 83.6448 18.0037 82.6717 19.4787C81.7956 20.8055 79.0931 25.2023 78.2961 26.7463C77.9089 27.4946 77.0216 29.1111 78.5964 28.5814C79.7151 28.2055 81.2978 27.1346 83.034 25.423C83.1054 24.2159 83.4439 23.04 84.0252 21.9805C87.2075 16.1189 90.3853 14.7786 92.5573 14.894C94.7293 15.0095 95.9056 17.3494 95.6234 20.047C95.568 20.5482 95.4725 21.0441 95.3378 21.53C96.1653 21.3036 98.16 20.5587 100.079 18.3852C102.549 13.9839 105.316 9.03695 105.927 7.95587C106.34 7.22458 107.093 5.9737 107.534 5.91257C107.534 5.91257 109.105 5.79936 109.935 5.93634C110.965 6.10841 109.679 7.71588 109.145 8.6532C108.611 9.59051 105.69 14.9925 103.815 18.4226C105.26 17.5079 108.09 15.3989 110.223 15.4069C112.062 15.4125 112.142 17.4705 111.047 19.0916C110.16 20.4081 107.329 24.4053 105.824 26.7339C105.372 27.4357 105.213 28.9979 106.902 27.4131C107.588 26.7667 109.212 24.4065 111.183 22.0394C112.06 20.9289 113.328 19.1923 114.017 18.4079C115.562 16.6419 116.579 15.3752 118.598 15.3752C121.114 15.3752 120.551 18.2471 119.819 19.6304C119.646 19.9726 119.436 20.2949 119.193 20.5915C119.43 20.9911 120.062 20.9243 120.548 20.6436C121.361 17.8135 124.061 14.5114 125.76 14.6009C126.381 14.6337 126.763 14.8069 126.829 15.4567C127.194 19.0191 123.662 21.196 121.315 21.7337C121.187 22.5194 121.395 23.3797 122.849 23.502C124.717 23.6627 126.664 21.7439 127.069 21.2436Z" fill="#001655"/>
<path fill-rule="evenodd" clip-rule="evenodd" d="M120.346 28.733C119.9 29.5934 120.233 30.2941 121.09 30.2941C121.947 30.2941 123.009 29.5934 123.461 28.733C123.912 27.8727 123.574 27.1765 122.707 27.1765C121.84 27.1765 120.793 27.8727 120.346 28.733ZM120.624 28.733C120.997 28.0153 121.873 27.429 122.576 27.429C123.279 27.429 123.555 28.0153 123.183 28.733C122.812 29.4508 121.928 30.0405 121.221 30.0405C120.515 30.0405 120.25 29.4519 120.624 28.733Z" fill="#001655"/>
<path fill-rule="evenodd" clip-rule="evenodd" d="M120.815 29.6658H120.557L120.522 29.7349H121.336L121.371 29.6658H121.126L121.603 28.7455H121.776C122.122 28.7455 122.121 28.8587 121.958 29.2198C121.782 29.6058 121.741 29.7349 122.071 29.7349H122.271L122.306 29.6658H122.238C122.071 29.6658 122.125 29.5243 122.261 29.2334C122.463 28.801 122.374 28.7455 121.984 28.6968V28.6912C122.267 28.6583 122.517 28.5655 122.682 28.2474C122.889 27.8501 122.682 27.7765 122.333 27.7765H121.533L121.498 27.8444H121.754L120.815 29.6658ZM122.07 27.8444H122.212C122.491 27.8444 122.506 27.995 122.374 28.2497C122.261 28.4761 122.081 28.6606 121.839 28.6606H121.647L122.07 27.8444Z" fill="#001655"/>
<path fill-rule="evenodd" clip-rule="evenodd" d="M45.0439 46.4583H45.2697L45.798 44.6561H47.0071L47.4981 46.4583H48.3211L46.7599 41.1955H46.6289L45.0439 46.4583ZM46.9439 44.432H45.8567L46.4212 42.5834H46.4336L46.9439 44.432Z" fill="#001655"/>
<path fill-rule="evenodd" clip-rule="evenodd" d="M50.5242 43.7437H51.2512C51.9015 43.7437 52.1611 44.2067 52.1611 45.0104C52.1611 45.7497 51.967 46.2783 51.1451 46.2783H50.522L50.5242 43.7437ZM50.5242 41.4638H51.1282C51.6994 41.4638 51.8055 41.963 51.8055 42.5494C51.8055 43.2875 51.5798 43.5196 51.065 43.5196H50.5197L50.5242 41.4638ZM49.7837 46.4583H51.4465C52.3169 46.4583 52.9412 46.1764 52.9412 45.0693C52.9412 44.0697 52.3948 43.7516 51.5865 43.643V43.6282C52.151 43.4981 52.5867 43.1754 52.5867 42.4623C52.5867 41.8249 52.3609 41.2827 51.3912 41.2827H49.7837V46.4583Z" fill="#001655"/>
<path fill-rule="evenodd" clip-rule="evenodd" d="M98.281 43.9418C98.281 42.7113 97.8001 41.3381 96.7006 41.3381C95.601 41.3381 95.1201 42.7068 95.1201 43.9418C95.1201 45.1768 95.601 46.5454 96.7006 46.5454C97.8001 46.5454 98.281 45.1768 98.281 43.9418ZM97.5009 43.9418C97.5009 45.5787 97.3056 46.319 96.6949 46.319C96.0842 46.319 95.8889 45.581 95.8889 43.9418C95.8889 42.3026 96.0842 41.5645 96.6949 41.5645C97.3056 41.5645 97.5009 42.3105 97.5009 43.9418Z" fill="#001655"/>
<path fill-rule="evenodd" clip-rule="evenodd" d="M77.2056 46.2783V46.4583H79.2195C80.7333 46.4583 81.221 45.1995 81.221 43.8739C81.221 42.3106 80.564 41.2827 79.2003 41.2827H77.2056V46.2783ZM77.9461 41.4638H79.075C80.0492 41.4638 80.4071 42.4475 80.4071 43.8739C80.4071 45.1338 80.03 46.2783 79.0524 46.2783H77.954L77.9461 41.4638Z" fill="#001655"/>
<path fill-rule="evenodd" clip-rule="evenodd" d="M54.6484 46.4583H57.9809V44.5474H57.8229C57.6152 45.967 57.2121 46.2783 56.4682 46.2783H55.3901V41.2827H54.6496L54.6484 46.4583Z" fill="#001655"/>
<path fill-rule="evenodd" clip-rule="evenodd" d="M31.27 46.4583H34.5675L34.6262 44.6856H34.4512C34.3146 45.7202 33.9895 46.2783 32.9961 46.2783H32.014V43.9316H32.365C33.1191 43.9316 33.1553 44.1705 33.1643 45.0761H33.3596V42.6139H33.1643C33.1711 43.3962 33.1191 43.7075 32.365 43.7075H32.014V41.4638H32.3267C33.8078 41.4638 34.0482 41.594 34.2458 42.8754H34.4151L34.3767 41.2827H31.27V46.4583Z" fill="#001655"/>
<path fill-rule="evenodd" clip-rule="evenodd" d="M36.1741 46.2194C36.6057 46.4428 37.086 46.5549 37.5716 46.5455C38.3776 46.5455 39.1961 45.967 39.1961 44.9742C39.1961 43.0271 36.7125 43.5626 36.7125 42.2675C36.7125 41.6947 37.1483 41.4196 37.6032 41.4196C38.2072 41.4196 38.5842 41.8181 38.74 42.6434H38.915L38.8766 41.5113C38.5036 41.3201 38.0931 41.2138 37.6744 41.2C36.9078 41.2 36.2068 41.714 36.2068 42.6332C36.2068 44.4218 38.7276 43.9226 38.7276 45.3195C38.7276 46.0145 38.1948 46.3258 37.6563 46.3258C36.9022 46.3258 36.3558 45.5946 36.3107 44.7614H36.1289L36.1741 46.2194Z" fill="#001655"/>
<path fill-rule="evenodd" clip-rule="evenodd" d="M41.9436 46.4583H42.6842V41.5068H43.2419C43.9056 41.5068 44.1585 42.2675 44.1845 42.94H44.3798V41.2827H40.248V42.94H40.4433C40.4693 42.2675 40.7165 41.5068 41.3848 41.5068H41.9436V46.4583Z" fill="#001655"/>
<path fill-rule="evenodd" clip-rule="evenodd" d="M62.1692 46.2194C62.6008 46.4428 63.0811 46.5549 63.5667 46.5455C64.3728 46.5455 65.1912 45.967 65.1912 44.9742C65.1912 43.0271 62.7077 43.5626 62.7077 42.2675C62.7077 41.6947 63.1434 41.4196 63.5984 41.4196C64.2023 41.4196 64.5794 41.8181 64.7351 42.6434H64.9101L64.8717 41.5113C64.4987 41.3201 64.0882 41.2138 63.6695 41.2C62.903 41.2 62.2019 41.714 62.2019 42.6332C62.2019 44.4218 64.7227 43.9226 64.7227 45.3195C64.7227 46.0145 64.1899 46.3258 63.6514 46.3258C62.8973 46.3258 62.3509 45.5946 62.3058 44.7614H62.124L62.1692 46.2194Z" fill="#001655"/>
<path fill-rule="evenodd" clip-rule="evenodd" d="M69.5632 43.7075H67.5482V41.2827H66.8076V46.4583H67.5482V43.8886H69.5632V46.4583H70.3027V41.2827H69.5632V43.7075Z" fill="#001655"/>
<path fill-rule="evenodd" clip-rule="evenodd" d="M72.1855 46.4583H75.4796L75.5383 44.6856H75.3634C75.2268 45.7202 74.9017 46.2783 73.9082 46.2783H72.9261V43.9316H73.2772C74.0313 43.9316 74.0674 44.1705 74.0764 45.0761H74.2717V42.6139H74.0787C74.0855 43.3962 74.0335 43.7075 73.2794 43.7075H72.9284V41.4638H73.2411C74.7222 41.4638 74.9626 41.594 75.1602 42.8754H75.3295L75.29 41.2827H72.1855V46.4583Z" fill="#001655"/>
<path fill-rule="evenodd" clip-rule="evenodd" d="M83.9124 43.0124C84.2049 42.81 84.4669 42.5663 84.6902 42.2891H84.7026V46.4583H85.4432V41.2827H85.1248C84.846 41.9619 84.3256 42.4623 83.7871 42.8607L83.9124 43.0124Z" fill="#001655"/>
<path fill-rule="evenodd" clip-rule="evenodd" d="M87.0146 42.923L87.1704 43.0022L87.4764 42.177H89.5445C88.726 43.4731 88.0498 44.8938 87.7778 46.4628H88.5894C88.6865 44.4727 89.2002 43.0385 90.2726 41.4389H87.5418L87.0146 42.923Z" fill="#001655"/>
<path fill-rule="evenodd" clip-rule="evenodd" d="M91.125 42.923L91.2808 43.0022L91.5856 42.177H93.6594C92.8398 43.4731 92.1647 44.8938 91.8915 46.4628H92.7054C92.8037 44.4727 93.3173 43.0385 94.3886 41.4389H91.6477L91.125 42.923Z" fill="#001655"/>
<path d="M60.3245 41.2827H59.584V46.4594H60.3245V41.2827Z" fill="#001655"/>
</g>
<defs>
<clipPath id="clip0_477_569">
<rect width="128" height="46.5455" fill="white"/>
</clipPath>
</defs>
</svg>
