<svg width="80" height="30" viewBox="0 0 80 30" fill="none" xmlns="http://www.w3.org/2000/svg">
<g clip-path="url(#clip0_113_1229)">
<path d="M4.70723 29.1562H0.0922852V0H4.70723V29.1562Z" fill="#1B2C72"/>
<path d="M10.0837 26.702C10.0771 26.3094 10.1519 25.9197 10.3035 25.5566C10.4551 25.1935 10.6804 24.8647 10.9655 24.5902C11.2506 24.3158 11.5896 24.1016 11.9617 23.9606C12.3338 23.8197 12.7312 23.755 13.1295 23.7705C13.5267 23.7512 13.9235 23.8137 14.2948 23.9539C14.6661 24.0941 15.0036 24.3089 15.2858 24.5848C15.5681 24.8606 15.7889 25.1913 15.9341 25.5558C16.0793 25.9204 16.1457 26.3107 16.1292 26.702C16.1292 27.4915 15.8107 28.2488 15.2438 28.8071C14.677 29.3654 13.9081 29.679 13.1064 29.679C12.3047 29.679 11.5359 29.3654 10.969 28.8071C10.4021 28.2488 10.0837 27.4915 10.0837 26.702Z" fill="#1B2C72"/>
<path d="M28.705 6.02192C28.3615 6.04998 28.0158 6.00823 27.6894 5.89924C27.363 5.79025 27.0628 5.61634 26.8075 5.38833C26.5522 5.16032 26.3472 4.88302 26.2052 4.57373C26.0632 4.26443 25.9873 3.92973 25.9822 3.59033C25.9873 3.24498 26.0644 2.90432 26.2087 2.58952C26.353 2.27472 26.5614 1.99252 26.821 1.76029C27.0806 1.52806 27.3859 1.35075 27.7179 1.23946C28.0499 1.12818 28.4016 1.08527 28.7511 1.11331C29.412 1.11331 30.0459 1.37187 30.5133 1.83214C30.9806 2.29241 31.2432 2.91666 31.2432 3.56758C31.2432 4.2185 30.9806 4.84275 30.5133 5.30303C30.0459 5.7633 29.412 6.02192 28.7511 6.02192H28.705ZM31.0124 29.1559H26.3975V9.08974H31.0124V29.1559Z" fill="#1B2C72"/>
<path d="M42.1114 26.702C42.1048 26.3094 42.1796 25.9197 42.3312 25.5566C42.4828 25.1935 42.7081 24.8647 42.9932 24.5902C43.2783 24.3158 43.6173 24.1016 43.9894 23.9606C44.3615 23.8197 44.7589 23.755 45.1572 23.7705C45.5544 23.7512 45.9512 23.8137 46.3225 23.9539C46.6937 24.0941 47.0313 24.3089 47.3135 24.5848C47.5958 24.8606 47.8165 25.1913 47.9617 25.5558C48.1069 25.9204 48.1734 26.3107 48.1569 26.702C48.1569 27.4915 47.8384 28.2488 47.2716 28.8071C46.7047 29.3654 45.9358 29.679 45.1341 29.679C44.3325 29.679 43.5636 29.3654 42.9967 28.8071C42.4299 28.2488 42.1114 27.4915 42.1114 26.702V26.702Z" fill="#1B2C72"/>
<path d="M67.4935 5.65878C65.7663 4.84018 63.8723 4.42045 61.9556 4.43161C58.2636 4.43161 56.7176 6.36325 56.7176 8.1358C56.7176 10.4083 58.4713 11.6581 62.417 13.2034C67.4012 15.1578 69.801 17.5894 69.801 21.4072C69.801 25.9522 65.9475 29.5654 58.9558 29.5654C56.355 29.6078 53.7823 29.0309 51.4565 27.8838L52.4949 24.3614C54.5754 25.4303 56.8861 25.9914 59.2327 25.9976C62.9247 25.9976 65.0014 24.2933 65.0014 21.7708C65.0014 19.2483 63.4324 17.953 59.7173 16.5895C55.1024 14.9078 51.9642 12.3854 51.9642 8.613C51.9642 4.20435 55.91 0.909266 62.094 0.909266C64.338 0.869322 66.5647 1.30325 68.6241 2.18186L67.4935 5.65878Z" fill="#1B2C72"/>
<path d="M73.9545 26.7017C73.948 26.3112 74.0222 25.9233 74.1724 25.5618C74.3227 25.2003 74.5458 24.8725 74.8285 24.5985C75.1111 24.3244 75.4473 24.1097 75.8166 23.9673C76.186 23.8249 76.5808 23.7579 76.9773 23.7703C77.3763 23.7477 77.7757 23.8077 78.1497 23.9464C78.5238 24.0851 78.8641 24.2995 79.1489 24.5757C79.4337 24.8519 79.6566 25.1838 79.8032 25.55C79.9498 25.9161 80.0168 26.3085 80 26.7017C80 27.4913 79.6816 28.2485 79.1147 28.8068C78.5479 29.3651 77.779 29.6787 76.9773 29.6787C76.1756 29.6787 75.4067 29.3651 74.8399 28.8068C74.273 28.2485 73.9545 27.4913 73.9545 26.7017V26.7017Z" fill="#1B2C72"/>
</g>
<defs>
<clipPath id="clip0_113_1229">
<rect width="80" height="29.5652" fill="white"/>
</clipPath>
</defs>
</svg>
