<?xml version="1.0" encoding="UTF-8"?><svg id="_レイヤー_1" xmlns="http://www.w3.org/2000/svg" viewBox="0 0 18.91 19.43"><defs><style>.cls-1,.cls-2{fill:none;stroke:#000;stroke-miterlimit:10;}.cls-2{stroke-width:.5px;}</style></defs><path class="cls-1" d="m15.94,18.93h-.27l-.11-.04c-.49-.06-.94-.23-1.35-.5-.78-.51-1.26-1.24-1.56-2.11-.1-.3-.3-.46-.57-.56-.42-.16-.99.03-1.14.53-.09.31-.25.6-.41.88-.27.47-.63.86-1.15,1.05-.64.23-1.3.32-1.98.17-.38-.09-.74-.22-.99-.54l-.28-.41c-.21-.24-.42-.48-.65-.7l-.34-.12c-.37.04-.74,0-1.1-.07-.6-.12-1.11-.39-1.48-.89-.33-.44-.45-.95-.42-1.5.03-.54.22-.98.62-1.35.16-.15.27-.34.38-.53.11-.19.17-.4.14-.62-.07-.42-.34-.67-.74-.78-.72-.2-1.29-.61-1.66-1.26-.22-.39-.32-.82-.36-1.27-.06-.58.07-1.09.46-1.51.21-.23.44-.43.69-.61.59-.42,1.26-.69,1.94-.93.24-.08.43-.22.56-.42.14-.22.29-.43.42-.66.23-.41.56-.68,1.02-.79.53-.14,1.05-.3,1.58-.44.33-.08.57-.25.71-.56l.16-.27c.18-.27.35-.55.56-.8.5-.59,1.12-.86,1.91-.78.76.08,1.31.44,1.69,1.08.28.48.44,1,.53,1.53.09.54.32.98.84,1.19.28.11.58.16.88.2.38.04.74.14,1.05.37.24.18.4.41.43.71l.04.46c.09.55.26,1.08.61,1.53l.14.12c.32.14.6.34.85.58.38.37.73.76.8,1.3.04.29,0,.59-.04.88-.1.7-.45,1.23-1.12,1.49-.48.18-.97.33-1.45.5-.29.11-.59.22-.87.36-.2.11-.27.3-.2.47.14.34.4.59.74.72.34.13.71.2,1.05.34,1.09.46,1.72,1.38,1.56,2.68-.11.9-.84,1.67-1.76,1.83l-.36.07Z"/><path class="cls-2" d="m7.25,6.56c0-.29-.22-.52-.5-.53-.29,0-.53.22-.53.51,0,.28.23.52.5.52.3,0,.53-.21.53-.51Z"/><path class="cls-2" d="m11.82,7.07c.3,0,.52-.22.52-.52,0-.28-.23-.52-.51-.52-.28,0-.53.24-.53.52,0,.28.23.51.52.51Z"/></svg>