<svg id="svg" version="1.1" xmlns="http://www.w3.org/2000/svg" xmlns:xlink="http://www.w3.org/1999/xlink" width="400" height="240" viewBox="0, 0, 400,240"><g id="svgg"><path id="path0" d="M39.195 41.250 C 39.154 41.290,36.383 41.335,33.037 41.348 C 26.546 41.375,23.452 41.619,20.952 42.302 C 19.422 42.719,14.959 44.619,14.461 45.064 C 14.296 45.212,14.097 45.333,14.019 45.333 C 13.875 45.333,12.273 46.393,11.874 46.753 C 11.752 46.863,11.074 47.381,10.367 47.905 C 8.768 49.089,6.476 51.224,6.476 51.528 C 6.476 51.654,6.770 52.068,7.130 52.449 L 7.783 53.142 9.844 53.029 C 13.897 52.806,15.849 53.816,16.060 56.245 C 16.117 56.896,16.123 68.786,16.074 82.667 C 15.956 116.188,15.955 119.274,16.058 141.238 C 16.195 170.213,16.349 187.429,16.501 190.571 C 16.993 200.764,16.590 202.273,12.571 205.257 C 11.995 205.685,10.881 206.511,10.095 207.094 C 8.023 208.631,7.666 209.089,7.550 210.365 C 7.439 211.576,7.544 211.679,9.429 212.208 C 11.045 212.663,24.692 212.564,28.447 212.070 C 29.987 211.868,33.467 210.698,34.504 210.035 C 35.075 209.669,35.893 209.169,36.321 208.923 C 37.994 207.962,41.341 204.912,41.759 203.968 C 41.890 203.671,42.063 203.429,42.142 203.429 C 42.221 203.429,42.286 203.300,42.286 203.143 C 42.286 202.986,42.361 202.857,42.452 202.857 C 42.693 202.857,43.770 199.373,44.013 197.810 C 44.150 196.927,44.199 192.679,44.159 185.238 C 44.123 178.634,44.176 173.293,44.287 172.286 C 44.515 170.222,44.526 168.706,44.328 167.048 C 44.246 166.367,44.118 165.295,44.042 164.667 C 43.911 163.574,43.878 148.724,43.970 132.095 C 43.994 127.800,43.946 121.029,43.864 117.048 C 43.662 107.287,43.673 63.243,43.877 61.810 C 44.190 59.611,46.226 56.442,47.905 55.540 C 48.675 55.127,49.218 54.786,49.333 54.646 C 49.733 54.157,53.507 52.908,55.951 52.455 C 58.232 52.033,66.643 51.934,69.810 52.292 C 71.067 52.434,72.524 52.599,73.048 52.658 C 75.415 52.923,76.960 53.179,80.190 53.841 C 81.870 54.186,84.156 54.811,84.594 55.045 C 84.763 55.136,85.278 55.311,85.737 55.434 C 87.001 55.773,92.034 58.151,92.762 58.753 C 92.919 58.883,93.197 59.043,93.380 59.108 C 93.732 59.232,96.599 61.119,96.762 61.332 C 96.814 61.401,97.166 61.665,97.544 61.919 C 99.597 63.300,104.942 68.540,106.759 70.952 C 106.916 71.162,107.373 71.762,107.774 72.286 C 108.398 73.100,109.269 74.418,110.706 76.718 C 111.232 77.560,113.660 82.529,113.799 83.048 C 113.926 83.519,114.303 84.517,114.771 85.619 C 114.989 86.134,115.374 87.440,115.527 88.190 C 115.693 89.001,116.217 91.439,116.387 92.190 C 117.598 97.555,116.664 105.823,114.125 112.211 C 111.280 119.370,104.754 127.073,98.654 130.472 C 91.830 134.275,86.056 136.116,77.143 137.330 C 74.995 137.622,73.067 137.912,72.857 137.973 C 72.648 138.034,72.176 138.164,71.810 138.261 C 68.712 139.082,66.657 141.679,67.836 143.283 C 68.088 143.625,68.417 144.147,68.568 144.444 C 68.719 144.740,69.146 145.134,69.516 145.320 C 69.887 145.506,70.533 145.838,70.952 146.058 C 71.939 146.576,76.474 148.475,78.190 149.089 C 78.924 149.352,79.976 149.771,80.529 150.021 C 81.083 150.271,81.579 150.476,81.633 150.476 C 81.688 150.476,82.564 150.872,83.580 151.355 C 86.734 152.854,89.771 154.210,91.428 154.859 C 92.004 155.085,92.561 155.338,92.666 155.421 C 92.771 155.504,93.071 155.638,93.332 155.718 C 93.593 155.799,94.335 156.109,94.982 156.408 C 95.628 156.708,96.208 156.952,96.271 156.952 C 96.334 156.952,96.748 157.116,97.193 157.316 C 99.406 158.314,101.107 159.048,101.209 159.048 C 101.333 159.048,102.959 159.762,104.495 160.491 C 105.029 160.745,105.519 160.952,105.582 160.952 C 105.690 160.952,106.344 161.246,109.619 162.763 C 111.511 163.639,116.645 166.191,118.000 166.928 C 121.388 168.773,122.741 169.488,124.381 170.302 C 126.487 171.349,130.970 173.482,131.524 173.703 C 131.733 173.786,132.119 173.939,132.381 174.044 C 132.643 174.148,133.243 174.410,133.714 174.625 C 134.186 174.840,135.600 175.412,136.857 175.895 C 138.114 176.378,139.357 176.867,139.619 176.983 C 140.436 177.344,140.824 177.501,141.905 177.905 C 142.481 178.120,143.124 178.377,143.333 178.476 C 143.767 178.681,144.364 178.889,148.095 180.133 C 149.562 180.622,150.866 181.042,150.993 181.065 C 151.120 181.088,151.763 181.277,152.421 181.485 C 154.090 182.012,155.628 182.449,156.190 182.558 C 157.311 182.773,157.864 182.898,159.597 183.327 C 161.133 183.708,164.422 184.239,166.762 184.484 C 167.635 184.576,170.834 184.782,173.905 184.945 C 176.924 185.106,191.423 185.069,192.190 184.899 C 192.452 184.841,193.481 184.737,194.476 184.667 C 195.885 184.569,199.281 183.830,199.546 183.565 C 199.571 183.540,199.642 183.083,199.703 182.550 L 199.814 181.580 198.240 180.852 C 196.214 179.914,195.726 179.741,193.429 179.144 C 190.609 178.412,186.081 177.384,184.958 177.220 C 184.588 177.166,184.029 177.048,183.714 176.958 C 183.400 176.868,182.543 176.694,181.810 176.571 C 181.076 176.449,180.219 176.275,179.905 176.185 C 179.590 176.094,179.050 175.980,178.704 175.930 C 178.358 175.880,177.673 175.745,177.180 175.628 C 176.688 175.512,175.000 175.114,173.429 174.744 C 170.819 174.130,168.177 173.424,165.577 172.646 C 165.030 172.483,164.472 172.330,164.339 172.307 C 162.687 172.027,154.502 169.157,153.069 168.356 C 152.871 168.245,152.443 168.006,152.117 167.825 C 150.487 166.917,148.664 165.862,147.566 165.190 C 146.784 164.711,146.354 164.463,144.190 163.240 C 143.405 162.796,142.224 162.097,141.567 161.687 C 140.910 161.277,140.074 160.772,139.710 160.566 C 139.346 160.359,138.726 160.006,138.333 159.780 C 137.940 159.554,137.105 159.090,136.476 158.748 C 135.848 158.405,134.776 157.822,134.095 157.450 C 133.414 157.079,132.171 156.422,131.333 155.991 C 129.452 155.024,126.980 153.726,124.476 152.392 C 123.429 151.833,121.543 150.845,120.286 150.195 C 111.125 145.460,109.791 144.560,108.053 141.947 C 107.349 140.888,107.112 139.378,107.563 138.825 C 107.677 138.686,107.884 138.189,108.023 137.721 C 108.284 136.840,110.806 134.128,112.430 132.982 C 115.002 131.166,117.137 129.714,117.235 129.714 C 117.398 129.714,118.559 128.885,118.635 128.714 C 118.670 128.636,118.771 128.571,118.860 128.571 C 118.948 128.571,119.520 128.242,120.129 127.839 C 120.739 127.436,121.667 126.870,122.190 126.582 C 122.714 126.293,123.278 125.937,123.444 125.791 C 123.609 125.644,123.845 125.524,123.967 125.524 C 124.090 125.524,124.190 125.452,124.190 125.364 C 124.190 125.276,124.383 125.116,124.619 125.007 C 126.468 124.159,133.962 117.871,135.084 116.225 C 135.419 115.734,135.761 115.305,135.846 115.270 C 135.931 115.235,136.000 115.092,136.000 114.952 C 136.000 114.813,136.064 114.670,136.143 114.635 C 136.307 114.562,137.905 112.280,137.905 112.118 C 137.905 112.059,138.280 111.215,138.738 110.243 C 139.489 108.650,139.984 107.249,140.271 105.905 C 140.327 105.643,140.496 104.871,140.647 104.190 C 141.266 101.398,141.408 91.629,140.861 89.524 C 140.820 89.367,140.730 88.810,140.660 88.286 C 140.216 84.955,140.258 85.139,139.335 82.381 C 138.950 81.229,138.603 80.157,138.564 80.000 C 138.401 79.348,134.567 72.071,134.098 71.524 C 133.918 71.314,133.726 71.013,133.670 70.854 C 133.561 70.540,130.539 66.502,130.181 66.190 C 130.060 66.086,129.741 65.700,129.471 65.333 C 128.844 64.482,124.579 60.104,124.160 59.882 C 123.985 59.790,123.514 59.413,123.112 59.046 C 122.710 58.678,121.995 58.081,121.524 57.719 C 121.052 57.358,120.369 56.780,120.006 56.436 C 119.642 56.091,119.284 55.810,119.210 55.810 C 119.135 55.810,118.962 55.702,118.823 55.570 C 118.685 55.439,118.079 54.996,117.476 54.586 C 116.874 54.177,116.381 53.770,116.381 53.683 C 116.381 53.595,116.263 53.524,116.119 53.524 C 115.974 53.524,115.749 53.394,115.617 53.236 C 115.391 52.964,111.742 50.467,111.333 50.306 C 111.229 50.264,110.843 50.000,110.476 49.719 C 109.197 48.738,104.907 46.427,101.810 45.051 C 100.500 44.469,96.872 43.262,95.048 42.802 C 89.446 41.387,88.866 41.360,62.253 41.261 C 49.612 41.214,39.235 41.209,39.195 41.250 M224.762 41.345 C 220.729 41.409,217.300 41.514,217.143 41.579 C 216.986 41.643,216.522 41.745,216.112 41.804 C 213.188 42.229,209.987 43.446,206.449 45.477 C 205.091 46.257,202.002 48.664,200.523 50.096 L 199.021 51.551 199.606 52.176 C 199.927 52.521,200.190 52.871,200.190 52.955 C 200.190 53.040,201.326 53.095,202.714 53.078 C 206.567 53.032,208.358 53.782,208.657 55.569 C 208.790 56.363,208.831 103.341,208.700 104.857 C 208.565 106.423,208.548 116.288,208.658 129.048 C 208.886 155.563,209.014 172.715,209.044 180.952 C 209.062 185.719,209.130 191.762,209.196 194.381 C 209.351 200.598,209.117 201.698,207.238 203.571 C 206.620 204.187,204.163 206.135,203.453 206.571 C 203.282 206.676,203.100 206.810,203.048 206.870 C 202.995 206.929,202.467 207.341,201.874 207.785 C 200.644 208.705,200.190 209.496,200.190 210.720 C 200.190 212.269,201.686 212.542,210.095 212.528 C 216.968 212.517,220.857 212.261,222.762 211.695 C 223.286 211.539,224.186 211.275,224.762 211.108 C 226.114 210.715,226.629 210.487,227.351 209.956 C 227.675 209.718,228.040 209.524,228.161 209.524 C 228.282 209.524,228.381 209.448,228.381 209.356 C 228.381 209.264,228.638 209.083,228.952 208.952 C 229.267 208.822,229.524 208.640,229.524 208.548 C 229.524 208.456,229.652 208.381,229.810 208.381 C 229.967 208.381,230.096 208.317,230.097 208.238 C 230.097 208.160,230.376 207.905,230.716 207.673 C 232.342 206.561,235.348 203.104,235.659 201.989 C 236.886 197.580,236.967 196.004,236.799 179.810 C 236.757 175.813,236.818 173.530,237.011 171.905 C 237.259 169.814,237.264 169.225,237.046 167.524 C 236.366 162.200,236.343 161.418,236.506 149.238 C 236.704 134.417,236.712 121.894,236.525 116.000 C 236.308 109.160,236.330 63.788,236.551 62.000 C 236.739 60.476,237.473 58.645,238.232 57.805 C 238.419 57.598,238.819 57.129,239.122 56.762 C 239.425 56.395,239.982 55.909,240.360 55.682 C 242.058 54.662,243.536 53.817,243.667 53.791 C 243.745 53.775,243.852 53.740,243.905 53.714 C 243.957 53.688,244.086 53.645,244.190 53.619 C 244.295 53.593,244.424 53.550,244.476 53.524 C 244.529 53.498,244.636 53.458,244.714 53.436 C 244.793 53.415,245.073 53.306,245.337 53.196 C 245.872 52.972,248.352 52.466,249.810 52.283 C 251.358 52.088,259.579 52.020,261.333 52.187 C 264.497 52.488,265.457 52.601,267.810 52.954 C 273.070 53.744,273.848 53.919,277.704 55.181 C 279.765 55.856,284.666 58.140,286.000 59.047 C 286.419 59.333,287.276 59.894,287.905 60.294 C 288.533 60.695,289.090 61.071,289.143 61.131 C 289.195 61.190,289.581 61.473,290.000 61.759 C 290.419 62.045,291.019 62.502,291.333 62.775 C 291.648 63.047,292.333 63.628,292.857 64.064 C 294.044 65.052,296.955 67.981,298.095 69.335 C 298.567 69.894,299.088 70.487,299.255 70.652 C 299.421 70.817,299.846 71.381,300.199 71.905 C 300.552 72.429,300.994 73.022,301.180 73.224 C 301.367 73.426,301.569 73.747,301.630 73.938 C 301.690 74.129,301.814 74.286,301.905 74.286 C 301.995 74.286,302.129 74.472,302.201 74.699 C 302.273 74.927,302.640 75.591,303.016 76.175 C 304.738 78.850,306.996 83.863,307.826 86.857 C 308.323 88.650,308.692 90.240,308.929 91.619 C 309.046 92.300,309.193 93.114,309.257 93.429 C 309.757 95.914,309.488 102.605,308.751 106.000 C 307.984 109.533,305.275 116.432,304.538 116.730 C 304.452 116.765,304.379 116.894,304.378 117.016 C 304.374 117.250,302.377 120.182,300.986 121.995 C 299.779 123.569,295.543 127.721,294.666 128.191 C 294.473 128.294,294.202 128.491,294.062 128.629 C 291.052 131.614,280.720 135.634,272.952 136.842 C 270.520 137.220,269.789 137.323,267.429 137.614 C 259.917 138.542,257.787 143.216,263.602 146.011 C 265.839 147.087,265.936 147.130,267.238 147.629 C 267.814 147.849,268.543 148.148,268.857 148.294 C 269.171 148.439,270.157 148.820,271.048 149.142 C 271.938 149.464,273.010 149.887,273.429 150.084 C 274.333 150.508,276.325 151.419,277.524 151.958 C 277.995 152.170,279.043 152.652,279.852 153.029 C 280.661 153.406,281.365 153.714,281.418 153.714 C 281.470 153.714,281.966 153.924,282.519 154.181 C 283.071 154.437,284.287 154.959,285.219 155.340 C 286.152 155.721,287.052 156.108,287.219 156.199 C 287.387 156.291,288.167 156.630,288.952 156.952 C 289.738 157.275,290.530 157.621,290.712 157.722 C 290.894 157.822,291.127 157.905,291.231 157.905 C 291.335 157.905,292.086 158.209,292.901 158.582 C 293.715 158.954,294.552 159.325,294.762 159.406 C 294.971 159.487,295.529 159.730,296.000 159.947 C 296.471 160.163,297.586 160.658,298.476 161.046 C 300.784 162.051,301.343 162.307,303.905 163.533 C 307.724 165.360,308.393 165.702,311.524 167.431 C 314.810 169.246,322.762 173.106,325.466 174.199 C 326.325 174.546,327.332 174.965,327.704 175.129 C 328.076 175.294,328.661 175.552,329.004 175.703 C 330.529 176.373,337.029 178.849,339.619 179.745 C 340.090 179.908,340.605 180.089,340.762 180.147 C 340.919 180.205,341.112 180.271,341.190 180.293 C 341.269 180.315,341.355 180.351,341.381 180.372 C 341.407 180.393,341.557 180.437,341.714 180.469 C 341.871 180.501,342.471 180.675,343.048 180.854 C 343.624 181.034,344.610 181.340,345.238 181.535 C 350.101 183.042,357.234 184.380,362.000 184.679 C 363.152 184.751,364.438 184.843,364.857 184.884 C 366.594 185.052,382.154 185.109,384.000 184.954 C 385.100 184.861,386.614 184.735,387.365 184.675 C 388.116 184.614,389.401 184.388,390.222 184.172 C 391.043 183.957,391.843 183.758,392.000 183.730 C 392.205 183.694,392.302 183.382,392.342 182.628 L 392.398 181.577 391.199 180.991 C 388.419 179.634,384.398 178.526,377.238 177.144 C 373.275 176.380,371.109 175.921,368.190 175.228 C 366.881 174.917,365.595 174.613,365.333 174.553 C 364.171 174.286,363.424 174.097,362.000 173.710 C 361.162 173.483,360.133 173.215,359.714 173.116 C 359.026 172.953,356.105 172.076,353.619 171.288 C 353.095 171.121,352.624 170.988,352.571 170.991 C 352.489 170.995,349.588 169.972,347.619 169.244 C 346.747 168.921,343.747 167.331,342.705 166.639 C 342.254 166.340,341.843 166.095,341.791 166.095 C 341.739 166.095,341.243 165.806,340.690 165.452 C 340.137 165.098,339.498 164.749,339.271 164.677 C 339.043 164.605,338.857 164.466,338.857 164.368 C 338.857 164.270,338.779 164.190,338.683 164.190 C 338.501 164.190,335.784 162.675,335.619 162.481 C 335.506 162.348,333.150 160.952,333.039 160.952 C 332.997 160.952,331.867 160.325,330.529 159.559 C 329.190 158.792,327.967 158.104,327.810 158.030 C 327.652 157.956,326.752 157.473,325.810 156.957 C 324.867 156.440,323.410 155.666,322.571 155.237 C 321.733 154.807,320.190 153.998,319.143 153.440 C 317.232 152.422,315.987 151.770,310.857 149.105 C 307.096 147.151,305.860 146.476,305.524 146.192 C 305.367 146.059,304.959 145.809,304.617 145.636 C 303.580 145.111,301.434 143.143,300.770 142.109 C 299.816 140.621,299.863 139.491,300.982 137.048 C 301.621 135.652,305.598 132.374,309.714 129.852 C 310.395 129.435,310.995 129.033,311.048 128.959 C 311.100 128.885,311.571 128.575,312.095 128.271 C 312.619 127.967,313.446 127.460,313.934 127.145 C 314.421 126.830,315.318 126.271,315.928 125.905 C 316.537 125.538,317.738 124.724,318.597 124.095 C 319.456 123.467,320.346 122.824,320.574 122.667 C 320.801 122.510,321.173 122.221,321.399 122.025 C 321.625 121.829,322.152 121.451,322.571 121.183 C 323.801 120.399,327.592 116.582,328.477 115.238 C 328.925 114.557,329.482 113.786,329.714 113.524 C 330.136 113.049,330.949 111.428,331.877 109.214 C 332.303 108.198,332.991 105.856,333.233 104.598 C 333.276 104.373,333.353 104.122,333.404 104.039 C 333.530 103.836,333.979 98.026,333.974 96.667 C 333.970 95.782,333.665 90.540,333.596 90.190 C 333.555 89.981,333.431 89.011,333.320 88.035 C 333.151 86.538,332.945 85.572,332.299 83.238 C 332.255 83.081,332.207 82.952,332.190 82.952 C 332.174 82.952,332.132 82.824,332.097 82.667 C 331.720 81.002,330.651 78.621,328.052 73.659 C 327.122 71.882,325.493 69.511,323.275 66.707 C 322.719 66.004,322.076 65.179,321.846 64.875 C 320.878 63.592,317.120 60.024,315.020 58.394 C 314.354 57.877,313.724 57.358,313.619 57.240 C 313.514 57.121,312.743 56.516,311.905 55.894 C 311.067 55.273,310.338 54.718,310.286 54.663 C 309.773 54.118,303.907 50.095,303.626 50.095 C 303.535 50.095,303.432 50.022,303.397 49.933 C 303.195 49.419,294.047 44.571,293.278 44.571 C 293.134 44.571,292.957 44.512,292.884 44.440 C 292.811 44.367,292.568 44.280,292.343 44.245 C 292.119 44.211,291.842 44.112,291.729 44.026 C 291.393 43.770,287.659 42.689,286.000 42.368 C 285.581 42.286,285.195 42.209,285.143 42.194 C 284.518 42.027,283.673 41.901,282.571 41.810 C 281.838 41.750,280.552 41.621,279.714 41.524 C 277.919 41.315,235.383 41.177,224.762 41.345 " stroke="none" fill="#045484" fill-rule="evenodd"></path><path id="path1" d="M353.524 24.565 C 332.007 29.184,330.416 60.033,351.333 67.026 C 366.813 72.200,382.225 58.089,378.929 41.759 C 377.328 33.824,371.981 27.696,364.462 25.180 C 361.325 24.130,356.749 23.872,353.524 24.565 M362.341 29.410 C 377.193 33.822,379.233 54.380,365.526 61.511 C 351.977 68.560,336.891 54.977,341.952 40.286 C 344.864 31.832,354.032 26.942,362.341 29.410 M348.381 45.603 L 348.381 57.143 351.333 57.143 L 354.286 57.143 354.286 52.857 L 354.286 48.571 355.629 48.571 C 357.958 48.571,358.705 49.282,360.566 53.266 C 361.244 54.717,361.959 56.183,362.156 56.524 L 362.514 57.143 365.638 57.143 C 367.356 57.143,368.762 57.110,368.762 57.071 C 368.762 55.678,363.969 47.399,362.797 46.768 L 362.110 46.398 363.220 45.696 C 365.247 44.415,365.810 43.259,365.810 40.381 C 365.810 35.227,364.067 34.255,354.619 34.140 L 348.381 34.064 348.381 45.603 M358.554 38.866 C 359.521 39.349,359.906 40.072,359.898 41.396 C 359.886 43.524,358.956 44.190,355.996 44.190 L 354.286 44.190 354.286 41.311 L 354.286 38.432 356.143 38.511 C 357.231 38.557,358.230 38.704,358.554 38.866 " stroke="none" fill="#c44444" fill-rule="evenodd"></path><path id="path2" d="M127.524 63.238 C 128.040 63.762,128.505 64.190,128.557 64.190 C 128.609 64.190,128.230 63.762,127.714 63.238 C 127.198 62.714,126.733 62.286,126.681 62.286 C 126.629 62.286,127.008 62.714,127.524 63.238 " stroke="none" fill="#0c5484" fill-rule="evenodd"></path><path id="path3" d="M41.095 41.277 C 41.331 41.323,41.717 41.323,41.952 41.277 C 42.188 41.232,41.995 41.195,41.524 41.195 C 41.052 41.195,40.860 41.232,41.095 41.277 M53.381 41.279 C 53.669 41.323,54.140 41.323,54.429 41.279 C 54.717 41.236,54.481 41.200,53.905 41.200 C 53.329 41.200,53.093 41.236,53.381 41.279 M233.667 41.277 C 233.902 41.323,234.288 41.323,234.524 41.277 C 234.760 41.232,234.567 41.195,234.095 41.195 C 233.624 41.195,233.431 41.232,233.667 41.277 M245.955 41.280 C 246.245 41.323,246.673 41.322,246.907 41.277 C 247.142 41.232,246.905 41.196,246.381 41.197 C 245.857 41.199,245.665 41.236,245.955 41.280 M318.381 61.333 C 318.897 61.857,319.362 62.286,319.414 62.286 C 319.467 62.286,319.087 61.857,318.571 61.333 C 318.055 60.810,317.591 60.381,317.538 60.381 C 317.486 60.381,317.865 60.810,318.381 61.333 M295.333 66.476 C 295.849 67.000,296.314 67.429,296.367 67.429 C 296.419 67.429,296.040 67.000,295.524 66.476 C 295.008 65.952,294.543 65.524,294.491 65.524 C 294.438 65.524,294.817 65.952,295.333 66.476 M208.806 81.333 C 208.806 81.700,208.845 81.850,208.893 81.667 C 208.941 81.483,208.941 81.183,208.893 81.000 C 208.845 80.817,208.806 80.967,208.806 81.333 M43.674 108.857 C 43.675 109.381,43.712 109.573,43.756 109.283 C 43.800 108.994,43.798 108.565,43.753 108.331 C 43.708 108.096,43.672 108.333,43.674 108.857 M16.044 144.571 C 16.044 144.938,16.083 145.088,16.131 144.905 C 16.179 144.721,16.179 144.421,16.131 144.238 C 16.083 144.055,16.044 144.205,16.044 144.571 M209.027 174.857 C 209.027 176.271,209.057 176.850,209.094 176.143 C 209.130 175.436,209.130 174.279,209.094 173.571 C 209.057 172.864,209.027 173.443,209.027 174.857 M16.616 194.857 C 16.616 195.224,16.655 195.374,16.703 195.190 C 16.751 195.007,16.751 194.707,16.703 194.524 C 16.655 194.340,16.616 194.490,16.616 194.857 " stroke="none" fill="#044c88" fill-rule="evenodd"></path><path id="path4" d="M41.095 41.277 C 41.331 41.323,41.717 41.323,41.952 41.277 C 42.188 41.232,41.995 41.195,41.524 41.195 C 41.052 41.195,40.860 41.232,41.095 41.277 M53.381 41.279 C 53.669 41.323,54.140 41.323,54.429 41.279 C 54.717 41.236,54.481 41.200,53.905 41.200 C 53.329 41.200,53.093 41.236,53.381 41.279 M233.667 41.277 C 233.902 41.323,234.288 41.323,234.524 41.277 C 234.760 41.232,234.567 41.195,234.095 41.195 C 233.624 41.195,233.431 41.232,233.667 41.277 M245.955 41.280 C 246.245 41.323,246.673 41.322,246.907 41.277 C 247.142 41.232,246.905 41.196,246.381 41.197 C 245.857 41.199,245.665 41.236,245.955 41.280 M318.381 61.333 C 318.897 61.857,319.362 62.286,319.414 62.286 C 319.467 62.286,319.087 61.857,318.571 61.333 C 318.055 60.810,317.591 60.381,317.538 60.381 C 317.486 60.381,317.865 60.810,318.381 61.333 M295.333 66.476 C 295.849 67.000,296.314 67.429,296.367 67.429 C 296.419 67.429,296.040 67.000,295.524 66.476 C 295.008 65.952,294.543 65.524,294.491 65.524 C 294.438 65.524,294.817 65.952,295.333 66.476 M208.806 81.333 C 208.806 81.700,208.845 81.850,208.893 81.667 C 208.941 81.483,208.941 81.183,208.893 81.000 C 208.845 80.817,208.806 80.967,208.806 81.333 M43.674 108.857 C 43.675 109.381,43.712 109.573,43.756 109.283 C 43.800 108.994,43.798 108.565,43.753 108.331 C 43.708 108.096,43.672 108.333,43.674 108.857 M16.044 144.571 C 16.044 144.938,16.083 145.088,16.131 144.905 C 16.179 144.721,16.179 144.421,16.131 144.238 C 16.083 144.055,16.044 144.205,16.044 144.571 M209.027 174.857 C 209.027 176.271,209.057 176.850,209.094 176.143 C 209.130 175.436,209.130 174.279,209.094 173.571 C 209.057 172.864,209.027 173.443,209.027 174.857 M16.616 194.857 C 16.616 195.224,16.655 195.374,16.703 195.190 C 16.751 195.007,16.751 194.707,16.703 194.524 C 16.655 194.340,16.616 194.490,16.616 194.857 " stroke="none" fill="#044c88" fill-rule="evenodd"></path></g></svg>