<?xml version="1.0" encoding="utf-8"?>
<!-- Generator: Adobe Illustrator 27.4.0, SVG Export Plug-In . SVG Version: 6.00 Build 0)  -->
<svg version="1.1" id="レイヤー_1" xmlns="http://www.w3.org/2000/svg" xmlns:xlink="http://www.w3.org/1999/xlink" x="0px"
	 y="0px" width="1800px" height="960px" viewBox="0 0 1800 960" enable-background="new 0 0 1800 960" xml:space="preserve">
<g>
	<path d="M594.16,322.93c-2.38,6.31-4.19,12.91-7.23,18.9c-18.19,35.76-36.32,71.57-55.45,106.84c-2.74,5.04-10.52,9.64-16.46,10.34
		c-13.12,1.55-26.57,0.48-42.73,0.48c24.1-46.85,47.18-91.7,70.27-136.56C559.75,322.93,576.96,322.93,594.16,322.93z"/>
	<path d="M278.02,389.63c27.78,0.86,55.98-0.97,83.24,3.19c46.1,7.05,75.71,45.81,72.83,89.9c-3.07,46.93-36.53,81.41-83.81,84.42
		c-23.99,1.52-48.16,0.32-72.25,0.34C278.02,508.2,278.02,448.92,278.02,389.63z M291.93,554.39c20.74,0,40.11,1.46,59.16-0.32
		c35.56-3.32,61.54-28.33,67.56-62.47c5.8-32.86-11.36-66.36-41.53-80.39c-27.37-12.73-56.18-8.35-85.19-8.51
		C291.93,454.03,291.93,503.12,291.93,554.39z"/>
	<path d="M964.19,566.65c-13.23,4.29-12.52-3.82-12.51-11.62c0.06-39.67,0.02-79.34,0.02-119.01c0-5.01,0-10.03,0-15.04
		c-1.15-0.36-2.29-0.71-3.44-1.07c-11.19,15.77-22.42,31.51-33.54,47.32c-11.27,16.02-22.42,32.11-34.89,49.99
		c-23-32.87-44.99-64.29-66.97-95.71c-1.1,0.19-2.21,0.39-3.31,0.58c-0.28,5.43-0.8,10.85-0.81,16.28
		c-0.07,39.14-0.16,78.28,0.04,117.42c0.05,8.97-1.48,14.89-13.29,10.59c0-58.47,0-117,0-180.84c8.22,5.74,14.98,8.36,18.47,13.25
		c21.91,30.67,43.09,61.84,65.91,94.87c8.13-11.51,15.62-21.93,22.93-32.48c14.22-20.52,28.01-41.34,42.72-61.51
		c3.7-5.08,10.23-8.16,18.68-14.61C964.19,448.77,964.19,507.2,964.19,566.65z"/>
	<path d="M1526.43,479.56c-0.21,52.72-39.37,91.27-92.53,91.09c-50.76-0.17-89.09-39.07-89.53-90.88
		c-0.45-52.84,40.51-94,92.86-93.29C1488.67,387.18,1526.65,426.8,1526.43,479.56z M1435.49,557.96
		c43.56,0.08,76.29-33.72,76.38-78.87c0.09-44.27-33.61-79.6-76.22-79.89c-42.58-0.29-76.44,34.88-76.43,79.39
		C1359.25,523.32,1392.46,557.89,1435.49,557.96z"/>
	<path d="M729.81,566.02c-10.1,4.68-16.73,1.29-18.7-8.05c-7.66-36.4-31.71-44.8-65.64-40.05c-14.74,2.06-30.07,0.96-45.06,0.14
		c-10.3-0.57-15.69,3.35-19.15,12.55c-3.72,9.88-7.88,19.77-13.37,28.75c-2.76,4.5-8.91,6.98-13.53,10.37
		c-1.09-1.15-2.18-2.29-3.27-3.44c1.42-3.75,2.59-7.62,4.28-11.25c23.96-51.32,47.84-102.68,72.27-153.78
		c2.33-4.87,7.99-10.98,12.45-11.26c3.98-0.25,10.16,5.95,12.43,10.68c24.76,51.53,48.96,103.33,73.25,155.07
		C727.31,559.03,728.43,562.5,729.81,566.02z M640.07,404.68c-15.99,34.59-30.81,66.65-45.93,99.36c31.64,0,60.67,0,91.73,0
		C670.42,470.53,655.92,439.06,640.07,404.68z"/>
	<path d="M1294.22,417.08c-2.67,2.8-5.41,5.66-8.65,9.05c-23.15-20.08-47.15-31.42-76.62-25.08c-31.68,6.82-54.97,31.53-59.74,63.21
		c-5.31,35.27,9.7,68.43,38.27,84.49c27.56,15.49,61,12.23,87.34-8.59c6.34-5.01,12.52-14.26,18.95-0.17
		c-34.19,38.37-94.96,41.96-131.15,7.86c-38.64-36.4-39.18-100.87-1.14-136.79C1198.06,376.53,1258.98,378.64,1294.22,417.08z"/>
	<path d="M1046.36,565.94c0-56.03-0.16-112.05,0.42-168.07c0.03-3.21,6.15-6.36,9.44-9.54c1.34,1.02,2.69,2.04,4.03,3.07
		c0,56.04,0.14,112.09-0.36,168.13c-0.03,3.39-5.21,6.74-7.99,10.1C1050.05,568.4,1048.2,567.17,1046.36,565.94z"/>
</g>
</svg>
