<?xml version="1.0" encoding="utf-8"?>
<!-- Generator: Adobe Illustrator 27.4.0, SVG Export Plug-In . SVG Version: 6.00 Build 0)  -->
<svg version="1.1" id="レイヤー_1" xmlns="http://www.w3.org/2000/svg" xmlns:xlink="http://www.w3.org/1999/xlink" x="0px"
	 y="0px" width="1800px" height="960px" viewBox="0 0 1800 960" enable-background="new 0 0 1800 960" xml:space="preserve">
<g>
	<path d="M246.71,568.62c0-59.08,0-118.07,0-177.27c0.56-0.03,1.11-0.08,1.67-0.08c45.03,0,90.05-0.05,135.08,0.02
		c13.16,0.02,26.32,0.39,39.41,1.84c15.68,1.74,30.99,4.92,45.36,11.71c8.43,3.98,15.42,9.52,19.34,18.26
		c3.04,6.78,3.8,13.98,3.65,21.28c-0.32,15.37-8.01,26.38-20.72,34.33c-8.96,5.61-18.87,8.82-29.03,11.39
		c-0.56,0.14-1.12,0.29-1.89,0.48c19.09,26.02,38.1,51.93,57.32,78.13c-0.84,0-1.35,0-1.85,0c-16.51,0-33.03-0.01-49.54,0.02
		c-1.05,0-1.73-0.29-2.38-1.14c-17.95-23.52-35.94-47.01-53.89-70.53c-0.69-0.9-1.37-1.23-2.5-1.23
		c-29.63,0.03-59.26,0.02-88.89,0.02c-0.57,0-1.14,0-1.84,0c0,24.33,0,48.49,0,72.75C279.56,568.62,263.23,568.62,246.71,568.62z
		 M296.11,422.31c0,14.6,0,28.93,0,43.4c0.69,0,1.27,0,1.85,0c35.73-0.02,71.47,0.01,107.2-0.09c8.97-0.03,17.93-0.61,26.68-2.84
		c5.35-1.36,10.39-3.35,14.32-7.48c7.73-8.1,5.53-21.7-4.45-26.7c-2.54-1.27-5.26-2.29-8.01-3.01c-10.19-2.68-20.63-3.24-31.1-3.26
		c-34.83-0.07-69.66-0.03-104.49-0.03C297.48,422.31,296.85,422.31,296.11,422.31z"/>
	<path d="M1412.86,571.32c-20.02,0.03-39.83-1.78-59.22-7.04c-16.43-4.45-31.81-11.12-45.34-21.61
		c-14.66-11.37-25.36-25.6-30.27-43.63c-6.89-25.3-1-47.79,16.06-67.44c11.87-13.67,26.94-22.81,43.58-29.51
		c14.18-5.72,28.95-9.21,44.09-11.24c13.39-1.8,26.84-2.46,40.33-2.11c24.01,0.62,47.54,3.97,70,12.97
		c14.63,5.86,27.92,13.84,38.96,25.22c12.19,12.57,19.94,27.38,21.77,44.89c2.23,21.35-3.6,40.37-17.55,56.79
		c-9.93,11.7-22.37,20.03-36.2,26.41c-14.74,6.8-30.26,10.94-46.27,13.43c-11.87,1.84-23.81,2.83-35.82,2.87
		C1415.62,571.32,1414.24,571.32,1412.86,571.32z M1411.59,419.19c-2.71,0.19-8.02,0.42-13.29,0.96
		c-15.28,1.57-29.91,5.49-43.61,12.52c-10.85,5.57-20.46,12.71-27.5,22.85c-6.58,9.49-9.54,19.9-7.49,31.45
		c1.64,9.2,6.16,16.95,12.43,23.74c8.78,9.49,19.58,15.98,31.47,20.76c15.13,6.09,30.91,8.95,47.18,9.3
		c19.76,0.43,38.9-2.64,57.11-10.55c11.62-5.04,22.05-11.81,30.33-21.56c14.24-16.77,15.02-37.43,2.01-54.72
		c-7.47-9.93-17.32-16.93-28.39-22.28C1453.65,422.87,1434.27,419.37,1411.59,419.19z"/>
	<path d="M539.32,391.34c16.21,0,32.22,0,48.49,0c0,0.69,0,1.35,0,2.01c0,33.67,0.15,67.34-0.07,101.01
		c-0.09,14.09,7.5,28.91,25.74,33.67c10.2,2.66,20.57,4.15,31.05,5.05c8.31,0.71,16.64,0.98,24.97,0.34
		c10.35-0.79,20.51-2.44,30.33-5.98c14.14-5.09,22.25-19.13,22.22-32.36c-0.08-33.88-0.03-67.76-0.03-101.65c0-0.63,0-1.26,0-2.03
		c14.92,0,29.75,0,44.8,0c0,0.63,0,1.25,0,1.86c0,38.23,0.02,76.46-0.02,114.69c-0.01,5.83-0.27,11.65-1.7,17.35
		c-2.51,10.05-8.47,17.66-16.72,23.63c-9.62,6.95-20.46,11.33-31.75,14.66c-12.72,3.75-25.76,5.79-38.96,6.71
		c-8.62,0.6-17.28,1.07-25.91,1.05c-19.67-0.05-39.22-1.62-58.44-6.13c-9.22-2.17-18.22-5-26.42-9.85c-6.8-4.02-12.92-8.91-18.01-15
		c-6.62-7.92-9.49-17.19-9.51-27.35c-0.09-40.03-0.09-80.06-0.12-120.09C539.25,392.46,539.29,391.99,539.32,391.34z"/>
	<path d="M817.1,391.35c68.76,0,137.45,0,206.22,0c0,9.13,0,18.18,0,27.39c-51.76,0-103.51,0-155.38,0c0,16.25,0,32.34,0,48.61
		c48.56,0,97.12,0,145.79,0c0,8.95,0,17.71,0,26.65c-48.61,0-97.17,0-145.9,0c0,24.96,0,49.74,0,74.62c-16.99,0-33.8,0-50.74,0
		C817.1,509.61,817.1,450.57,817.1,391.35z"/>
	<path d="M1059.15,391.35c68.76,0,137.44,0,206.22,0c0,9.13,0,18.17,0,27.39c-51.76,0-103.5,0-155.37,0c0,16.26,0,32.34,0,48.64
		c48.61,0,97.21,0,145.89,0c0,8.94,0,17.67,0,26.55c-48.59,0-97.14,0-145.94,0c0,24.97,0,49.79,0,74.69c-17.05,0-33.86,0-50.8,0
		C1059.15,509.6,1059.15,450.57,1059.15,391.35z"/>
</g>
</svg>
