<svg width="1440" height="149" viewBox="0 0 1440 149" fill="none" xmlns="http://www.w3.org/2000/svg">
<rect width="1440" height="149" fill="white"/>
<path d="M602.96 108.64C602.96 108.949 602.992 109.173 603.056 109.312C603.12 109.451 603.237 109.547 603.408 109.6C603.579 109.643 603.856 109.664 604.24 109.664H605.984C606.592 109.664 607.077 109.477 607.44 109.104C607.803 108.731 608.043 108.213 608.16 107.552C608.16 107.52 608.187 107.509 608.24 107.52C608.304 107.52 608.336 107.536 608.336 107.568C608.24 108.453 608.192 109.184 608.192 109.76C608.192 109.845 608.176 109.909 608.144 109.952C608.112 109.984 608.048 110 607.952 110H600.56C600.539 110 600.528 109.968 600.528 109.904C600.528 109.84 600.539 109.808 600.56 109.808C600.965 109.808 601.259 109.781 601.44 109.728C601.632 109.675 601.76 109.573 601.824 109.424C601.888 109.264 601.92 109.024 601.92 108.704V101.296C601.92 100.976 601.888 100.741 601.824 100.592C601.76 100.443 601.632 100.341 601.44 100.288C601.259 100.224 600.965 100.192 600.56 100.192C600.539 100.192 600.528 100.16 600.528 100.096C600.528 100.032 600.539 100 600.56 100L601.344 100.016C601.792 100.037 602.155 100.048 602.432 100.048C602.731 100.048 603.104 100.037 603.552 100.016L604.32 100C604.352 100 604.368 100.032 604.368 100.096C604.368 100.16 604.352 100.192 604.32 100.192C603.925 100.192 603.632 100.224 603.44 100.288C603.259 100.341 603.131 100.448 603.056 100.608C602.992 100.757 602.96 100.992 602.96 101.312V108.64ZM611.395 110.176C611.182 110.176 611.011 110.112 610.883 109.984C610.755 109.856 610.691 109.685 610.691 109.472C610.691 109.269 610.755 109.109 610.883 108.992C611.011 108.875 611.182 108.816 611.395 108.816C611.619 108.816 611.79 108.875 611.907 108.992C612.035 109.109 612.099 109.269 612.099 109.472C612.099 109.685 612.035 109.856 611.907 109.984C611.79 110.112 611.619 110.176 611.395 110.176ZM617.431 108.704C617.431 109.024 617.463 109.264 617.527 109.424C617.591 109.573 617.714 109.675 617.895 109.728C618.087 109.781 618.386 109.808 618.791 109.808C618.823 109.808 618.839 109.84 618.839 109.904C618.839 109.968 618.823 110 618.791 110C618.471 110 618.215 109.995 618.023 109.984L616.887 109.968L615.783 109.984C615.591 109.995 615.33 110 614.999 110C614.967 110 614.951 109.968 614.951 109.904C614.951 109.84 614.967 109.808 614.999 109.808C615.405 109.808 615.698 109.781 615.879 109.728C616.071 109.675 616.199 109.573 616.263 109.424C616.338 109.264 616.375 109.024 616.375 108.704V101.296C616.375 100.976 616.338 100.741 616.263 100.592C616.199 100.443 616.071 100.341 615.879 100.288C615.698 100.224 615.405 100.192 614.999 100.192C614.967 100.192 614.951 100.16 614.951 100.096C614.951 100.032 614.967 100 614.999 100L615.783 100.016C616.231 100.037 616.599 100.048 616.887 100.048C617.207 100.048 617.591 100.037 618.039 100.016L618.791 100C618.823 100 618.839 100.032 618.839 100.096C618.839 100.16 618.823 100.192 618.791 100.192C618.397 100.192 618.103 100.224 617.911 100.288C617.73 100.352 617.602 100.464 617.527 100.624C617.463 100.773 617.431 101.008 617.431 101.328V108.704ZM622.424 110.176C622.211 110.176 622.04 110.112 621.912 109.984C621.784 109.856 621.72 109.685 621.72 109.472C621.72 109.269 621.784 109.109 621.912 108.992C622.04 108.875 622.211 108.816 622.424 108.816C622.648 108.816 622.819 108.875 622.936 108.992C623.064 109.109 623.128 109.269 623.128 109.472C623.128 109.685 623.064 109.856 622.936 109.984C622.819 110.112 622.648 110.176 622.424 110.176ZM627.596 101.872C627.596 102.288 627.698 102.651 627.9 102.96C628.103 103.269 628.348 103.531 628.636 103.744C628.935 103.947 629.34 104.203 629.852 104.512C630.418 104.853 630.85 105.136 631.148 105.36C631.458 105.584 631.719 105.872 631.932 106.224C632.156 106.565 632.268 106.976 632.268 107.456C632.268 107.968 632.14 108.432 631.884 108.848C631.628 109.264 631.25 109.595 630.748 109.84C630.258 110.075 629.666 110.192 628.972 110.192C628.151 110.192 627.399 110.005 626.716 109.632C626.663 109.6 626.626 109.563 626.604 109.52C626.594 109.477 626.583 109.413 626.572 109.328L626.364 107.152C626.354 107.109 626.375 107.083 626.428 107.072C626.492 107.061 626.53 107.077 626.54 107.12C626.711 107.888 627.026 108.549 627.484 109.104C627.954 109.659 628.572 109.936 629.34 109.936C629.874 109.936 630.322 109.792 630.684 109.504C631.058 109.205 631.244 108.736 631.244 108.096C631.244 107.616 631.138 107.2 630.924 106.848C630.711 106.496 630.45 106.208 630.14 105.984C629.842 105.749 629.431 105.477 628.908 105.168C628.396 104.859 627.991 104.592 627.692 104.368C627.404 104.144 627.159 103.861 626.956 103.52C626.754 103.179 626.652 102.779 626.652 102.32C626.652 101.787 626.791 101.333 627.068 100.96C627.356 100.576 627.724 100.293 628.172 100.112C628.631 99.92 629.116 99.824 629.628 99.824C630.258 99.824 630.882 99.952 631.5 100.208C631.66 100.261 631.74 100.352 631.74 100.48L631.852 102.32C631.852 102.363 631.826 102.384 631.772 102.384C631.719 102.384 631.687 102.363 631.676 102.32C631.591 101.765 631.362 101.253 630.988 100.784C630.615 100.304 630.076 100.064 629.372 100.064C628.775 100.064 628.327 100.24 628.028 100.592C627.74 100.933 627.596 101.36 627.596 101.872ZM643.142 110.192C642.448 110.192 641.867 110.043 641.398 109.744C640.928 109.435 640.582 109.04 640.358 108.56C640.134 108.08 640.022 107.573 640.022 107.04C640.022 106.357 640.192 105.765 640.534 105.264C640.875 104.752 641.312 104.363 641.846 104.096C642.39 103.819 642.944 103.68 643.51 103.68C643.979 103.68 644.406 103.776 644.79 103.968C645.184 104.149 645.382 104.379 645.382 104.656C645.382 104.795 645.328 104.917 645.222 105.024C645.126 105.12 644.992 105.168 644.822 105.168C644.534 105.168 644.299 104.992 644.118 104.64C643.979 104.427 643.83 104.267 643.67 104.16C643.51 104.053 643.28 104 642.982 104C642.384 104 641.915 104.235 641.574 104.704C641.243 105.163 641.078 105.781 641.078 106.56C641.078 107.456 641.302 108.192 641.75 108.768C642.198 109.344 642.87 109.632 643.766 109.632C644.416 109.632 644.96 109.456 645.398 109.104H645.414C645.446 109.104 645.472 109.12 645.494 109.152C645.526 109.184 645.531 109.211 645.51 109.232C645.136 109.563 644.758 109.808 644.374 109.968C644 110.117 643.59 110.192 643.142 110.192ZM650.906 110.208C650.287 110.208 649.738 110.059 649.258 109.76C648.789 109.451 648.426 109.04 648.17 108.528C647.914 108.005 647.786 107.44 647.786 106.832C647.786 106.139 647.951 105.552 648.282 105.072C648.623 104.581 649.055 104.219 649.578 103.984C650.111 103.739 650.65 103.616 651.194 103.616C651.823 103.616 652.373 103.771 652.842 104.08C653.311 104.389 653.669 104.8 653.914 105.312C654.17 105.813 654.298 106.347 654.298 106.912C654.298 107.573 654.143 108.155 653.834 108.656C653.525 109.147 653.109 109.531 652.586 109.808C652.074 110.075 651.514 110.208 650.906 110.208ZM651.37 109.904C651.957 109.904 652.41 109.696 652.73 109.28C653.05 108.864 653.21 108.224 653.21 107.36C653.21 106.699 653.098 106.107 652.874 105.584C652.661 105.061 652.362 104.656 651.978 104.368C651.594 104.069 651.157 103.92 650.666 103.92C650.09 103.92 649.642 104.128 649.322 104.544C649.013 104.96 648.858 105.557 648.858 106.336C648.858 106.987 648.965 107.584 649.178 108.128C649.391 108.672 649.69 109.104 650.074 109.424C650.458 109.744 650.89 109.904 651.37 109.904ZM657.73 110.176C657.517 110.176 657.346 110.112 657.218 109.984C657.09 109.856 657.026 109.685 657.026 109.472C657.026 109.269 657.09 109.109 657.218 108.992C657.346 108.875 657.517 108.816 657.73 108.816C657.954 108.816 658.125 108.875 658.242 108.992C658.37 109.109 658.434 109.269 658.434 109.472C658.434 109.685 658.37 109.856 658.242 109.984C658.125 110.112 657.954 110.176 657.73 110.176ZM663.136 108.864C663.456 108.864 663.707 108.987 663.888 109.232C664.07 109.467 664.16 109.808 664.16 110.256C664.16 110.683 664.064 111.077 663.872 111.44C663.68 111.813 663.398 112.181 663.024 112.544C663.014 112.555 662.998 112.56 662.976 112.56C662.944 112.56 662.918 112.544 662.896 112.512C662.875 112.48 662.875 112.453 662.896 112.432C663.419 111.899 663.68 111.269 663.68 110.544C663.68 110.245 663.627 110.027 663.52 109.888C663.424 110.048 663.259 110.128 663.024 110.128C662.832 110.128 662.678 110.069 662.56 109.952C662.454 109.835 662.4 109.685 662.4 109.504C662.4 109.077 662.646 108.864 663.136 108.864ZM666.971 110C666.939 110 666.923 109.968 666.923 109.904C666.923 109.84 666.939 109.808 666.971 109.808C667.259 109.808 667.473 109.781 667.611 109.728C667.75 109.664 667.846 109.557 667.899 109.408C667.953 109.248 667.979 109.013 667.979 108.704V100.432C667.979 100.048 667.942 99.7707 667.867 99.6C667.793 99.4293 667.659 99.344 667.467 99.344C667.307 99.344 667.062 99.4187 666.731 99.568H666.699C666.667 99.568 666.641 99.5413 666.619 99.488C666.609 99.4347 666.619 99.4027 666.651 99.392L668.699 98.416C668.721 98.4053 668.747 98.4 668.779 98.4C668.801 98.4 668.827 98.416 668.859 98.448C668.902 98.4693 668.923 98.496 668.923 98.528V108.704C668.923 109.013 668.945 109.243 668.987 109.392C669.041 109.541 669.137 109.648 669.275 109.712C669.414 109.776 669.627 109.808 669.915 109.808C669.947 109.808 669.963 109.84 669.963 109.904C669.963 109.968 669.947 110 669.915 110C669.681 110 669.489 109.995 669.339 109.984L668.443 109.968L667.579 109.984C667.43 109.995 667.227 110 666.971 110ZM676.712 109.168C676.755 109.168 676.787 109.195 676.808 109.248C676.83 109.291 676.824 109.323 676.792 109.344C676.398 109.653 676.04 109.872 675.72 110C675.411 110.128 675.086 110.192 674.744 110.192C674.296 110.192 673.928 110.091 673.64 109.888C673.352 109.685 673.208 109.349 673.208 108.88V105.12C673.208 104.843 673.187 104.645 673.144 104.528C673.112 104.411 673.043 104.336 672.936 104.304C672.83 104.261 672.648 104.24 672.392 104.24C672.35 104.24 672.328 104.208 672.328 104.144C672.328 104.069 672.35 104.032 672.392 104.032C672.819 104.021 673.166 103.909 673.432 103.696C673.699 103.472 673.854 103.179 673.896 102.816C673.896 102.784 673.939 102.768 674.024 102.768C674.099 102.768 674.136 102.784 674.136 102.816V104C674.67 103.989 675.411 103.936 676.36 103.84C676.382 103.84 676.403 103.883 676.424 103.968C676.456 104.043 676.472 104.128 676.472 104.224C676.472 104.309 676.451 104.4 676.408 104.496C676.376 104.581 676.339 104.619 676.296 104.608C675.71 104.459 674.99 104.373 674.136 104.352V108.336C674.136 108.773 674.243 109.099 674.456 109.312C674.68 109.525 674.995 109.632 675.4 109.632C675.87 109.632 676.296 109.483 676.68 109.184L676.712 109.168ZM686.519 109.088C686.561 109.088 686.588 109.115 686.599 109.168C686.62 109.221 686.615 109.259 686.583 109.28L684.823 110.112C684.759 110.133 684.716 110.144 684.695 110.144C684.556 110.144 684.439 110.027 684.343 109.792C684.247 109.557 684.193 109.232 684.183 108.816C683.788 109.232 683.372 109.568 682.935 109.824C682.508 110.08 682.028 110.208 681.495 110.208C681.047 110.208 680.631 110.08 680.247 109.824C679.873 109.568 679.569 109.211 679.335 108.752C679.111 108.283 678.999 107.749 678.999 107.152C678.999 106.395 679.185 105.749 679.559 105.216C679.932 104.683 680.401 104.283 680.967 104.016C681.532 103.749 682.092 103.616 682.647 103.616C683.212 103.616 683.724 103.755 684.183 104.032V100.448C684.183 100.064 684.14 99.7867 684.055 99.616C683.98 99.4453 683.847 99.36 683.655 99.36C683.516 99.36 683.271 99.4347 682.919 99.584H682.887C682.844 99.584 682.812 99.5627 682.791 99.52C682.78 99.4667 682.791 99.4293 682.823 99.408L684.855 98.416C684.876 98.4053 684.903 98.4 684.935 98.4C684.956 98.4 684.983 98.416 685.015 98.448C685.057 98.4693 685.079 98.496 685.079 98.528V108.24C685.079 108.624 685.121 108.901 685.207 109.072C685.303 109.243 685.452 109.328 685.655 109.328C685.964 109.328 686.241 109.253 686.487 109.104L686.519 109.088ZM682.119 109.632C682.503 109.632 682.86 109.541 683.191 109.36C683.521 109.168 683.852 108.901 684.183 108.56V105.04C683.927 104.688 683.644 104.416 683.335 104.224C683.025 104.032 682.652 103.936 682.215 103.936C681.543 103.936 681.009 104.176 680.615 104.656C680.231 105.125 680.039 105.797 680.039 106.672C680.039 107.259 680.129 107.776 680.311 108.224C680.492 108.672 680.737 109.019 681.047 109.264C681.367 109.509 681.724 109.632 682.119 109.632ZM689.474 110.176C689.261 110.176 689.09 110.112 688.962 109.984C688.834 109.856 688.77 109.685 688.77 109.472C688.77 109.269 688.834 109.109 688.962 108.992C689.09 108.875 689.261 108.816 689.474 108.816C689.698 108.816 689.869 108.875 689.986 108.992C690.114 109.109 690.178 109.269 690.178 109.472C690.178 109.685 690.114 109.856 689.986 109.984C689.869 110.112 689.698 110.176 689.474 110.176ZM708.54 109.808C708.583 109.808 708.604 109.84 708.604 109.904C708.604 109.968 708.583 110 708.54 110C708.338 110 708.023 109.989 707.596 109.968C707.17 109.947 706.86 109.936 706.668 109.936C706.434 109.936 706.135 109.947 705.772 109.968C705.431 109.989 705.17 110 704.988 110C704.946 110 704.924 109.968 704.924 109.904C704.924 109.84 704.946 109.808 704.988 109.808C705.383 109.808 705.671 109.771 705.852 109.696C706.034 109.621 706.124 109.493 706.124 109.312C706.124 109.163 706.055 108.933 705.916 108.624L704.492 105.6H700.684L699.676 107.968C699.527 108.331 699.452 108.624 699.452 108.848C699.452 109.179 699.58 109.424 699.836 109.584C700.103 109.733 700.498 109.808 701.02 109.808C701.074 109.808 701.1 109.84 701.1 109.904C701.1 109.968 701.074 110 701.02 110C700.828 110 700.551 109.989 700.188 109.968C699.783 109.947 699.431 109.936 699.132 109.936C698.855 109.936 698.535 109.947 698.172 109.968C697.852 109.989 697.586 110 697.372 110C697.319 110 697.292 109.968 697.292 109.904C697.292 109.84 697.319 109.808 697.372 109.808C697.671 109.808 697.922 109.755 698.124 109.648C698.338 109.531 698.535 109.333 698.716 109.056C698.908 108.768 699.116 108.357 699.34 107.824L702.716 99.856C702.738 99.824 702.775 99.808 702.828 99.808C702.882 99.808 702.914 99.824 702.924 99.856L706.7 107.808C707.063 108.597 707.372 109.131 707.628 109.408C707.884 109.675 708.188 109.808 708.54 109.808ZM700.812 105.28H704.348L702.476 101.328L700.812 105.28ZM710.511 110C710.479 110 710.463 109.968 710.463 109.904C710.463 109.84 710.479 109.808 710.511 109.808C710.799 109.808 711.012 109.781 711.151 109.728C711.289 109.664 711.385 109.557 711.439 109.408C711.492 109.248 711.519 109.013 711.519 108.704V100.432C711.519 100.048 711.481 99.7707 711.407 99.6C711.332 99.4293 711.199 99.344 711.007 99.344C710.847 99.344 710.601 99.4187 710.271 99.568H710.239C710.207 99.568 710.18 99.5413 710.159 99.488C710.148 99.4347 710.159 99.4027 710.191 99.392L712.239 98.416C712.26 98.4053 712.287 98.4 712.319 98.4C712.34 98.4 712.367 98.416 712.399 98.448C712.441 98.4693 712.463 98.496 712.463 98.528V108.704C712.463 109.013 712.484 109.243 712.527 109.392C712.58 109.541 712.676 109.648 712.815 109.712C712.953 109.776 713.167 109.808 713.455 109.808C713.487 109.808 713.503 109.84 713.503 109.904C713.503 109.968 713.487 110 713.455 110C713.22 110 713.028 109.995 712.879 109.984L711.983 109.968L711.119 109.984C710.969 109.995 710.767 110 710.511 110ZM715.916 110C715.884 110 715.868 109.968 715.868 109.904C715.868 109.84 715.884 109.808 715.916 109.808C716.204 109.808 716.417 109.781 716.556 109.728C716.694 109.664 716.79 109.557 716.844 109.408C716.897 109.248 716.924 109.013 716.924 108.704V100.432C716.924 100.048 716.886 99.7707 716.812 99.6C716.737 99.4293 716.604 99.344 716.412 99.344C716.252 99.344 716.006 99.4187 715.676 99.568H715.644C715.612 99.568 715.585 99.5413 715.564 99.488C715.553 99.4347 715.564 99.4027 715.596 99.392L717.644 98.416C717.665 98.4053 717.692 98.4 717.724 98.4C717.745 98.4 717.772 98.416 717.804 98.448C717.846 98.4693 717.868 98.496 717.868 98.528V108.704C717.868 109.013 717.889 109.243 717.932 109.392C717.985 109.541 718.081 109.648 718.22 109.712C718.358 109.776 718.572 109.808 718.86 109.808C718.892 109.808 718.908 109.84 718.908 109.904C718.908 109.968 718.892 110 718.86 110C718.625 110 718.433 109.995 718.284 109.984L717.388 109.968L716.524 109.984C716.374 109.995 716.172 110 715.916 110ZM730.111 103.68C730.345 103.68 730.569 103.744 730.783 103.872C730.996 104 731.103 104.155 731.103 104.336C731.103 104.475 731.055 104.592 730.959 104.688C730.873 104.784 730.745 104.832 730.575 104.832C730.479 104.832 730.393 104.816 730.319 104.784C730.255 104.741 730.175 104.683 730.079 104.608C729.983 104.523 729.892 104.459 729.807 104.416C729.721 104.373 729.62 104.352 729.503 104.352C729.364 104.352 729.215 104.411 729.055 104.528C728.905 104.645 728.665 104.896 728.335 105.28V108.704C728.335 109.024 728.372 109.259 728.447 109.408C728.532 109.557 728.681 109.664 728.895 109.728C729.108 109.781 729.439 109.808 729.887 109.808C729.929 109.808 729.951 109.84 729.951 109.904C729.951 109.968 729.929 110 729.887 110C729.545 110 729.273 109.995 729.071 109.984L727.887 109.968L727.007 109.984C726.868 109.995 726.676 110 726.431 110C726.399 110 726.383 109.968 726.383 109.904C726.383 109.84 726.399 109.808 726.431 109.808C726.719 109.808 726.932 109.781 727.071 109.728C727.209 109.664 727.3 109.557 727.343 109.408C727.396 109.259 727.423 109.024 727.423 108.704V105.536C727.423 105.173 727.38 104.912 727.295 104.752C727.209 104.592 727.065 104.512 726.863 104.512C726.692 104.512 726.404 104.592 725.999 104.752H725.967C725.924 104.752 725.892 104.731 725.871 104.688C725.86 104.635 725.876 104.597 725.919 104.576L727.775 103.696L727.871 103.68C727.967 103.68 728.068 103.803 728.175 104.048C728.281 104.293 728.335 104.608 728.335 104.992V105.008C728.772 104.496 729.119 104.149 729.375 103.968C729.631 103.776 729.876 103.68 730.111 103.68ZM735.011 101.808C734.787 101.808 734.611 101.749 734.483 101.632C734.365 101.515 734.307 101.349 734.307 101.136C734.307 100.923 734.365 100.757 734.483 100.64C734.611 100.523 734.787 100.464 735.011 100.464C735.224 100.464 735.389 100.523 735.507 100.64C735.624 100.757 735.683 100.923 735.683 101.136C735.683 101.349 735.624 101.515 735.507 101.632C735.389 101.749 735.224 101.808 735.011 101.808ZM733.667 110C733.645 110 733.635 109.968 733.635 109.904C733.635 109.84 733.645 109.808 733.667 109.808C733.955 109.808 734.168 109.781 734.307 109.728C734.456 109.664 734.557 109.557 734.611 109.408C734.664 109.248 734.691 109.013 734.691 108.704V105.712C734.691 105.328 734.648 105.051 734.563 104.88C734.488 104.709 734.355 104.624 734.163 104.624C733.971 104.624 733.731 104.699 733.443 104.848H733.427C733.384 104.848 733.352 104.821 733.331 104.768C733.309 104.715 733.315 104.677 733.347 104.656L735.427 103.696L735.491 103.68C735.512 103.68 735.539 103.696 735.571 103.728C735.603 103.749 735.619 103.776 735.619 103.808C735.619 103.883 735.613 104.096 735.603 104.448C735.592 104.8 735.587 105.216 735.587 105.696V108.704C735.587 109.024 735.613 109.259 735.667 109.408C735.72 109.557 735.816 109.664 735.955 109.728C736.093 109.781 736.307 109.808 736.595 109.808C736.627 109.808 736.643 109.84 736.643 109.904C736.643 109.968 736.627 110 736.595 110C736.349 110 736.152 109.995 736.003 109.984L735.139 109.968L734.275 109.984C734.125 109.995 733.923 110 733.667 110ZM742.506 109.616C743.082 109.627 743.546 109.659 743.898 109.712C744.25 109.755 744.575 109.893 744.874 110.128C745.172 110.363 745.322 110.736 745.322 111.248C745.322 111.824 745.135 112.357 744.762 112.848C744.388 113.349 743.892 113.744 743.274 114.032C742.666 114.331 742.026 114.48 741.354 114.48C740.618 114.48 740.036 114.315 739.61 113.984C739.194 113.664 738.986 113.243 738.986 112.72C738.986 111.931 739.535 111.152 740.634 110.384C740.228 110.331 739.919 110.219 739.706 110.048C739.492 109.888 739.386 109.643 739.386 109.312C739.386 108.992 739.476 108.709 739.658 108.464C739.839 108.208 740.132 107.92 740.538 107.6C740.175 107.419 739.892 107.168 739.69 106.848C739.487 106.528 739.386 106.176 739.386 105.792C739.386 105.195 739.62 104.699 740.09 104.304C740.57 103.909 741.183 103.712 741.93 103.712C742.623 103.712 743.178 103.877 743.594 104.208C743.882 104.037 744.159 103.909 744.426 103.824C744.703 103.739 744.996 103.696 745.306 103.696C745.327 103.696 745.343 103.733 745.354 103.808C745.375 103.883 745.386 103.963 745.386 104.048C745.386 104.176 745.37 104.304 745.338 104.432C745.316 104.56 745.284 104.613 745.242 104.592C745.06 104.517 744.884 104.459 744.714 104.416C744.554 104.373 744.372 104.352 744.17 104.352C744.063 104.352 743.935 104.363 743.786 104.384C744.148 104.779 744.33 105.237 744.33 105.76C744.33 106.133 744.223 106.485 744.01 106.816C743.807 107.136 743.514 107.392 743.13 107.584C742.746 107.776 742.308 107.872 741.818 107.872C741.444 107.872 741.098 107.813 740.778 107.696C740.564 107.877 740.41 108.048 740.314 108.208C740.228 108.368 740.186 108.544 740.186 108.736C740.186 108.971 740.255 109.152 740.394 109.28C740.543 109.397 740.783 109.483 741.114 109.536C741.444 109.589 741.908 109.616 742.506 109.616ZM741.546 103.952C740.767 103.952 740.378 104.437 740.378 105.408C740.378 105.888 740.463 106.299 740.634 106.64C740.804 106.971 741.023 107.221 741.29 107.392C741.556 107.552 741.834 107.632 742.122 107.632C742.484 107.632 742.772 107.509 742.986 107.264C743.21 107.008 743.322 106.624 743.322 106.112C743.322 105.451 743.151 104.928 742.81 104.544C742.468 104.149 742.047 103.952 741.546 103.952ZM742.01 114C742.746 114 743.348 113.803 743.818 113.408C744.287 113.024 744.522 112.507 744.522 111.856C744.522 111.429 744.415 111.115 744.202 110.912C743.999 110.72 743.727 110.597 743.386 110.544C743.044 110.491 742.57 110.464 741.962 110.464C741.706 110.464 741.386 110.453 741.002 110.432C740.65 110.656 740.378 110.901 740.186 111.168C740.004 111.445 739.914 111.787 739.914 112.192C739.914 112.747 740.095 113.184 740.458 113.504C740.831 113.835 741.348 114 742.01 114ZM754.511 109.808C754.543 109.808 754.559 109.84 754.559 109.904C754.559 109.968 754.543 110 754.511 110C754.265 110 754.068 109.995 753.919 109.984L753.055 109.968L752.191 109.984C752.041 109.995 751.844 110 751.599 110C751.567 110 751.551 109.968 751.551 109.904C751.551 109.84 751.567 109.808 751.599 109.808C751.887 109.808 752.1 109.781 752.239 109.728C752.377 109.664 752.473 109.557 752.527 109.408C752.58 109.248 752.607 109.013 752.607 108.704V106.16C752.607 105.531 752.484 105.067 752.239 104.768C752.004 104.459 751.636 104.304 751.135 104.304C750.804 104.304 750.468 104.395 750.127 104.576C749.785 104.747 749.476 104.987 749.199 105.296V108.704C749.199 109.013 749.225 109.248 749.279 109.408C749.332 109.557 749.428 109.664 749.567 109.728C749.705 109.781 749.919 109.808 750.207 109.808C750.239 109.808 750.255 109.84 750.255 109.904C750.255 109.968 750.239 110 750.207 110C749.961 110 749.764 109.995 749.615 109.984L748.751 109.968L747.887 109.984C747.737 109.995 747.54 110 747.295 110C747.263 110 747.247 109.968 747.247 109.904C747.247 109.84 747.263 109.808 747.295 109.808C747.583 109.808 747.796 109.781 747.935 109.728C748.073 109.664 748.169 109.557 748.223 109.408C748.276 109.248 748.303 109.013 748.303 108.704V100.432C748.303 100.048 748.265 99.7707 748.191 99.6C748.116 99.4293 747.983 99.344 747.791 99.344C747.631 99.344 747.385 99.4187 747.055 99.568H747.023C746.991 99.568 746.964 99.5413 746.943 99.488C746.921 99.4347 746.932 99.4027 746.975 99.392L749.007 98.4H749.055C749.097 98.4 749.129 98.416 749.151 98.448C749.183 98.4693 749.199 98.496 749.199 98.528V105.024C749.604 104.555 750.004 104.213 750.399 104C750.804 103.776 751.225 103.664 751.663 103.664C752.249 103.664 752.703 103.829 753.023 104.16C753.343 104.491 753.503 104.971 753.503 105.6V108.704C753.503 109.013 753.529 109.248 753.583 109.408C753.636 109.557 753.732 109.664 753.871 109.728C754.009 109.781 754.223 109.808 754.511 109.808ZM761.119 109.168C761.162 109.168 761.194 109.195 761.215 109.248C761.236 109.291 761.231 109.323 761.199 109.344C760.804 109.653 760.447 109.872 760.127 110C759.818 110.128 759.492 110.192 759.151 110.192C758.703 110.192 758.335 110.091 758.047 109.888C757.759 109.685 757.615 109.349 757.615 108.88V105.12C757.615 104.843 757.594 104.645 757.551 104.528C757.519 104.411 757.45 104.336 757.343 104.304C757.236 104.261 757.055 104.24 756.799 104.24C756.756 104.24 756.735 104.208 756.735 104.144C756.735 104.069 756.756 104.032 756.799 104.032C757.226 104.021 757.572 103.909 757.839 103.696C758.106 103.472 758.26 103.179 758.303 102.816C758.303 102.784 758.346 102.768 758.431 102.768C758.506 102.768 758.543 102.784 758.543 102.816V104C759.076 103.989 759.818 103.936 760.767 103.84C760.788 103.84 760.81 103.883 760.831 103.968C760.863 104.043 760.879 104.128 760.879 104.224C760.879 104.309 760.858 104.4 760.815 104.496C760.783 104.581 760.746 104.619 760.703 104.608C760.116 104.459 759.396 104.373 758.543 104.352V108.336C758.543 108.773 758.65 109.099 758.863 109.312C759.087 109.525 759.402 109.632 759.807 109.632C760.276 109.632 760.703 109.483 761.087 109.184L761.119 109.168ZM764.445 104.8C764.445 105.173 764.568 105.472 764.813 105.696C765.059 105.909 765.416 106.139 765.885 106.384C766.259 106.576 766.547 106.741 766.749 106.88C766.963 107.019 767.144 107.2 767.293 107.424C767.443 107.648 767.517 107.92 767.517 108.24C767.517 108.784 767.315 109.243 766.909 109.616C766.504 109.989 765.955 110.176 765.261 110.176C764.696 110.176 764.184 110.016 763.725 109.696C763.661 109.653 763.629 109.589 763.629 109.504L763.597 108.256C763.597 108.224 763.624 108.208 763.677 108.208C763.741 108.197 763.779 108.208 763.789 108.24C763.992 108.773 764.253 109.179 764.573 109.456C764.904 109.733 765.283 109.872 765.709 109.872C766.061 109.872 766.328 109.787 766.509 109.616C766.691 109.445 766.771 109.195 766.749 108.864C766.739 108.459 766.611 108.149 766.365 107.936C766.131 107.712 765.773 107.483 765.293 107.248C764.941 107.077 764.659 106.923 764.445 106.784C764.243 106.645 764.067 106.464 763.917 106.24C763.779 106.016 763.709 105.739 763.709 105.408C763.709 104.832 763.923 104.395 764.349 104.096C764.787 103.787 765.299 103.632 765.885 103.632C766.312 103.632 766.701 103.712 767.053 103.872C767.117 103.893 767.155 103.92 767.165 103.952C767.187 103.973 767.197 104.005 767.197 104.048C767.197 104.261 767.192 104.427 767.181 104.544L767.165 105.216C767.165 105.237 767.133 105.248 767.069 105.248C767.005 105.248 766.973 105.237 766.973 105.216C766.973 104.992 766.888 104.784 766.717 104.592C766.547 104.389 766.333 104.229 766.077 104.112C765.821 103.995 765.565 103.936 765.309 103.936C765.043 103.936 764.829 104.011 764.669 104.16C764.52 104.299 764.445 104.512 764.445 104.8ZM778.946 103.68C779.18 103.68 779.404 103.744 779.618 103.872C779.831 104 779.938 104.155 779.938 104.336C779.938 104.475 779.89 104.592 779.794 104.688C779.708 104.784 779.58 104.832 779.41 104.832C779.314 104.832 779.228 104.816 779.154 104.784C779.09 104.741 779.01 104.683 778.914 104.608C778.818 104.523 778.727 104.459 778.642 104.416C778.556 104.373 778.455 104.352 778.338 104.352C778.199 104.352 778.05 104.411 777.89 104.528C777.74 104.645 777.5 104.896 777.17 105.28V108.704C777.17 109.024 777.207 109.259 777.282 109.408C777.367 109.557 777.516 109.664 777.73 109.728C777.943 109.781 778.274 109.808 778.722 109.808C778.764 109.808 778.786 109.84 778.786 109.904C778.786 109.968 778.764 110 778.722 110C778.38 110 778.108 109.995 777.906 109.984L776.722 109.968L775.842 109.984C775.703 109.995 775.511 110 775.266 110C775.234 110 775.218 109.968 775.218 109.904C775.218 109.84 775.234 109.808 775.266 109.808C775.554 109.808 775.767 109.781 775.906 109.728C776.044 109.664 776.135 109.557 776.178 109.408C776.231 109.259 776.258 109.024 776.258 108.704V105.536C776.258 105.173 776.215 104.912 776.13 104.752C776.044 104.592 775.9 104.512 775.698 104.512C775.527 104.512 775.239 104.592 774.834 104.752H774.802C774.759 104.752 774.727 104.731 774.706 104.688C774.695 104.635 774.711 104.597 774.754 104.576L776.61 103.696L776.706 103.68C776.802 103.68 776.903 103.803 777.01 104.048C777.116 104.293 777.17 104.608 777.17 104.992V105.008C777.607 104.496 777.954 104.149 778.21 103.968C778.466 103.776 778.711 103.68 778.946 103.68ZM787.21 109.104C787.242 109.104 787.269 109.125 787.29 109.168C787.322 109.2 787.328 109.232 787.306 109.264C786.602 109.883 785.824 110.192 784.97 110.192C784.352 110.192 783.824 110.048 783.386 109.76C782.949 109.472 782.613 109.093 782.378 108.624C782.154 108.155 782.042 107.653 782.042 107.12C782.042 106.491 782.192 105.915 782.49 105.392C782.789 104.859 783.194 104.443 783.706 104.144C784.229 103.835 784.8 103.68 785.418 103.68C786.016 103.68 786.474 103.84 786.794 104.16C787.114 104.48 787.274 104.928 787.274 105.504C787.274 105.653 787.258 105.76 787.226 105.824C787.205 105.888 787.162 105.92 787.098 105.92L783.13 105.936C783.109 106.171 783.098 106.363 783.098 106.512C783.098 107.44 783.317 108.192 783.754 108.768C784.192 109.344 784.805 109.632 785.594 109.632C785.914 109.632 786.186 109.589 786.41 109.504C786.645 109.419 786.906 109.285 787.194 109.104H787.21ZM784.89 104C784.432 104 784.053 104.155 783.754 104.464C783.456 104.763 783.258 105.184 783.162 105.728L786.202 105.664C786.202 105.12 786.085 104.709 785.85 104.432C785.616 104.144 785.296 104 784.89 104ZM790.893 104.8C790.893 105.173 791.016 105.472 791.261 105.696C791.507 105.909 791.864 106.139 792.333 106.384C792.707 106.576 792.995 106.741 793.197 106.88C793.411 107.019 793.592 107.2 793.741 107.424C793.891 107.648 793.965 107.92 793.965 108.24C793.965 108.784 793.763 109.243 793.357 109.616C792.952 109.989 792.403 110.176 791.709 110.176C791.144 110.176 790.632 110.016 790.173 109.696C790.109 109.653 790.077 109.589 790.077 109.504L790.045 108.256C790.045 108.224 790.072 108.208 790.125 108.208C790.189 108.197 790.227 108.208 790.237 108.24C790.44 108.773 790.701 109.179 791.021 109.456C791.352 109.733 791.731 109.872 792.157 109.872C792.509 109.872 792.776 109.787 792.957 109.616C793.139 109.445 793.219 109.195 793.197 108.864C793.187 108.459 793.059 108.149 792.813 107.936C792.579 107.712 792.221 107.483 791.741 107.248C791.389 107.077 791.107 106.923 790.893 106.784C790.691 106.645 790.515 106.464 790.365 106.24C790.227 106.016 790.157 105.739 790.157 105.408C790.157 104.832 790.371 104.395 790.797 104.096C791.235 103.787 791.747 103.632 792.333 103.632C792.76 103.632 793.149 103.712 793.501 103.872C793.565 103.893 793.603 103.92 793.613 103.952C793.635 103.973 793.645 104.005 793.645 104.048C793.645 104.261 793.64 104.427 793.629 104.544L793.613 105.216C793.613 105.237 793.581 105.248 793.517 105.248C793.453 105.248 793.421 105.237 793.421 105.216C793.421 104.992 793.336 104.784 793.165 104.592C792.995 104.389 792.781 104.229 792.525 104.112C792.269 103.995 792.013 103.936 791.757 103.936C791.491 103.936 791.277 104.011 791.117 104.16C790.968 104.299 790.893 104.512 790.893 104.8ZM801.708 109.104C801.74 109.104 801.766 109.125 801.788 109.168C801.82 109.2 801.825 109.232 801.804 109.264C801.1 109.883 800.321 110.192 799.468 110.192C798.849 110.192 798.321 110.048 797.884 109.76C797.446 109.472 797.11 109.093 796.876 108.624C796.652 108.155 796.54 107.653 796.54 107.12C796.54 106.491 796.689 105.915 796.988 105.392C797.286 104.859 797.692 104.443 798.204 104.144C798.726 103.835 799.297 103.68 799.916 103.68C800.513 103.68 800.972 103.84 801.292 104.16C801.612 104.48 801.772 104.928 801.772 105.504C801.772 105.653 801.756 105.76 801.724 105.824C801.702 105.888 801.66 105.92 801.596 105.92L797.628 105.936C797.606 106.171 797.596 106.363 797.596 106.512C797.596 107.44 797.814 108.192 798.252 108.768C798.689 109.344 799.302 109.632 800.092 109.632C800.412 109.632 800.684 109.589 800.908 109.504C801.142 109.419 801.404 109.285 801.692 109.104H801.708ZM799.388 104C798.929 104 798.55 104.155 798.252 104.464C797.953 104.763 797.756 105.184 797.66 105.728L800.7 105.664C800.7 105.12 800.582 104.709 800.348 104.432C800.113 104.144 799.793 104 799.388 104ZM808.175 103.68C808.41 103.68 808.634 103.744 808.847 103.872C809.06 104 809.167 104.155 809.167 104.336C809.167 104.475 809.119 104.592 809.023 104.688C808.938 104.784 808.81 104.832 808.639 104.832C808.543 104.832 808.458 104.816 808.383 104.784C808.319 104.741 808.239 104.683 808.143 104.608C808.047 104.523 807.956 104.459 807.871 104.416C807.786 104.373 807.684 104.352 807.567 104.352C807.428 104.352 807.279 104.411 807.119 104.528C806.97 104.645 806.73 104.896 806.399 105.28V108.704C806.399 109.024 806.436 109.259 806.511 109.408C806.596 109.557 806.746 109.664 806.959 109.728C807.172 109.781 807.503 109.808 807.951 109.808C807.994 109.808 808.015 109.84 808.015 109.904C808.015 109.968 807.994 110 807.951 110C807.61 110 807.338 109.995 807.135 109.984L805.951 109.968L805.071 109.984C804.932 109.995 804.74 110 804.495 110C804.463 110 804.447 109.968 804.447 109.904C804.447 109.84 804.463 109.808 804.495 109.808C804.783 109.808 804.996 109.781 805.135 109.728C805.274 109.664 805.364 109.557 805.407 109.408C805.46 109.259 805.487 109.024 805.487 108.704V105.536C805.487 105.173 805.444 104.912 805.359 104.752C805.274 104.592 805.13 104.512 804.927 104.512C804.756 104.512 804.468 104.592 804.063 104.752H804.031C803.988 104.752 803.956 104.731 803.935 104.688C803.924 104.635 803.94 104.597 803.983 104.576L805.839 103.696L805.935 103.68C806.031 103.68 806.132 103.803 806.239 104.048C806.346 104.293 806.399 104.608 806.399 104.992V105.008C806.836 104.496 807.183 104.149 807.439 103.968C807.695 103.776 807.94 103.68 808.175 103.68ZM817.779 103.824C817.8 103.824 817.811 103.856 817.811 103.92C817.811 103.984 817.8 104.016 817.779 104.016C817.512 104.016 817.283 104.107 817.091 104.288C816.899 104.459 816.718 104.757 816.547 105.184L814.547 109.984C814.526 110.037 814.467 110.064 814.371 110.064C814.275 110.064 814.216 110.037 814.195 109.984L811.955 105.152C811.742 104.693 811.56 104.389 811.411 104.24C811.272 104.091 811.096 104.016 810.883 104.016C810.851 104.016 810.835 103.984 810.835 103.92C810.835 103.856 810.851 103.824 810.883 103.824C811.096 103.824 811.262 103.829 811.379 103.84L811.987 103.856L813.027 103.84C813.187 103.829 813.4 103.824 813.667 103.824C813.699 103.824 813.715 103.856 813.715 103.92C813.715 103.984 813.699 104.016 813.667 104.016C813.027 104.016 812.707 104.144 812.707 104.4C812.707 104.475 812.728 104.555 812.771 104.64L814.723 108.768L816.227 105.104C816.302 104.901 816.339 104.747 816.339 104.64C816.339 104.427 816.238 104.272 816.035 104.176C815.832 104.069 815.512 104.016 815.075 104.016C815.054 104.016 815.043 103.984 815.043 103.92C815.043 103.856 815.054 103.824 815.075 103.824C815.363 103.824 815.582 103.829 815.731 103.84L816.691 103.856L817.267 103.84C817.374 103.829 817.544 103.824 817.779 103.824ZM824.845 109.104C824.877 109.104 824.903 109.125 824.925 109.168C824.957 109.2 824.962 109.232 824.941 109.264C824.237 109.883 823.458 110.192 822.605 110.192C821.986 110.192 821.458 110.048 821.021 109.76C820.583 109.472 820.247 109.093 820.013 108.624C819.789 108.155 819.677 107.653 819.677 107.12C819.677 106.491 819.826 105.915 820.125 105.392C820.423 104.859 820.829 104.443 821.341 104.144C821.863 103.835 822.434 103.68 823.053 103.68C823.65 103.68 824.109 103.84 824.429 104.16C824.749 104.48 824.909 104.928 824.909 105.504C824.909 105.653 824.893 105.76 824.861 105.824C824.839 105.888 824.797 105.92 824.733 105.92L820.765 105.936C820.743 106.171 820.733 106.363 820.733 106.512C820.733 107.44 820.951 108.192 821.389 108.768C821.826 109.344 822.439 109.632 823.229 109.632C823.549 109.632 823.821 109.589 824.045 109.504C824.279 109.419 824.541 109.285 824.829 109.104H824.845ZM822.525 104C822.066 104 821.687 104.155 821.389 104.464C821.09 104.763 820.893 105.184 820.797 105.728L823.837 105.664C823.837 105.12 823.719 104.709 823.485 104.432C823.25 104.144 822.93 104 822.525 104ZM834.914 109.088C834.957 109.088 834.983 109.115 834.994 109.168C835.015 109.221 835.01 109.259 834.978 109.28L833.218 110.112C833.154 110.133 833.111 110.144 833.09 110.144C832.951 110.144 832.834 110.027 832.738 109.792C832.642 109.557 832.589 109.232 832.578 108.816C832.183 109.232 831.767 109.568 831.33 109.824C830.903 110.08 830.423 110.208 829.89 110.208C829.442 110.208 829.026 110.08 828.642 109.824C828.269 109.568 827.965 109.211 827.73 108.752C827.506 108.283 827.394 107.749 827.394 107.152C827.394 106.395 827.581 105.749 827.954 105.216C828.327 104.683 828.797 104.283 829.362 104.016C829.927 103.749 830.487 103.616 831.042 103.616C831.607 103.616 832.119 103.755 832.578 104.032V100.448C832.578 100.064 832.535 99.7867 832.45 99.616C832.375 99.4453 832.242 99.36 832.05 99.36C831.911 99.36 831.666 99.4347 831.314 99.584H831.282C831.239 99.584 831.207 99.5627 831.186 99.52C831.175 99.4667 831.186 99.4293 831.218 99.408L833.25 98.416C833.271 98.4053 833.298 98.4 833.33 98.4C833.351 98.4 833.378 98.416 833.41 98.448C833.453 98.4693 833.474 98.496 833.474 98.528V108.24C833.474 108.624 833.517 108.901 833.602 109.072C833.698 109.243 833.847 109.328 834.05 109.328C834.359 109.328 834.637 109.253 834.882 109.104L834.914 109.088ZM830.514 109.632C830.898 109.632 831.255 109.541 831.586 109.36C831.917 109.168 832.247 108.901 832.578 108.56V105.04C832.322 104.688 832.039 104.416 831.73 104.224C831.421 104.032 831.047 103.936 830.61 103.936C829.938 103.936 829.405 104.176 829.01 104.656C828.626 105.125 828.434 105.797 828.434 106.672C828.434 107.259 828.525 107.776 828.706 108.224C828.887 108.672 829.133 109.019 829.442 109.264C829.762 109.509 830.119 109.632 830.514 109.632ZM837.87 110.176C837.656 110.176 837.486 110.112 837.358 109.984C837.23 109.856 837.166 109.685 837.166 109.472C837.166 109.269 837.23 109.109 837.358 108.992C837.486 108.875 837.656 108.816 837.87 108.816C838.094 108.816 838.264 108.875 838.382 108.992C838.51 109.109 838.574 109.269 838.574 109.472C838.574 109.685 838.51 109.856 838.382 109.984C838.264 110.112 838.094 110.176 837.87 110.176Z" fill="#231815"/>
<path d="M642.266 45.136C642.658 45.052 642.756 44.982 642.756 44.87C642.756 44.716 642.56 44.618 641.146 44.212C640.964 44.758 640.712 45.304 640.404 45.85C639.34 47.684 637.632 49.448 635.49 50.792C635.406 50.848 635.504 51.044 635.588 51.002C638.64 49.63 640.586 47.894 642.028 45.332C642.896 46.956 643.736 48.048 644.786 48.972C645.486 49.574 646.382 50.204 647.124 50.568C647.404 50.722 647.6 50.806 647.684 50.806C647.782 50.806 647.852 50.75 647.894 50.596C648.076 50.036 648.286 49.812 648.636 49.77C648.706 49.756 648.734 49.616 648.664 49.602C647.46 49.35 646.34 48.888 645.402 48.286C644.212 47.544 643.204 46.55 642.266 45.136ZM647.726 52.262C647.852 52.262 647.908 52.22 647.908 52.136C647.908 52.052 647.838 51.954 647.544 51.702C646.872 51.156 646.774 51.1 646.676 51.1C646.592 51.1 646.494 51.156 645.864 51.912H637.338C636.96 51.912 636.666 51.898 636.232 51.814L636.372 52.346C636.75 52.29 637.002 52.262 637.338 52.262H639.998C639.746 53.382 639.326 54.502 638.822 55.524C638.528 55.538 638.234 55.538 637.912 55.538C637.31 55.538 637.072 55.524 636.596 55.468C636.988 57.064 637.03 57.134 637.198 57.134C637.338 57.134 637.408 57.036 637.52 56.63C640.628 56.336 642.392 56.084 644.982 55.51C645.08 55.706 645.178 55.916 645.262 56.14C645.528 56.812 645.626 56.924 645.92 56.924C646.256 56.924 646.494 56.602 646.494 56.21C646.494 55.286 645.262 54.026 643.456 53.27C643.386 53.242 643.302 53.368 643.358 53.41C643.974 53.956 644.45 54.544 644.828 55.216C642.994 55.384 641.146 55.496 639.298 55.524C640.11 54.502 640.81 53.41 641.412 52.262H647.726ZM638.892 49.966C639.27 49.91 639.48 49.882 639.788 49.882H644.52C644.66 49.882 644.716 49.84 644.716 49.756C644.716 49.658 644.646 49.574 644.38 49.364C643.792 48.874 643.708 48.804 643.61 48.804C643.526 48.804 643.428 48.874 642.868 49.532H639.802C639.438 49.532 639.186 49.518 638.752 49.434L638.892 49.966ZM653.018 50.666C653.648 51.128 654.04 51.576 654.376 52.29C654.53 52.654 654.656 52.766 654.894 52.766C655.16 52.766 655.384 52.514 655.384 52.206C655.384 51.534 654.572 50.904 653.088 50.442C653.774 49.714 654.362 48.874 654.852 47.908C655.188 47.81 655.3 47.74 655.3 47.614C655.3 47.516 655.258 47.432 655.062 47.222C654.6 46.746 654.516 46.704 654.432 46.704C654.348 46.704 654.264 46.746 653.9 47.18H653.004V45.094C653.382 44.94 653.494 44.828 653.494 44.716C653.494 44.562 653.354 44.45 651.94 44.282C652.01 44.814 652.024 45.136 652.024 45.556V47.18H651.198C650.806 47.18 650.526 47.166 650.036 47.068L650.176 47.628C650.554 47.544 650.806 47.53 651.198 47.53H653.928C652.976 49.546 651.506 51.282 649.672 52.556C649.588 52.612 649.714 52.794 649.798 52.752C650.638 52.36 651.38 51.912 652.052 51.38C652.052 51.94 652.052 52.5 652.038 53.06C652.024 55.104 651.996 56.112 651.968 56.714C651.968 57.008 652.08 57.148 652.388 57.148C652.878 57.148 653.06 56.98 653.06 56.658C653.046 55.664 653.018 54.782 653.018 53.172V50.666ZM658.828 56V49.77H662.356C662.496 49.77 662.538 49.728 662.538 49.644C662.538 49.546 662.468 49.462 662.174 49.21C661.53 48.664 661.432 48.594 661.348 48.594C661.264 48.594 661.152 48.664 660.508 49.42H658.828V45.276C659.234 45.122 659.346 44.996 659.346 44.884C659.346 44.716 659.178 44.604 657.708 44.45C657.764 44.968 657.778 45.85 657.778 47.306V49.42H656.056C655.678 49.42 655.412 49.406 654.964 49.322L655.118 49.854C655.496 49.798 655.734 49.77 656.098 49.77H657.778V56H655.244C654.824 56 654.516 55.986 654.026 55.902L654.166 56.434C654.586 56.378 654.88 56.35 655.286 56.35H662.664C662.804 56.35 662.86 56.308 662.86 56.21C662.86 56.126 662.804 56.028 662.468 55.748C661.782 55.132 661.656 55.09 661.572 55.09C661.474 55.09 661.376 55.146 660.69 56H658.828ZM674.592 54.194V55.706C674.592 55.86 674.536 55.93 674.41 55.93C673.99 55.93 673.584 55.902 672.8 55.86C672.73 55.86 672.73 56.028 672.8 56.042C673.906 56.266 674.088 56.448 674.13 56.91C674.158 57.064 674.214 57.12 674.382 57.12C674.62 57.12 674.942 57.022 675.166 56.854C675.446 56.658 675.6 56.406 675.6 55.902C675.6 55.538 675.558 55.146 675.558 52.5V51.31C675.88 51.086 675.922 51.044 675.922 50.932C675.922 50.848 675.88 50.778 675.67 50.596C675.236 50.232 675.152 50.19 675.054 50.19C674.97 50.19 674.9 50.232 674.508 50.638H670.336C669.888 50.4 669.692 50.316 669.216 50.106C669.272 50.848 669.272 51.618 669.272 53.116C669.272 55.468 669.23 56.308 669.23 56.826C669.23 57.078 669.342 57.19 669.65 57.19C670.07 57.19 670.266 57.064 670.266 56.728C670.266 56.252 670.252 55.594 670.238 54.194H674.592ZM670.238 52.612H674.592V53.844H670.238V52.612ZM674.592 52.262H670.238V50.988H674.592V52.262ZM672.884 49.168V47.866H676.23C676.384 47.866 676.426 47.824 676.426 47.74C676.426 47.656 676.37 47.544 676.16 47.39C675.656 46.956 675.544 46.886 675.46 46.886C675.376 46.886 675.264 46.956 674.816 47.516H672.884V46.312H676.916C677.056 46.312 677.098 46.27 677.098 46.186C677.098 46.102 677.042 46.004 676.804 45.794C676.23 45.332 676.132 45.262 676.048 45.262C675.95 45.262 675.852 45.332 675.362 45.962H672.884V45.038C673.248 44.87 673.346 44.758 673.346 44.674C673.346 44.52 673.178 44.408 671.834 44.254C671.876 44.73 671.89 45.178 671.89 45.906V45.962H669.426C669.104 45.962 668.894 45.934 668.558 45.85L668.698 46.396C669.006 46.34 669.188 46.312 669.454 46.312H671.89V47.516H669.972C669.678 47.516 669.468 47.488 669.132 47.404L669.286 47.95C669.594 47.894 669.762 47.866 670 47.866H671.89V49.168H669.118C668.796 49.168 668.572 49.154 668.194 49.07L668.334 49.602C668.656 49.546 668.852 49.518 669.104 49.518H677.126C677.266 49.518 677.308 49.476 677.308 49.378C677.308 49.294 677.252 49.21 677.028 49C676.496 48.58 676.398 48.496 676.314 48.496C676.216 48.496 676.104 48.58 675.6 49.168H672.884ZM668.32 48.79C668.572 48.79 668.768 48.524 668.768 48.23C668.768 47.754 668.348 47.18 667.648 46.718C667.606 46.69 667.522 46.746 667.55 46.788C667.76 47.138 667.928 47.712 667.942 48.188C667.956 48.636 668.054 48.79 668.32 48.79ZM664.736 50.232C665.324 50.232 665.674 49.448 665.674 48.37C665.674 48.006 665.632 47.614 665.548 47.194C665.534 47.138 665.394 47.138 665.394 47.194C665.338 48.188 665.128 48.692 664.554 49.112C664.344 49.266 664.26 49.42 664.26 49.658C664.26 50.008 664.456 50.232 664.736 50.232ZM667.214 44.996C667.578 44.842 667.662 44.744 667.662 44.632C667.662 44.45 667.494 44.394 666.164 44.226C666.234 44.884 666.234 45.794 666.234 48.888C666.234 54.068 666.164 56.252 666.164 56.784C666.164 57.078 666.304 57.19 666.612 57.19C667.032 57.19 667.256 57.022 667.256 56.728C667.256 56 667.214 53.76 667.214 48.412V44.996ZM687.248 50.204C687.5 51.632 687.864 52.99 688.592 54.208C688.102 55.062 687.542 55.846 686.912 56.476C686.842 56.546 686.982 56.686 687.066 56.63C687.794 56.182 688.452 55.58 689.012 54.838C689.516 55.538 690.132 56.154 690.776 56.616C690.986 56.756 691.112 56.826 691.182 56.826C691.252 56.826 691.308 56.784 691.35 56.672C691.546 56.154 691.644 56.07 691.994 55.972C692.05 55.958 692.078 55.86 692.022 55.832C691.056 55.37 690.216 54.824 689.53 54.096C690.16 53.06 690.65 51.842 690.972 50.47C691.35 50.302 691.406 50.26 691.406 50.12C691.406 50.036 691.364 49.952 691.154 49.77C690.678 49.378 690.594 49.336 690.496 49.336C690.412 49.336 690.342 49.378 689.922 49.854H686.674V45.528H690.174C690.104 46.578 690.034 47.138 689.922 47.502C689.824 47.796 689.712 47.88 689.502 47.88C689.292 47.88 688.816 47.838 688.102 47.768C688.032 47.768 688.018 47.922 688.088 47.936C689.054 48.16 689.222 48.3 689.278 48.72C689.292 48.846 689.362 48.888 689.516 48.888C689.754 48.888 690.034 48.846 690.216 48.748C690.482 48.58 690.692 48.37 690.818 48.006C690.972 47.572 691.042 47.054 691.154 45.822C691.476 45.626 691.546 45.542 691.546 45.416C691.546 45.332 691.49 45.234 691.294 45.066C690.874 44.73 690.79 44.674 690.678 44.674C690.594 44.674 690.524 44.73 690.104 45.178H686.8C686.324 44.912 686.128 44.814 685.638 44.632C685.694 45.304 685.708 46.046 685.708 48.86C685.708 53.704 685.638 56.196 685.638 56.798C685.638 57.064 685.764 57.176 686.072 57.176C686.492 57.176 686.688 57.036 686.688 56.714C686.688 54.754 686.674 52.514 686.674 50.204H687.248ZM689.978 50.204C689.796 51.31 689.446 52.416 688.97 53.438C688.256 52.472 687.836 51.394 687.542 50.204H689.978ZM682.446 53.872H684.966C685.106 53.872 685.148 53.83 685.148 53.746C685.148 53.662 685.092 53.55 684.882 53.382C684.406 52.99 684.294 52.92 684.21 52.92C684.126 52.92 684.014 52.99 683.58 53.522H682.446V51.66H685.176C685.316 51.66 685.358 51.618 685.358 51.52C685.358 51.436 685.288 51.324 685.106 51.17C684.616 50.778 684.518 50.708 684.434 50.708C684.35 50.708 684.238 50.778 683.832 51.31H682.768C683.188 50.862 683.482 50.484 683.902 49.882C684.308 49.854 684.392 49.784 684.392 49.672C684.392 49.49 684.042 49.35 683.076 49.028C683.062 49.322 682.992 49.616 682.894 49.966C682.768 50.414 682.614 50.82 682.418 51.31H679.702C679.338 51.31 679.114 51.282 678.736 51.198L678.876 51.744C679.226 51.674 679.436 51.66 679.73 51.66H681.48V53.522H680.038C679.702 53.522 679.478 53.508 679.1 53.424L679.24 53.956C679.59 53.9 679.786 53.872 680.066 53.872H681.48V54.572C681.48 55.902 681.424 56.56 681.424 56.798C681.424 57.022 681.55 57.148 681.872 57.148C682.32 57.148 682.502 56.966 682.502 56.714C682.502 56.476 682.446 55.874 682.446 54.586V53.872ZM682.446 48.566V46.718H684.896C685.036 46.718 685.092 46.676 685.092 46.592C685.092 46.508 685.008 46.396 684.826 46.242C684.35 45.836 684.266 45.766 684.168 45.766C684.084 45.766 683.986 45.836 683.552 46.368H682.446V45.066C682.796 44.926 682.894 44.828 682.894 44.716C682.894 44.576 682.74 44.464 681.41 44.338C681.466 44.828 681.48 45.248 681.48 45.78V46.368H680.136C679.786 46.368 679.576 46.34 679.198 46.256L679.338 46.802C679.688 46.746 679.884 46.718 680.164 46.718H681.48V48.566H679.674C679.31 48.566 679.086 48.524 678.708 48.44L678.862 49C679.198 48.944 679.394 48.916 679.688 48.916H685.218C685.358 48.916 685.4 48.874 685.4 48.79C685.4 48.706 685.33 48.594 685.134 48.426C684.644 48.02 684.546 47.95 684.448 47.95C684.364 47.95 684.266 48.02 683.846 48.566H682.446ZM680.892 51.128C681.186 51.128 681.396 50.876 681.396 50.554C681.396 50.064 680.892 49.462 680.094 49.14C680.038 49.126 679.982 49.182 680.01 49.224C680.304 49.658 680.402 50.078 680.458 50.652C680.486 51.016 680.626 51.128 680.892 51.128Z" fill="#231815"/>
<path d="M727.752 47.936C727.276 47.936 726.786 48.076 726.338 48.398C726.268 48.44 726.226 48.51 726.226 48.594C726.226 48.678 726.296 48.734 726.366 48.734C726.408 48.734 726.492 48.692 726.548 48.664C726.786 48.552 727.08 48.44 727.388 48.44C727.948 48.44 728.41 48.72 728.704 49.056C728.746 49.098 728.774 49.168 728.774 49.21C728.774 49.266 728.76 49.308 728.718 49.35C728.438 49.602 728.116 49.854 727.822 50.05C727.738 50.106 727.71 50.148 727.71 50.204C727.71 50.26 727.766 50.316 727.822 50.316C727.864 50.316 727.906 50.302 727.962 50.288C728.186 50.218 728.382 50.134 728.662 50.036C728.788 49.994 728.97 49.938 729.068 49.938C729.194 49.938 729.264 49.966 729.39 50.05C729.488 50.12 729.558 50.148 729.67 50.148C729.894 50.148 730.09 49.994 730.09 49.728C730.09 49.266 729.852 48.93 729.418 48.566C729.04 48.258 728.354 47.936 727.752 47.936ZM722.082 48.482C721.396 48.65 720.822 48.72 720.444 48.72C720.066 48.72 719.73 48.538 719.436 48.174C719.366 48.09 719.31 48.062 719.254 48.062C719.184 48.062 719.128 48.132 719.128 48.202C719.128 48.342 719.226 48.538 719.338 48.72C719.618 49.168 720.08 49.406 720.542 49.406C721.004 49.406 721.536 49.336 722.082 49.224C722.068 50.106 722.04 50.96 722.04 52.024C721.186 52.542 720.444 53.046 719.478 53.592C719.296 53.69 719.156 53.746 719.03 53.746C718.96 53.746 718.876 53.704 718.82 53.648C718.736 53.578 718.68 53.494 718.61 53.354C718.582 53.312 718.526 53.256 718.47 53.256C718.386 53.256 718.344 53.396 718.344 53.578C718.344 53.844 718.456 54.208 718.876 54.544C719.086 54.712 719.268 54.824 719.45 54.824C719.604 54.824 719.688 54.754 719.758 54.628C719.828 54.502 719.926 54.39 720.206 54.166C720.682 54.53 721.074 54.824 721.48 55.202C721.662 55.356 721.774 55.482 721.844 55.692C721.914 55.972 722.026 56.056 722.222 56.056C722.446 56.056 722.6 55.888 722.768 55.384C722.852 55.132 722.866 54.908 722.866 54.768C722.866 54.698 722.852 54.404 722.838 54.236C722.81 53.746 722.782 53.046 722.768 52.346C723.118 52.136 723.496 51.926 723.86 51.716C724.588 51.338 725.204 51.072 725.834 51.072C726.38 51.072 726.8 51.184 727.108 51.45C727.486 51.786 727.64 52.164 727.64 52.57C727.64 53.144 727.5 53.466 727.164 53.788C726.856 54.096 726.338 54.25 725.82 54.25C725.19 54.25 724.462 54.04 723.846 53.466C723.776 53.396 723.734 53.382 723.678 53.382C723.636 53.382 723.566 53.424 723.566 53.494C723.566 53.55 723.58 53.634 723.622 53.704C724.196 54.558 725.12 54.95 726.198 54.95C726.842 54.95 727.416 54.782 727.892 54.404C728.312 54.068 728.662 53.536 728.662 52.836C728.662 52.206 728.354 51.618 727.836 51.226C727.346 50.848 726.73 50.624 725.974 50.624C724.826 50.624 723.79 51.044 722.754 51.646C722.74 50.764 722.768 49.882 722.796 49.042C723.524 48.86 724.28 48.594 725.008 48.244C725.19 48.16 725.274 48.02 725.274 47.866C725.274 47.628 725.036 47.46 724.728 47.46C724.322 47.46 724.056 47.6 723.916 47.726C723.72 47.88 723.342 48.076 722.81 48.258C722.824 47.894 722.838 47.446 722.908 47.194C722.95 47.026 723.034 46.886 723.174 46.774C723.272 46.69 723.314 46.62 723.314 46.48C723.314 46.27 723.09 46.032 722.74 45.822C722.404 45.612 722.068 45.514 721.83 45.514C721.564 45.514 721.396 45.584 721.228 45.696C721.116 45.78 721.088 45.836 721.088 45.892C721.088 45.934 721.158 45.962 721.27 45.976C721.41 45.99 721.536 46.004 721.676 46.046C721.858 46.102 721.942 46.186 721.998 46.298C722.082 46.48 722.082 46.704 722.082 47.25V48.482ZM722.04 54.334C722.04 54.544 722.012 54.6 721.9 54.6C721.802 54.6 721.662 54.544 721.466 54.46C721.214 54.348 720.85 54.166 720.5 53.928C720.948 53.578 721.508 53.13 722.04 52.738V54.334ZM736.656 54.264H739.932V54.796C739.932 55.062 740.044 55.16 740.352 55.16C740.73 55.16 740.94 55.034 740.94 54.726C740.94 54.53 740.912 53.83 740.912 52.43V51.73C741.22 51.52 741.276 51.464 741.276 51.338C741.276 51.254 741.234 51.184 741.038 51.016C740.604 50.652 740.534 50.61 740.436 50.61C740.352 50.61 740.268 50.652 739.862 51.1H736.768C736.306 50.82 736.11 50.75 735.62 50.54C735.69 51.296 735.69 51.898 735.69 52.864C735.69 54.334 735.648 54.782 735.648 55.02C735.648 55.258 735.76 55.356 736.082 55.356C736.474 55.356 736.656 55.23 736.656 54.908V54.264ZM739.932 53.914H736.656V51.45H739.932V53.914ZM740.1 49.042H743.222V55.678C743.222 55.846 743.18 55.902 743.012 55.902C742.55 55.902 742.228 55.874 741.248 55.804C741.178 55.804 741.178 55.958 741.248 55.972C742.396 56.238 742.662 56.392 742.718 56.84C742.746 57.008 742.802 57.036 742.956 57.036C743.306 57.036 743.586 56.966 743.81 56.812C744.118 56.63 744.272 56.35 744.258 55.958C744.258 55.58 744.244 55.272 744.244 48.818V45.682C744.552 45.5 744.622 45.43 744.622 45.318C744.622 45.22 744.566 45.15 744.342 44.968C743.88 44.576 743.81 44.52 743.712 44.52C743.628 44.52 743.558 44.576 743.124 45.038H740.226C739.778 44.772 739.568 44.688 739.092 44.478C739.148 45.052 739.148 45.5 739.148 46.41C739.148 48.258 739.12 48.846 739.12 49.252C739.12 49.504 739.246 49.602 739.54 49.602C739.918 49.602 740.1 49.476 740.1 49.182V49.042ZM740.1 47.166H743.222V48.692H740.1V47.166ZM743.222 46.816H740.1V45.388H743.222V46.816ZM733.604 49.042H736.558V49.238C736.558 49.476 736.67 49.588 736.95 49.588C737.342 49.588 737.566 49.462 737.566 49.168C737.566 48.944 737.524 48.174 737.524 46.55V45.668C737.832 45.486 737.902 45.388 737.902 45.29C737.902 45.206 737.846 45.122 737.636 44.954C737.188 44.576 737.118 44.52 737.02 44.52C736.936 44.52 736.866 44.576 736.446 45.038H733.702C733.24 44.758 733.03 44.688 732.512 44.478C732.582 45.78 732.596 47.166 732.596 50.008C732.596 54.18 732.526 55.832 732.526 56.756C732.526 57.008 732.652 57.12 732.974 57.12C733.408 57.12 733.618 56.98 733.618 56.686C733.618 55.594 733.604 54.236 733.604 49.7V49.042ZM733.604 47.166H736.558V48.692H733.604V47.166ZM736.558 46.816H733.604V45.388H736.558V46.816ZM755.038 48.202C754.94 48.202 754.884 48.258 754.884 48.328C754.884 48.426 754.926 48.468 755.01 48.524C755.682 48.944 756.172 49.364 756.55 49.938C756.914 50.484 757.25 51.212 757.25 51.674C757.25 51.884 757.18 51.954 756.97 51.996C756.662 52.052 756.34 52.066 755.948 52.108C755.808 52.122 755.696 52.15 755.696 52.22C755.696 52.318 755.752 52.36 755.92 52.402C756.256 52.486 756.55 52.556 756.788 52.626C757.082 52.71 757.236 52.864 757.334 53.018C757.432 53.172 757.544 53.242 757.712 53.242C757.866 53.242 757.978 53.172 758.118 53.018C758.258 52.836 758.328 52.556 758.328 52.192C758.328 51.688 758.146 51.016 757.81 50.414C757.46 49.77 756.928 49.196 756.284 48.776C755.836 48.482 755.234 48.202 755.038 48.202ZM750.684 55.16C751.006 55.16 751.16 54.964 751.146 54.74C751.146 54.6 751.076 54.488 751.006 54.334C750.936 54.208 750.922 54.082 750.922 53.984C750.922 53.802 750.992 53.634 751.118 53.298C751.342 52.724 751.846 51.618 752.28 50.722C752.308 50.666 752.336 50.596 752.336 50.54C752.336 50.47 752.238 50.386 752.168 50.386C752.112 50.386 752 50.456 751.93 50.568C751.342 51.506 750.74 52.528 750.32 53.214C750.194 53.41 750.096 53.48 749.984 53.48C749.788 53.48 749.508 53.228 749.256 52.598C749.06 52.094 748.92 51.324 748.92 50.666C748.92 49.924 748.99 48.972 749.13 48.664C749.186 48.552 749.256 48.342 749.256 48.23C749.256 47.824 748.948 47.446 748.598 47.138C748.29 46.886 747.912 46.676 747.688 46.676C747.576 46.676 747.464 46.69 747.464 46.76C747.464 46.802 747.478 46.83 747.562 46.9C747.912 47.208 748.066 47.474 748.122 47.81C748.192 48.412 748.164 49.014 748.164 49.588C748.164 50.456 748.206 51.24 748.332 51.912C748.556 53.144 749.046 54.096 749.69 54.628C750.054 54.936 750.418 55.16 750.684 55.16ZM767.484 45.136C767.848 45.052 767.988 44.996 767.988 44.884C767.988 44.73 767.932 44.688 766.35 44.24C766.182 44.786 765.958 45.332 765.636 45.892C764.558 47.754 762.724 49.756 760.638 50.946C760.554 50.988 760.652 51.184 760.736 51.142C763.55 49.994 765.846 47.936 767.26 45.318C768.072 46.956 768.884 48.034 769.934 49.014C770.718 49.742 771.698 50.414 772.44 50.792C772.692 50.904 772.846 50.974 772.93 50.974C773.014 50.974 773.084 50.904 773.14 50.764C773.322 50.176 773.518 50.008 773.924 49.952C773.994 49.938 774.008 49.812 773.938 49.798C772.72 49.518 771.46 49 770.466 48.3C769.276 47.474 768.338 46.48 767.484 45.136ZM764.04 55.986H769.976V56.602C769.976 56.854 770.102 56.994 770.41 56.994C770.844 56.994 771.082 56.826 771.082 56.532C771.082 56.266 771.04 55.37 771.04 53.466V52.43C771.404 52.234 771.474 52.15 771.474 52.024C771.474 51.94 771.418 51.856 771.166 51.646C770.662 51.198 770.578 51.156 770.48 51.156C770.396 51.156 770.326 51.198 769.878 51.73H764.194C763.69 51.45 763.48 51.324 762.948 51.072C762.99 51.842 763.004 52.458 763.004 53.62C763.004 55.678 762.948 56.252 762.948 56.602C762.948 56.868 763.074 56.994 763.382 56.994C763.83 56.994 764.04 56.84 764.04 56.546V55.986ZM769.976 55.636H764.04V52.08H769.976V55.636ZM764.572 49.812C764.908 49.756 765.132 49.728 765.412 49.728H769.556C769.682 49.728 769.738 49.686 769.738 49.588C769.738 49.504 769.668 49.42 769.416 49.182C768.814 48.72 768.716 48.65 768.618 48.65C768.534 48.65 768.436 48.72 767.89 49.378H765.426C765.09 49.378 764.824 49.35 764.432 49.28L764.572 49.812ZM780.042 49.742C780.308 49.294 780.504 48.944 780.84 48.58C780.938 48.468 781.05 48.356 781.05 48.244C781.05 48.118 780.994 48.006 780.854 47.922C780.728 47.838 780.644 47.796 780.518 47.796C780.434 47.796 780.322 47.81 780.21 47.88C780.238 47.46 780.28 47.096 780.322 46.76C780.35 46.564 780.434 46.41 780.546 46.326C780.644 46.242 780.714 46.102 780.714 45.99C780.714 45.752 780.462 45.514 780.07 45.248C779.734 45.038 779.468 44.926 779.174 44.926C779.006 44.926 778.824 44.968 778.684 45.052C778.614 45.094 778.572 45.136 778.572 45.192C778.572 45.262 778.6 45.262 778.74 45.29C778.978 45.346 779.216 45.43 779.314 45.528C779.496 45.71 779.482 45.864 779.482 46.172C779.482 46.774 779.468 47.502 779.454 48.216C778.908 48.44 778.348 48.664 777.816 48.804C777.676 48.846 777.55 48.86 777.438 48.86C777.214 48.86 777.004 48.678 776.752 48.356C776.724 48.328 776.668 48.272 776.626 48.272C776.556 48.272 776.5 48.356 776.5 48.552C776.5 48.804 776.668 49.112 776.948 49.42C777.172 49.658 777.312 49.756 777.522 49.756C777.648 49.756 777.746 49.7 777.858 49.588C777.998 49.49 778.166 49.392 778.334 49.308C778.698 49.126 779.076 48.958 779.426 48.846C779.426 49.168 779.426 49.546 779.412 49.91C779.076 50.512 778.698 51.016 778.194 51.688C777.564 52.514 776.906 53.284 776.346 53.914C776.178 54.124 776.066 54.278 776.066 54.502C776.066 54.782 776.262 54.922 776.458 54.922C776.64 54.922 776.78 54.81 776.906 54.656C777.116 54.404 777.242 54.208 777.536 53.802C778.068 54.306 778.488 54.81 778.768 55.174C778.992 55.454 779.118 55.692 779.146 56.028C779.174 56.406 779.328 56.532 779.51 56.532C779.86 56.532 780.112 56.042 780.112 55.062C780.112 54.782 780.07 54.348 780.07 54.054C780.042 53.102 780.014 51.94 780.042 50.806C780.924 50.008 782.464 49.112 783.71 49.112C784.424 49.112 785.026 49.364 785.488 49.84C785.838 50.204 786.034 50.806 786.034 51.31C786.034 52.248 785.642 53.116 784.942 53.788C784.13 54.572 783.066 55.09 781.834 55.51C781.736 55.538 781.68 55.594 781.68 55.72C781.68 55.79 781.764 55.86 781.862 55.86C782.002 55.86 782.1 55.846 782.226 55.818C783.304 55.636 784.536 55.216 785.628 54.39C786.51 53.732 787.126 52.766 787.126 51.464C787.126 50.834 786.888 50.064 786.23 49.476C785.74 49.042 784.914 48.608 783.906 48.608C782.66 48.608 781.428 49.168 780.028 50.218L780.042 49.742ZM777.732 53.522C778.222 52.892 778.81 52.108 779.37 51.408C779.356 52.43 779.342 53.578 779.328 54.418C779.328 54.586 779.314 54.642 779.244 54.642C779.188 54.642 779.104 54.6 778.95 54.488C778.558 54.194 778.11 53.858 777.732 53.522ZM797.654 49.182C796.562 49.448 795.484 49.714 794.406 50.022C794.42 49.672 794.434 49.434 794.448 49.154C794.462 48.804 794.504 48.734 794.574 48.636C794.644 48.524 794.7 48.44 794.7 48.3C794.7 48.16 794.574 47.978 794.364 47.838C793.916 47.544 793.566 47.418 793.244 47.418C793.118 47.418 792.936 47.46 792.824 47.53C792.754 47.572 792.67 47.642 792.67 47.684C792.67 47.74 792.698 47.782 792.852 47.81C793.076 47.852 793.342 47.964 793.468 48.104C793.552 48.202 793.58 48.328 793.594 48.51C793.622 49.112 793.622 49.658 793.622 50.26C792.852 50.498 792.068 50.75 791.382 50.932C791.242 50.96 791.116 51.002 790.892 51.002C790.752 51.002 790.556 50.946 790.276 50.666C790.136 50.526 790.08 50.484 790.024 50.484C789.968 50.484 789.912 50.526 789.912 50.792C789.912 50.988 790.038 51.282 790.388 51.632C790.724 51.968 790.976 52.052 791.186 52.052C791.284 52.052 791.438 52.01 791.55 51.912C791.662 51.828 791.802 51.758 791.886 51.716C792.446 51.436 792.88 51.254 793.608 50.96C793.622 51.786 793.622 52.542 793.636 53.368C793.636 54.04 793.762 54.488 793.972 54.796C794.21 55.132 794.56 55.342 794.966 55.482C795.47 55.664 796.366 55.734 796.982 55.734C797.92 55.734 798.984 55.678 799.572 55.58C799.964 55.51 800.118 55.356 800.118 55.076C800.118 54.894 799.964 54.754 799.768 54.67C799.558 54.572 799.334 54.53 798.998 54.53C798.816 54.53 798.634 54.614 798.354 54.684C797.906 54.796 797.052 54.88 796.044 54.88C795.442 54.88 794.938 54.754 794.658 54.446C794.462 54.222 794.378 53.788 794.378 53.228C794.378 52.5 794.378 51.562 794.392 50.68C795.484 50.316 796.59 50.008 797.64 49.798C797.626 50.638 797.57 51.422 797.416 52.038C797.346 52.332 797.206 52.374 796.926 52.374C796.73 52.374 796.254 52.318 795.904 52.262C795.82 52.248 795.708 52.22 795.666 52.22C795.624 52.22 795.554 52.262 795.554 52.332C795.554 52.416 795.582 52.458 795.722 52.514C795.988 52.612 796.31 52.738 796.464 52.808C796.716 52.92 796.772 53.032 796.814 53.172C796.884 53.396 796.954 53.452 797.136 53.452C797.346 53.452 797.654 53.284 797.808 53.13C798.046 52.878 798.228 52.486 798.326 51.744C798.396 51.212 798.424 50.442 798.438 49.644C798.998 49.546 799.698 49.476 800.104 49.476C800.412 49.476 801.182 49.56 801.42 49.56C801.714 49.56 801.966 49.462 801.966 49.154C801.966 48.804 801.714 48.636 801.266 48.608C800.944 48.594 800.622 48.58 800.314 48.496C800.188 48.454 800.02 48.37 799.908 48.37C799.852 48.37 799.81 48.398 799.754 48.538C799.712 48.734 799.558 48.804 799.348 48.846C799.138 48.888 798.9 48.93 798.452 49.014C798.466 48.384 798.494 47.908 798.522 47.488C798.536 47.194 798.564 47.04 798.662 46.886C798.746 46.76 798.788 46.676 798.788 46.55C798.788 46.41 798.732 46.284 798.578 46.13C798.27 45.822 797.64 45.528 797.346 45.528C797.192 45.528 797.01 45.57 796.842 45.668C796.702 45.752 796.646 45.822 796.646 45.878C796.646 45.934 796.688 45.976 796.744 45.976C796.87 45.99 797.122 46.032 797.36 46.116C797.486 46.158 797.598 46.27 797.626 46.564C797.668 46.998 797.668 47.404 797.668 47.95L797.654 49.182Z" fill="#231815"/>
</svg>
