<svg width="1440" height="100" viewBox="0 0 1440 100" fill="none" xmlns="http://www.w3.org/2000/svg">
<rect width="1440" height="100" fill="white"/>
<g clip-path="url(#clip0_10_139)">
<path d="M244.707 64.1562H240.092V35H244.707V64.1562Z" fill="#1B2C72"/>
<path d="M250.084 61.702C250.077 61.3094 250.152 60.9197 250.303 60.5566C250.455 60.1935 250.68 59.8647 250.966 59.5902C251.251 59.3158 251.59 59.1016 251.962 58.9606C252.334 58.8197 252.731 58.755 253.13 58.7705C253.527 58.7512 253.924 58.8137 254.295 58.9539C254.666 59.0941 255.004 59.3089 255.286 59.5848C255.568 59.8606 255.789 60.1913 255.934 60.5558C256.079 60.9204 256.146 61.3107 256.129 61.702C256.129 62.4915 255.811 63.2488 255.244 63.8071C254.677 64.3654 253.908 64.679 253.106 64.679C252.305 64.679 251.536 64.3654 250.969 63.8071C250.402 63.2488 250.084 62.4915 250.084 61.702Z" fill="#1B2C72"/>
<path d="M268.705 41.0219C268.361 41.05 268.016 41.0082 267.689 40.8992C267.363 40.7902 267.063 40.6163 266.807 40.3883C266.552 40.1603 266.347 39.883 266.205 39.5737C266.063 39.2644 265.987 38.9297 265.982 38.5903C265.987 38.245 266.064 37.9043 266.209 37.5895C266.353 37.2747 266.561 36.9925 266.821 36.7603C267.081 36.5281 267.386 36.3507 267.718 36.2395C268.05 36.1282 268.402 36.0853 268.751 36.1133C269.412 36.1133 270.046 36.3719 270.513 36.8321C270.981 37.2924 271.243 37.9167 271.243 38.5676C271.243 39.2185 270.981 39.8428 270.513 40.303C270.046 40.7633 269.412 41.0219 268.751 41.0219H268.705ZM271.012 64.1559H266.398V44.0897H271.012V64.1559Z" fill="#1B2C72"/>
<path d="M282.111 61.702C282.105 61.3094 282.18 60.9197 282.331 60.5566C282.483 60.1935 282.708 59.8647 282.993 59.5902C283.278 59.3158 283.617 59.1016 283.989 58.9606C284.362 58.8197 284.759 58.755 285.157 58.7705C285.554 58.7512 285.951 58.8137 286.322 58.9539C286.694 59.0941 287.031 59.3089 287.314 59.5848C287.596 59.8606 287.817 60.1913 287.962 60.5558C288.107 60.9204 288.173 61.3107 288.157 61.702C288.157 62.4915 287.838 63.2488 287.272 63.8071C286.705 64.3654 285.936 64.679 285.134 64.679C284.332 64.679 283.564 64.3654 282.997 63.8071C282.43 63.2488 282.111 62.4915 282.111 61.702Z" fill="#1B2C72"/>
<path d="M307.493 40.6588C305.766 39.8402 303.872 39.4205 301.956 39.4316C298.264 39.4316 296.718 41.3632 296.718 43.1358C296.718 45.4083 298.471 46.6581 302.417 48.2034C307.401 50.1578 309.801 52.5894 309.801 56.4072C309.801 60.9522 305.947 64.5654 298.956 64.5654C296.355 64.6078 293.782 64.0309 291.457 62.8838L292.495 59.3614C294.575 60.4303 296.886 60.9914 299.233 60.9976C302.925 60.9976 305.001 59.2933 305.001 56.7708C305.001 54.2483 303.432 52.953 299.717 51.5895C295.102 49.9078 291.964 47.3854 291.964 43.613C291.964 39.2044 295.91 35.9093 302.094 35.9093C304.338 35.8693 306.565 36.3033 308.624 37.1819L307.493 40.6588Z" fill="#1B2C72"/>
<path d="M313.954 61.7017C313.948 61.3112 314.022 60.9233 314.172 60.5618C314.323 60.2003 314.546 59.8725 314.828 59.5985C315.111 59.3244 315.447 59.1097 315.817 58.9673C316.186 58.8249 316.581 58.7579 316.977 58.7703C317.376 58.7477 317.776 58.8077 318.15 58.9464C318.524 59.0851 318.864 59.2995 319.149 59.5757C319.434 59.8519 319.657 60.1838 319.803 60.55C319.95 60.9161 320.017 61.3085 320 61.7017C320 62.4913 319.682 63.2485 319.115 63.8068C318.548 64.3651 317.779 64.6787 316.977 64.6787C316.176 64.6787 315.407 64.3651 314.84 63.8068C314.273 63.2485 313.954 62.4913 313.954 61.7017Z" fill="#1B2C72"/>
</g>
<defs>
<clipPath id="clip0_10_139">
<rect width="80" height="29.5652" fill="white" transform="translate(240 35)"/>
</clipPath>
</defs>
</svg>
