<?xml version="1.0" encoding="utf-8"?>
<!-- Generator: Adobe Illustrator 27.4.0, SVG Export Plug-In . SVG Version: 6.00 Build 0)  -->
<svg version="1.1" id="レイヤー_1" xmlns="http://www.w3.org/2000/svg" xmlns:xlink="http://www.w3.org/1999/xlink" x="0px"
	 y="0px" width="1800px" height="960px" viewBox="0 0 1800 960" enable-background="new 0 0 1800 960" xml:space="preserve">
<g>
	<path fill="#85754E" d="M270.87,515.86v4.98c0,41.35,26.09,62.76,57.8,62.76c30.5,0,48.16-14.98,61-38.51l13.65,6.77
		c-16.46,32.1-41.34,49.56-81.47,49.56c-55.39,0-91.91-33.87-91.91-82.38c0-59.9,36.52-93.79,93.92-93.79
		c46.96,0,76.65,37.82,79.47,90.61H270.87z M341.91,501.58c16.46,0,20.47-2.14,20.47-13.55c0-30.32-16.46-48.51-42.15-48.51
		c-31.7,0-45.75,23.18-49.37,62.06H341.91z"/>
	<path fill="#85754E" d="M424.2,434.18l74.65-3.57v42.44h0.8c4.82-18.89,24.08-47.8,59.8-47.8c17.66,0,31.71,11.41,31.71,27.82
		c0,13.55-8.03,24.25-24.08,24.25c-13.25,0-22.08-8.91-22.08-19.25c0-6.41,2.01-11.41,9.64-16.05v-0.73h-0.81
		c-41.74,2.86-54.98,64.2-54.98,93.45v35.67c0,9.27,6.83,11.41,23.28,11.41h14.45v14.25H427.41v-14.25h13.25
		c15.25,0,21.27-3.59,21.27-17.48V458.44c0-8.57-6.02-10-19.26-10H424.2V434.18z"/>
	<path fill="#85754E" d="M604,434.18l69.83-3.57v30.32h0.81c18.06-29.6,42.14-35.69,60.2-35.69c40.13,0,63.81,28.19,63.81,63.85
		v76.31c0,12.12,5.62,16.41,21.67,16.41h11.24v14.25H728.82v-14.25h11.23c16.06,0,21.68-4.29,21.68-16.41V483.4
		c0-23.19-15.25-36.74-38.13-36.74c-26.89,0-49.77,20.68-49.77,57.78v60.97c0,12.12,5.63,16.41,21.67,16.41h11.24v14.25H604v-14.25
		h11.24c16.05,0,21.67-4.29,21.67-16.41V458.44c0-8.57-6.03-10-19.28-10H604V434.18z"/>
	<path fill="#85754E" d="M894.97,515.86v4.98c0,41.35,26.09,62.76,57.8,62.76c30.49,0,48.16-14.98,61-38.51l13.65,6.77
		c-16.46,32.1-41.34,49.56-81.47,49.56c-55.39,0-91.91-33.87-91.91-82.38c0-59.9,36.52-93.79,93.92-93.79
		c46.96,0,76.66,37.82,79.47,90.61H894.97z M966.01,501.58c16.46,0,20.47-2.14,20.47-13.55c0-30.32-16.46-48.51-42.15-48.51
		c-31.7,0-45.75,23.18-49.37,62.06H966.01z"/>
	<path fill="#85754E" d="M1181.54,427.04h14.05v59.2h-14.05c-8.43-26.39-26.89-46.72-59.8-46.72c-17.65,0-36.92,8.2-36.92,26.05
		c0,12.46,10.43,20.32,36.12,25.3l39.33,7.48c29.7,5.72,48.17,22.12,48.17,48.51c0,34.96-28.9,54.56-65.43,54.56
		c-20.46,0-40.94-5.34-56.99-17.46l-12.44,15.69h-14.05v-67.76h14.05c10.03,31.39,30.9,55.29,70.64,55.29
		c17.66,0,40.13-9.28,40.13-27.46c0-17.48-14.04-23.89-44.55-30.3l-30.91-6.43c-35.72-7.48-46.15-23.53-46.15-48.15
		c0-30.67,24.48-49.58,58.6-49.58c17.65,0,35.32,4.64,48.96,14.28L1181.54,427.04z"/>
	<path fill="#85754E" d="M1234.13,430.61c42.54-2.5,50.97-42.08,53.38-72.04h16.05v72.04h59.8v16.05h-59.8v105.91
		c0,17.48,6.42,27.46,24.89,27.46c25.69,0,31.3-30.3,31.3-48.15h16.05c-0.39,44.58-18.06,69.54-61,69.54
		c-26.49,0-48.17-16.05-48.17-38.51V446.66h-32.5V430.61z"/>
	<path fill="#85754E" d="M1483.36,425.25c54.98,0,86.7,38.87,86.7,88.11c0,49.2-31.71,88.07-86.7,88.07s-86.69-38.87-86.69-88.07
		C1396.67,464.12,1428.38,425.25,1483.36,425.25z M1483.36,587.17c25.28,0,45.76-17.48,45.76-73.81c0-56.35-20.48-73.83-45.76-73.83
		c-25.28,0-45.75,17.48-45.75,73.83C1437.61,569.69,1458.08,587.17,1483.36,587.17z"/>
</g>
</svg>
