<?xml version="1.0" encoding="utf-8"?>
<!-- Generator: Adobe Illustrator 27.4.0, SVG Export Plug-In . SVG Version: 6.00 Build 0)  -->
<svg version="1.1" id="レイヤー_1" xmlns="http://www.w3.org/2000/svg" xmlns:xlink="http://www.w3.org/1999/xlink" x="0px"
	 y="0px" width="1800px" height="960px" viewBox="0 0 1800 960" enable-background="new 0 0 1800 960" xml:space="preserve">
<g>
	<path d="M525.68,525.64c6.35-6.74,12.7-13.48,19.05-20.22c1.02,0.87,2.03,1.73,3.05,2.6c-5,6.22-9.56,12.85-15.11,18.53
		c-5.7,5.85-12.36,10.77-18.61,16.1c1.26,1.47,2.52,2.94,3.78,4.42c9.1-7.11,18.2-14.21,27.3-21.32
		c-4.23,12.36-13.75,19.01-24.3,25.21c-6.97,4.09-14.17,9.19-18.8,15.61c-59.65,82.54-180.7,81.38-238.32-2.35
		c-3.62-5.26-9.43-9.69-15.17-12.72c-14.17-7.46-22.33-14.16-26.67-26.59c9.19,7.26,18.37,14.53,27.56,21.79
		c1.09-1.09,2.17-2.17,3.26-3.26c-11.33-11.61-22.66-23.22-33.98-34.83c1.4-1.39,2.8-2.78,4.2-4.17c5.41,7.8,10.82,15.6,16.23,23.41
		c1.33-1.27,2.67-2.53,4-3.8c-1.13-15.33-5.12-31.11-2.78-45.89c4.95-31.28,12.92-62.1,20.21-92.98
		c5.64-23.87,12.08-47.55,18.3-71.29c0.88-3.37,2.51-6.55,4.45-11.5c14.53,9.84,28.43,18.5,41.47,28.29
		c13.1,9.84,25.63,15.24,43.27,11.11c13.18-3.08,27.95,1.13,42,1c6.75-0.06,14.48-1.01,20.02-4.4c18.08-11.05,35.36-23.4,54.7-36.43
		c4.11,14.82,7.88,27.77,11.28,40.82c9.45,36.21,20.53,72.12,27.41,108.81c3.92,20.87,0.93,43.04,0.94,64.62
		c0,2.61-0.7,5.21-1.08,7.82C524.11,524.57,524.9,525.1,525.68,525.64z M308.69,428.88c-12.81-0.33-14.91,2.7-10.41,15.03
		c7.43,20.38,25.42,33.06,47.06,33.35c5.73,0.08,9.31-1.12,8.25-8.18C350.31,447.34,330.52,429.44,308.69,428.88z M419.58,477.25
		c25.65-0.5,44.57-14.52,50.81-35.1c3.15-10.4,1.1-13.24-9.6-13.29c-22-0.1-43.37,18.37-45.77,40.4
		C414.69,472.2,418.57,475.59,419.58,477.25z M367.79,514c0.55,2.76,2.16,8.73,7.27,14.03c2.92,3.03,5.99,4.81,8.18,5.83
		c2.05-1.32,5.11-3.66,7.7-7.43c2.2-3.2,5.85-8.52,3.91-13.07c-2.48-5.82-12.16-5.81-13.05-5.8
		C374.08,507.67,368.99,512.73,367.79,514z"/>
	<path d="M1582.95,421.71c4.87-5.55,8.22-12.89,12.35-13.36c10.53-1.2,21.49,0.15,32.08,1.77c1.94,0.3,4.19,6.65,4.21,10.22
		c0.29,44.72,0.18,89.43,0.2,134.15c0,9-4.54,13.32-13.46,13.3c-2.83,0-5.66,0.03-8.49,0.03c-11.72,0.01-25.27,2.91-23.4-17.63
		c-3.35,1.97-4.91,2.48-5.89,3.52c-33.7,36.11-112.77,24.66-125.26-46.63c-7.27-41.52,12.16-84.13,46.79-98.24
		c27.73-11.3,54.44-10.57,77.89,10.92c0.87,0.8,1.98,1.35,3.03,1.94C1583.29,421.85,1583.76,421.71,1582.95,421.71z M1501.95,488.08
		c-0.04,28.41,17.68,49.19,41.99,49.26c23.74,0.06,43.53-22.75,43.53-50.17c0-27.57-18.73-47.81-43.9-47.43
		C1519.46,440.09,1501.99,460.39,1501.95,488.08z"/>
	<path d="M994.59,572.76c-52.5-0.01-86.49-33.81-86.47-86c0.01-50.08,35.52-84.71,87.08-84.93c50.49-0.22,86.87,36.35,87.66,86.64
		C1083.66,539.58,1036.8,576.65,994.59,572.76z M994.85,533.11c25.86,0.06,42.6-17.66,42.54-45.06
		c-0.06-28.04-16.43-46.03-41.81-45.91c-25.22,0.11-42.93,18.72-43.18,45.38C952.15,514.65,969.29,533.05,994.85,533.11z"/>
	<path d="M1203.05,572.77c-41.19-0.05-72.12-21.6-82.95-56.01c-11.95-37.97,0.99-79.18,31.51-100.3
		c29.67-20.53,74.7-18.96,103.49,3.5c7.19,5.61,8.68,11.29,1.26,17.83c-3.63,3.2-7.33,6.36-10.65,9.86
		c-6.33,6.68-12.46,4.89-19.54,0.93c-23.49-13.13-48.56-5.97-59.65,16.62c-12.06,24.57-2.04,55.15,21.47,64.84
		c12.25,5.05,24.45,4.34,36.31-1.65c12.07-6.11,32.3,4.05,33.48,17.75c0.34,4.01-3.37,9.88-6.97,12.46
		C1235.9,569.22,1218.96,573.99,1203.05,572.77z"/>
	<path d="M720.9,572.77c-44.26-0.01-76.49-25.04-84.97-64.7c-9.17-42.91,10.54-83.89,49.47-99.57
		c30.72-12.37,60.16-7.68,87.33,11.19c7.16,4.97,7.64,10.88,2.59,17.5c-11.37,14.9-18.43,16.61-35.35,8.79
		c-18.97-8.77-37.72-4.2-50.84,12.4c-12.98,16.42-12.84,42.13,0.32,58.42c13.29,16.45,32.42,21.13,50.9,12.45
		c14.5-6.81,31.42,0.1,35.53,15.65c0.96,3.62-2.17,10.24-5.5,12.73C755.4,568.89,738.14,573.92,720.9,572.77z"/>
	<path d="M1370.89,572.7c-41.05,2.38-75.69-25.27-83.74-63.62c-9.44-44.94,9.84-84.93,49.08-100.6
		c30.79-12.3,60.28-7.68,87.24,11.43c2.78,1.97,5.25,6.45,5.3,9.81c0.19,12.64-21.78,25.07-32.89,19.09
		c-24.46-13.16-49.52-6.23-60.74,16.8c-11.82,24.28-1.59,54.56,22.17,64.6c12.69,5.36,25.16,3.72,37.34-2.51
		c11.46-5.87,33.98,8.15,32.86,20.81c-0.31,3.58-4.02,7.76-7.31,10.02C1405.15,568.89,1388.37,573.96,1370.89,572.7z"/>
	<path d="M819.03,487.59c0-21.71,0.26-43.42-0.11-65.12c-0.19-10.68,3.97-15.15,14.94-15.3c29.42-0.4,29.69-0.44,29.69,28.8
		c0,37.78,0.03,75.57-0.01,113.35c-0.02,16.23-2.13,18.35-17.82,18.48c-26.68,0.23-26.69,0.23-26.7-25.95
		C819,523.77,819.01,505.68,819.03,487.59z"/>
	<path d="M864.98,362.37c-0.06,14.95-9.14,24.47-23.54,24.68c-14.84,0.21-24.9-9.79-24.88-24.75c0.01-14.35,9.78-24.54,23.76-24.8
		C855.07,337.22,865.04,347.27,864.98,362.37z"/>
	<path d="M536.99,347.84c-2.61,0.39-6.66,0.98-11.13,1.64c-0.29-6.42-0.66-11.33-0.66-16.24c0-1.96,0.57-5.46,1.35-5.6
		c2.88-0.5,6.18-0.47,8.86,0.55c1.36,0.51,2.35,3.54,2.44,5.49C538.02,337.48,537.44,341.32,536.99,347.84z"/>
	<path d="M1669.2,431.43c-4.14-6.39-7.76-11.96-12.08-18.63c4.34-4.96,10.32-4.4,15.65,1.17
		C1677.95,419.37,1677.67,425.13,1669.2,431.43z"/>
	<path fill="#FFFFFF" d="M308.69,428.88c21.83,0.56,41.62,18.47,44.9,40.2c1.07,7.06-2.52,8.26-8.25,8.18
		c-21.64-0.29-39.62-12.98-47.06-33.35C293.79,431.58,295.89,428.55,308.69,428.88z"/>
	<path fill="#FFFFFF" d="M419.58,477.25c-1.01-1.66-4.89-5.06-4.57-8c2.4-22.03,23.77-40.5,45.77-40.4
		c10.7,0.05,12.76,2.89,9.6,13.29C464.15,462.73,445.23,476.75,419.58,477.25z"/>
	<path fill="#FFFFFF" d="M367.79,514c6.32-4.81,11.96-6.81,17.27-6.57c2.2,0.1,4.52,0.75,4.52,0.75c1.63,0.47,4.8,1.66,7.31,4.68
		c0.58,0.69,1.26,1.66,1.53,2.3c1.59,3.78-4.77,11.46-15.19,18.71C378.19,527.37,373.14,520.87,367.79,514z"/>
	<path fill="#FFFFFF" d="M1501.95,488.08c0.04-27.68,17.52-47.98,41.62-48.34c25.17-0.38,43.9,19.86,43.9,47.43
		c0,27.42-19.79,50.23-43.53,50.17C1519.63,537.27,1501.91,516.48,1501.95,488.08z"/>
	<path fill="#FFFFFF" d="M994.85,533.11c-25.56-0.06-42.69-18.47-42.44-45.6c0.25-26.66,17.95-45.27,43.18-45.38
		c25.38-0.11,41.76,17.87,41.81,45.91C1037.45,515.45,1020.71,533.18,994.85,533.11z"/>
</g>
</svg>
