<svg width="300" height="160" viewBox="0 0 300 160" fill="none" xmlns="http://www.w3.org/2000/svg">
<rect width="300" height="160" fill="white"/>
<g clip-path="url(#clip0_117_1292)">
<path d="M79.0527 76.4729C87.1965 76.9034 94.9118 65.2804 97.2135 55.5057C96.302 55.3852 95.3275 55.2919 94.2703 55.2359C90.9198 55.049 87.5931 55.9006 84.7405 57.6753C78.3454 61.6931 74.8064 69.1318 75.1522 72.5096C75.3751 74.7008 77.5325 76.3925 79.0527 76.4729ZM104.209 80.3773C106.553 76.9809 109.528 70.4763 109.066 65.9061C108.909 64.365 108.586 62.8167 107.859 61.3947C103.25 65.6291 99.7367 71.9801 96.6163 76.4743C93.7002 80.6715 89.7583 84.8687 84.8391 87.4745C87.1158 88.3333 89.5111 88.8333 91.94 88.9568C96.6048 89.205 101.904 83.715 104.209 80.3773ZM188.971 76.1601C189.159 73.7752 187.9 71.8955 186.837 71.8395C185.444 71.7663 183.14 73.8843 179.759 79.6369C177.222 83.9532 176.365 88.1992 178.372 88.2623C180.615 88.3326 184.339 85.5761 186.782 81.7319C184.924 81.7319 184.13 81.0891 183.794 79.0644C183.466 77.0684 185.536 74.6749 187.007 74.7524C187.783 74.7897 188.549 75.3522 188.971 76.1601ZM229.821 77.9279C230.311 77.3166 231.059 77.3281 230.996 77.7844C230.256 78.9324 227.251 82.2399 224.039 82.0892C222.502 82.0189 221.433 80.4821 221.295 78.8549C221.295 78.8549 219.314 77.905 218.879 78.6683C216.937 82.0749 214.362 86.7513 213.735 88.004C213.258 88.9625 212.998 89.0773 212.171 89.0917C212.171 89.0917 210.493 89.0443 209.476 89.0615C208.647 89.0745 208.324 88.3828 209.127 87.001C209.966 85.5546 213.699 79.3959 215.472 76.3366C217.267 73.24 216.055 73.2988 214.588 75.0279C214.095 75.6019 210.253 80.4921 207.769 83.692C204.555 87.8289 201.839 89.3184 200.249 89.2883C196.259 89.1993 197.677 85.4139 198.307 84.1986C200.149 80.6514 202.211 78.0097 204.14 75.1485C205.253 73.4954 203.545 74.0981 202.008 75.4971C199.943 77.3755 197.52 79.5752 196.543 81.1436C194.864 84.1569 192.994 87.5893 192.615 88.3627C192.361 88.8836 192.095 89.0587 191.257 89.0673C190.855 89.0673 189.515 89.0673 188.789 89.0673C187.525 89.0587 187.503 88.3498 188.179 87.0684C188.801 85.9033 189.273 85.2446 190.306 83.5127C190.634 82.9617 192.057 80.726 193.651 77.8877C191.721 79.2739 189.895 80.4276 188.588 81.0948C186.33 85.7081 181.901 89.7675 178.206 89.624C176.236 89.5465 174.717 87.8117 174.23 85.4082C170.801 87.9265 167.086 89.1261 165.448 89.04C161.943 88.8549 163.047 85.5173 163.682 84.2976C165.523 80.749 167.709 77.5634 169.427 74.4611C170.544 72.4451 168.591 72.9042 166.948 74.4999C166.237 75.1853 165.609 75.952 165.076 76.7843C163.162 79.7087 159.478 86.5734 158.743 88.0513C158.265 89.0099 157.925 89.0472 157.437 89.0472H154.512C153.393 89.0472 153.588 87.9653 154.281 86.7872C155.126 85.3522 159.424 78.0829 161.209 75.0208C163.146 71.7003 160.146 72.976 158.721 74.3033C157.538 75.3996 157.435 75.5416 156.391 77.2062C154.292 80.5639 150.99 86.6767 150.329 88.0399C150.006 88.7042 149.823 89.0443 148.877 89.0443H146.094C144.989 89.0443 145.175 87.9509 145.868 86.7728C146.712 85.3379 150.823 78.621 152.542 75.5187C153.685 73.4538 152.559 73.3218 151.302 74.8916C149.933 76.6006 148.075 78.8506 146.697 80.7102C140.696 88.8076 138.474 89.1275 136.36 89.0974C135.074 89.0788 134.42 87.9739 134.434 86.658C131.773 88.6024 129.752 89.1548 128.466 89.1548C125.884 89.1548 125.801 85.8416 126.739 84.0909C127.111 83.3936 129.439 79.1433 129.439 79.1433C127.894 80.8107 125.466 82.2758 123.651 82.0462C121.708 81.7979 121.196 80.208 120.986 79.3456C120.95 79.1693 120.924 78.9911 120.906 78.8118C120.595 78.677 118.893 77.9509 118.556 78.5363C116.566 81.9888 113.87 86.9106 113.247 88.1633C112.77 89.1218 112.152 89.0429 111.618 89.0429C111.618 89.0429 110.129 89.0171 109.072 89.0171C108.043 89.0171 108.105 88.0442 108.796 86.8647C109.642 85.4297 113.851 78.6583 115.511 75.5201C116.583 73.4926 115.726 73.2615 114.397 74.7668C112.593 76.8115 109.728 80.6313 108.351 82.4106C104.589 88.1504 98.2236 90.8236 93.073 90.5496C89.0096 90.3343 85.8678 89.3571 83.1518 88.2795C80.0743 89.6332 76.7241 90.245 73.3691 90.066C72.1604 90.0014 69.2257 89.0415 69.0157 87.0326C68.8157 85.071 71.1817 83.8958 73.5877 84.0192C76.1395 84.1541 78.1597 84.7668 80.0771 85.5187C80.7743 85.7899 81.4587 86.0812 82.1502 86.3797C83.8947 85.3867 85.3663 83.9173 86.8308 81.9385C90.9741 76.3495 97.0763 65.2819 106.275 59.6971C106.373 59.6369 106.475 59.578 106.575 59.5192C104.974 57.7428 102.371 56.3294 98.1293 55.6334C97.7846 57.7302 97.2259 59.7859 96.462 61.7677C92.7044 71.5066 86.6793 77.9552 79.4599 77.5706C76.2309 77.3999 73.6463 74.4568 73.1019 72.0189C72.2347 68.1446 73.9678 64.0278 75.6223 61.8122C79.6413 56.1141 86.0164 53.0075 93.3387 53.3949C94.7536 53.4662 96.1616 53.6383 97.5521 53.9101C97.6989 53.0996 97.8033 52.282 97.865 51.4606L98.4794 50.9986C98.5137 52.026 98.4688 53.0546 98.3451 54.0751C102.597 55.058 105.445 56.932 107.358 59.0758C111.608 56.7799 116.852 55.4311 117.905 56.1285C117.905 56.1285 113.047 57.2176 109.218 60.2195C109.016 60.3787 108.821 60.5495 108.623 60.7159C110.901 64.1598 111.258 67.8719 111.432 69.5781C111.731 72.4981 111.73 74.1942 111.147 76.4657C112.061 75.2589 113.994 73.0119 114.648 72.3547C114.934 72.0677 116.334 70.4362 118.709 70.4362C121.944 70.4362 121.214 74.1928 120.213 75.9047C119.912 76.4212 119.462 77.0526 119.462 77.0526C119.549 77.2908 119.929 77.4443 120.326 77.4042C120.623 77.3582 120.909 77.2611 121.172 77.1172C121.658 75.2604 124.643 69.4575 127.769 69.4575C128.556 69.4575 129.033 69.6613 129.119 70.4835C129.62 75.2604 124.968 77.6582 122.145 78.4675C121.984 79.4719 122.249 80.6428 124.084 80.7404C126.389 80.8624 128.952 78.8204 131.443 75.5416C131.443 75.5416 133.144 72.2944 133.444 71.6802C133.908 70.7131 134.38 70.5796 134.938 70.5036C134.938 70.5036 136.796 70.4849 137.834 70.5266C138.924 70.5696 138.591 71.5482 137.914 72.7378C137.088 74.1899 133.532 80.5122 131.855 83.6432C130.765 85.678 130.645 87.4544 132.382 86.3567C133.469 85.6679 134.577 84.6348 135.571 83.5729C137.258 80.5424 141.256 73.3462 142 71.8338C142.652 70.5022 143.152 70.5782 143.715 70.5022C143.715 70.5022 145.488 70.4605 146.532 70.5022C147.623 70.5452 147.257 71.4894 146.457 72.8684C145.618 74.3176 142.078 80.518 140.402 83.649C139.312 85.6837 139.604 86.5432 140.893 85.3178C142.449 83.8384 143.358 82.7823 147.001 78.0642L147.114 77.9136C148.233 76.4456 149.686 74.5573 150.479 73.6619C152.425 71.442 153.7 70.3888 155.848 70.505C157.238 70.5782 158.02 71.6114 158.101 72.8626C159.907 71.4349 162.152 70.3902 163.352 70.5136C165.066 70.6887 165.898 71.8854 166.066 73.1869C168.059 71.6401 170.294 70.4605 172.236 70.505C174.444 70.5481 174.863 73.8211 173.631 75.6909C172.523 77.3726 169.102 82.9459 168.094 84.9031C167.604 85.8516 166.481 87.9007 168.474 87.2291C169.89 86.7527 171.893 85.3953 174.09 83.2257C174.18 81.6956 174.609 80.205 175.345 78.8621C179.372 71.432 183.394 69.733 186.143 69.8794C188.892 70.0258 190.381 72.9918 190.024 76.4112C189.953 77.0465 189.833 77.6751 189.662 78.291C190.709 78.004 193.234 77.0598 195.663 74.3047C198.789 68.7257 202.291 62.4551 203.064 61.0847C203.587 60.1577 204.54 58.5722 205.098 58.4947C205.098 58.4947 207.086 58.3512 208.137 58.5248C209.44 58.7429 207.813 60.7805 207.137 61.9686C206.461 63.1568 202.764 70.0042 200.391 74.3521C202.219 73.1927 205.801 70.5194 208.502 70.5294C210.829 70.5366 210.93 73.1453 209.544 75.2001C208.421 76.8689 204.838 81.9357 202.934 84.8873C202.362 85.777 202.161 87.7572 204.298 85.7483C205.167 84.9289 207.221 81.9371 209.716 78.9367C210.826 77.529 212.431 75.3278 213.304 74.3334C215.258 72.0949 216.545 70.4892 219.101 70.4892C222.285 70.4892 221.573 74.1297 220.646 75.8831C220.427 76.3169 220.161 76.7254 219.854 77.1014C220.154 77.6079 220.953 77.5233 221.569 77.1674C222.598 73.5801 226.015 69.3944 228.165 69.5078C228.951 69.5494 229.434 69.7689 229.518 70.5926C229.98 75.1083 225.509 77.8677 222.539 78.5492C222.378 79.5451 222.64 80.6356 224.481 80.7906C226.845 80.9944 229.31 78.5622 229.821 77.9279Z" fill="#001655"/>
<path fill-rule="evenodd" clip-rule="evenodd" d="M221.313 87.4214C220.749 88.5119 221.17 89.4002 222.255 89.4002C223.339 89.4002 224.683 88.5119 225.255 87.4214C225.826 86.3308 225.398 85.4484 224.301 85.4484C223.203 85.4484 221.879 86.3308 221.313 87.4214ZM221.665 87.4214C222.136 86.5116 223.245 85.7684 224.135 85.7684C225.025 85.7684 225.374 86.5116 224.904 87.4214C224.433 88.3311 223.315 89.0787 222.42 89.0787C221.526 89.0787 221.192 88.3326 221.665 87.4214Z" fill="#001655"/>
<path fill-rule="evenodd" clip-rule="evenodd" d="M221.906 88.6038H221.58L221.536 88.6913H222.566L222.61 88.6038H222.3L222.903 87.4372H223.122C223.561 87.4372 223.559 87.5807 223.353 88.0384C223.13 88.5277 223.078 88.6913 223.496 88.6913H223.749L223.793 88.6038H223.708C223.496 88.6038 223.565 88.4244 223.736 88.0556C223.992 87.5075 223.879 87.4372 223.386 87.3755V87.3683C223.743 87.3267 224.061 87.209 224.269 86.8058C224.531 86.3021 224.269 86.2089 223.828 86.2089H222.815L222.77 86.295H223.095L221.906 88.6038ZM223.495 86.295H223.675C224.028 86.295 224.046 86.4858 223.879 86.8087C223.736 87.0956 223.509 87.3295 223.202 87.3295H222.959L223.495 86.295Z" fill="#001655"/>
<path fill-rule="evenodd" clip-rule="evenodd" d="M126.008 109.889H126.294L126.963 107.605H128.493L129.115 109.889H130.156L128.18 103.219H128.014L126.008 109.889ZM128.413 107.321H127.037L127.752 104.978H127.767L128.413 107.321Z" fill="#001655"/>
<path fill-rule="evenodd" clip-rule="evenodd" d="M132.945 106.449H133.865C134.688 106.449 135.017 107.035 135.017 108.054C135.017 108.991 134.771 109.661 133.731 109.661H132.942L132.945 106.449ZM132.945 103.559H133.709C134.432 103.559 134.567 104.191 134.567 104.935C134.567 105.87 134.281 106.164 133.629 106.164H132.939L132.945 103.559ZM132.008 109.89H134.112C135.214 109.89 136.004 109.532 136.004 108.129C136.004 106.862 135.312 106.459 134.289 106.321V106.302C135.004 106.137 135.555 105.728 135.555 104.824C135.555 104.016 135.27 103.329 134.042 103.329H132.008V109.89Z" fill="#001655"/>
<path fill-rule="evenodd" clip-rule="evenodd" d="M193.387 106.7C193.387 105.14 192.778 103.399 191.387 103.399C189.995 103.399 189.386 105.134 189.386 106.7C189.386 108.265 189.995 110 191.387 110C192.778 110 193.387 108.265 193.387 106.7ZM192.4 106.7C192.4 108.775 192.152 109.713 191.379 109.713C190.606 109.713 190.359 108.777 190.359 106.7C190.359 104.622 190.606 103.686 191.379 103.686C192.152 103.686 192.4 104.632 192.4 106.7Z" fill="#001655"/>
<path fill-rule="evenodd" clip-rule="evenodd" d="M166.714 109.661V109.89H169.262C171.178 109.89 171.796 108.294 171.796 106.614C171.796 104.632 170.964 103.329 169.238 103.329H166.714V109.661ZM167.651 103.559H169.08C170.313 103.559 170.765 104.806 170.765 106.614C170.765 108.211 170.288 109.661 169.051 109.661H167.661L167.651 103.559Z" fill="#001655"/>
<path fill-rule="evenodd" clip-rule="evenodd" d="M138.164 109.89H142.382V107.467H142.182C141.919 109.267 141.409 109.661 140.467 109.661H139.103V103.329H138.166L138.164 109.89Z" fill="#001655"/>
<path fill-rule="evenodd" clip-rule="evenodd" d="M108.576 109.89H112.75L112.824 107.642H112.603C112.43 108.954 112.018 109.661 110.761 109.661H109.518V106.687H109.962C110.917 106.687 110.962 106.99 110.974 108.137H111.221V105.017H110.974C110.982 106.008 110.917 106.403 109.962 106.403H109.518V103.559H109.914C111.788 103.559 112.092 103.724 112.342 105.348H112.557L112.508 103.329H108.576V109.89Z" fill="#001655"/>
<path fill-rule="evenodd" clip-rule="evenodd" d="M114.783 109.587C115.329 109.87 115.937 110.012 116.552 110C117.572 110 118.608 109.267 118.608 108.008C118.608 105.54 115.464 106.219 115.464 104.577C115.464 103.851 116.016 103.503 116.592 103.503C117.356 103.503 117.833 104.008 118.03 105.054H118.252L118.203 103.619C117.731 103.376 117.212 103.242 116.682 103.224C115.711 103.224 114.824 103.876 114.824 105.041C114.824 107.308 118.015 106.675 118.015 108.446C118.015 109.327 117.34 109.722 116.659 109.722C115.704 109.722 115.013 108.795 114.956 107.739H114.726L114.783 109.587Z" fill="#001655"/>
<path fill-rule="evenodd" clip-rule="evenodd" d="M122.085 109.89H123.022V103.613H123.728C124.568 103.613 124.888 104.577 124.921 105.43H125.168V103.329H119.939V105.43H120.186C120.219 104.577 120.532 103.613 121.378 103.613H122.085V109.89Z" fill="#001655"/>
<path fill-rule="evenodd" clip-rule="evenodd" d="M147.683 109.587C148.229 109.87 148.837 110.012 149.451 110C150.471 110 151.507 109.267 151.507 108.008C151.507 105.54 148.364 106.219 148.364 104.577C148.364 103.851 148.916 103.503 149.491 103.503C150.256 103.503 150.733 104.008 150.93 105.054H151.152L151.103 103.619C150.631 103.376 150.111 103.242 149.581 103.224C148.611 103.224 147.724 103.876 147.724 105.041C147.724 107.308 150.914 106.675 150.914 108.446C150.914 109.327 150.24 109.722 149.559 109.722C148.604 109.722 147.913 108.795 147.855 107.739H147.625L147.683 109.587Z" fill="#001655"/>
<path fill-rule="evenodd" clip-rule="evenodd" d="M157.041 106.403H154.491V103.329H153.553V109.889H154.491V106.632H157.041V109.889H157.977V103.329H157.041V106.403Z" fill="#001655"/>
<path fill-rule="evenodd" clip-rule="evenodd" d="M160.36 109.89H164.529L164.603 107.642H164.382C164.209 108.954 163.797 109.661 162.54 109.661H161.297V106.687H161.741C162.696 106.687 162.742 106.99 162.753 108.137H163V105.017H162.756C162.764 106.008 162.699 106.403 161.744 106.403H161.3V103.559H161.696C163.57 103.559 163.875 103.724 164.125 105.348H164.339L164.289 103.329H160.36V109.89Z" fill="#001655"/>
<path fill-rule="evenodd" clip-rule="evenodd" d="M175.202 105.522C175.572 105.265 175.903 104.956 176.186 104.605H176.202V109.89H177.139V103.329H176.736C176.383 104.19 175.725 104.824 175.043 105.329L175.202 105.522Z" fill="#001655"/>
<path fill-rule="evenodd" clip-rule="evenodd" d="M179.128 105.408L179.325 105.509L179.712 104.463H182.33C181.294 106.106 180.438 107.906 180.094 109.895H181.121C181.244 107.373 181.894 105.555 183.251 103.527H179.795L179.128 105.408Z" fill="#001655"/>
<path fill-rule="evenodd" clip-rule="evenodd" d="M184.33 105.408L184.527 105.509L184.913 104.463H187.537C186.5 106.106 185.646 107.906 185.3 109.895H186.33C186.455 107.373 187.105 105.555 188.46 103.527H184.991L184.33 105.408Z" fill="#001655"/>
<path d="M145.348 103.329H144.411V109.891H145.348V103.329Z" fill="#001655"/>
</g>
<defs>
<clipPath id="clip0_117_1292">
<rect width="162" height="59" fill="white" transform="translate(69 51)"/>
</clipPath>
</defs>
</svg>
