<?xml version="1.0" encoding="utf-8"?>
<!-- Generator: Adobe Illustrator 27.4.0, SVG Export Plug-In . SVG Version: 6.00 Build 0)  -->
<svg version="1.1" id="レイヤー_1" xmlns="http://www.w3.org/2000/svg" xmlns:xlink="http://www.w3.org/1999/xlink" x="0px"
	 y="0px" width="1800px" height="960px" viewBox="0 0 1800 960" enable-background="new 0 0 1800 960" xml:space="preserve">
<g>
	<defs>
		<rect id="SVGID_1_" x="229.94" y="235.97" width="1340.11" height="488.07"/>
	</defs>
	<clipPath id="SVGID_00000028319360671127610360000007242320692033267361_">
		<use xlink:href="#SVGID_1_"  overflow="visible"/>
	</clipPath>
	<g clip-path="url(#SVGID_00000028319360671127610360000007242320692033267361_)">
		<path fill="#001655" d="M313.1,446.69c67.37,3.56,131.19-92.59,150.23-173.45c-7.54-1-15.6-1.77-24.35-2.23
			c-27.72-1.55-55.24,5.5-78.83,20.18c-52.9,33.24-82.18,94.77-79.32,122.71C282.68,432.03,300.53,446.02,313.1,446.69z
			 M521.2,478.98c19.39-28.1,44-81.9,40.18-119.71c-1.3-12.75-3.97-25.56-9.98-37.32c-38.13,35.03-67.19,87.57-93,124.74
			c-24.12,34.72-56.73,69.44-97.42,91c18.83,7.1,38.65,11.24,58.74,12.26C458.3,552.01,502.13,506.6,521.2,478.98z M1222.38,444.1
			c1.56-19.73-8.86-35.28-17.65-35.74c-11.52-0.61-30.58,16.92-58.55,64.5c-20.99,35.71-28.08,70.83-11.47,71.35
			c18.55,0.58,49.36-22.22,69.57-54.02c-15.37,0-21.94-5.32-24.72-22.07c-2.71-16.51,14.41-36.31,26.58-35.67
			C1212.55,432.76,1218.89,437.42,1222.38,444.1z M1560.3,458.72c4.05-5.06,10.24-4.96,9.72-1.19c-6.12,9.5-30.98,36.86-57.55,35.61
			c-12.71-0.58-21.56-13.29-22.7-26.76c0,0-16.39-7.86-19.99-1.54c-16.06,28.18-37.37,66.87-42.55,77.23
			c-3.95,7.93-6.1,8.88-12.94,9c0,0-13.88-0.39-22.29-0.25c-6.86,0.11-9.53-5.61-2.89-17.05c6.94-11.97,37.82-62.91,52.49-88.22
			c14.85-25.62,4.82-25.13-7.31-10.83c-4.08,4.75-35.86,45.2-56.41,71.67c-26.59,34.22-49.05,46.54-62.21,46.29
			c-33.01-0.74-21.28-32.05-16.06-42.1c15.24-29.34,32.3-51.2,48.25-74.87c9.21-13.67-4.92-8.69-17.64,2.88
			c-17.08,15.54-37.13,33.74-45.21,46.71c-13.89,24.93-29.36,53.32-32.49,59.72c-2.1,4.31-4.3,5.76-11.23,5.83
			c-3.33,0-14.41,0-20.42,0c-10.46-0.07-10.64-5.94-5.05-16.54c5.15-9.64,9.05-15.09,17.6-29.41c2.71-4.56,14.48-23.05,27.67-46.53
			c-15.97,11.47-31.07,21.01-41.88,26.53c-18.68,38.16-55.32,71.74-85.88,70.56c-16.3-0.64-28.86-14.99-32.89-34.87
			c-28.37,20.83-59.1,30.76-72.65,30.04c-28.99-1.53-19.86-29.14-14.61-39.23c15.23-29.36,33.31-55.71,47.52-81.37
			c9.24-16.68-6.92-12.88-20.51,0.32c-5.88,5.67-11.08,12.01-15.49,18.9c-15.83,24.19-46.31,80.98-52.39,93.2
			c-3.95,7.93-6.77,8.24-10.8,8.24h-24.2c-9.26,0-7.64-8.95-1.91-18.7c6.99-11.87,42.54-72,57.31-97.34
			c16.02-27.47-8.79-16.92-20.58-5.94c-9.79,9.07-10.64,10.24-19.27,24.01c-17.36,27.78-44.68,78.34-50.15,89.62
			c-2.67,5.5-4.19,8.31-12.01,8.31h-23.02c-9.14,0-7.6-9.04-1.87-18.79c6.98-11.87,40.99-67.43,55.21-93.1
			c9.46-17.08,0.14-18.17-10.26-5.19c-11.32,14.14-26.69,32.75-38.09,48.13c-49.64,66.98-68.02,69.63-85.51,69.38
			c-10.64-0.15-16.05-9.29-15.93-20.18c-22.01,16.08-38.73,20.65-49.37,20.65c-21.36,0-22.05-27.41-14.29-41.89
			c3.08-5.77,22.34-40.93,22.34-40.93c-12.78,13.79-32.87,25.91-47.88,24.01c-16.07-2.05-20.31-15.21-22.05-22.34
			c-0.3-1.46-0.51-2.93-0.66-4.42c-2.57-1.12-16.65-7.12-19.44-2.28c-16.46,28.56-38.76,69.27-43.92,79.64
			c-3.95,7.93-9.06,7.28-13.48,7.28c0,0-12.32-0.21-21.06-0.21c-8.51,0-8-8.05-2.28-17.81c7-11.87,41.82-67.89,55.55-93.85
			c8.87-16.77,1.78-18.68-9.22-6.23c-14.92,16.91-38.62,48.51-50.01,63.23c-31.12,47.48-83.78,69.59-126.38,67.33
			c-33.61-1.78-59.6-9.86-82.07-18.78c-25.46,11.2-53.17,16.26-80.93,14.78c-10-0.53-34.28-8.48-36.01-25.09
			c-1.65-16.23,17.92-25.95,37.82-24.93c21.11,1.12,37.82,6.18,53.68,12.4c5.77,2.24,11.43,4.65,17.15,7.12
			c14.43-8.21,26.6-20.37,38.72-36.74c34.27-46.23,84.75-137.79,160.85-183.99c0.81-0.5,1.65-0.99,2.48-1.47
			c-13.24-14.69-34.78-26.39-69.87-32.14c-2.85,17.35-7.47,34.35-13.79,50.74c-31.08,80.56-80.93,133.91-140.65,130.73
			c-26.71-1.41-48.09-25.76-52.6-45.93c-7.17-32.05,7.16-66.1,20.85-84.43c33.25-47.14,85.98-72.84,146.56-69.63
			c11.7,0.59,23.35,2.01,34.85,4.26c1.21-6.7,2.08-13.47,2.59-20.26l5.08-3.82c0.28,8.5-0.09,17.01-1.11,25.45
			c35.17,8.13,58.73,23.63,74.56,41.37c35.16-18.99,78.54-30.15,87.25-24.38c0,0-40.19,9.01-71.86,33.84
			c-1.67,1.32-3.28,2.73-4.92,4.11c18.84,28.49,21.8,59.2,23.24,73.31c2.47,24.16,2.47,38.19-2.36,56.98
			c7.56-9.98,23.55-28.57,28.96-34.01c2.37-2.37,13.95-15.87,33.59-15.87c26.76,0,20.72,31.08,12.44,45.24
			c-2.49,4.27-6.21,9.5-6.21,9.5c0.72,1.97,3.86,3.24,7.15,2.91c2.46-0.38,4.82-1.18,7-2.37c4.02-15.36,28.71-63.36,54.57-63.36
			c6.51,0,10.46,1.69,11.17,8.49c4.14,39.52-34.34,59.35-57.69,66.05c-1.33,8.31,0.86,17.99,16.04,18.8
			c19.07,1.01,40.27-15.88,60.88-43.01c0,0,14.07-26.86,16.55-31.94c3.84-8,7.74-9.1,12.36-9.73c0,0,15.37-0.15,23.96,0.19
			c9.02,0.36,6.26,8.45,0.66,18.29c-6.83,12.01-36.25,64.31-50.12,90.21c-9.02,16.83-10.01,31.53,4.36,22.45
			c8.99-5.7,18.16-14.24,26.38-23.03c13.96-25.07,47.03-84.6,53.18-97.11c5.39-11.02,9.53-10.39,14.19-11.02c0,0,14.67-0.34,23.3,0
			c9.03,0.36,6,8.17-0.62,19.57c-6.94,11.99-36.22,63.28-50.09,89.18c-9.02,16.83-6.6,23.94,4.06,13.8
			c12.87-12.24,20.39-20.97,50.53-60l0.93-1.25c9.26-12.14,21.28-27.76,27.84-35.17c16.1-18.36,26.65-27.08,44.41-26.11
			c11.5,0.61,17.97,9.15,18.64,19.5c14.94-11.81,33.51-20.45,43.44-19.43c14.18,1.45,21.06,11.35,22.45,22.11
			c16.49-12.8,34.98-22.55,51.04-22.19c18.27,0.36,21.73,27.43,11.54,42.9c-9.17,13.91-37.47,60.02-45.8,76.21
			c-4.05,7.85-13.34,24.8,3.14,19.24c11.71-3.94,28.28-15.17,46.46-33.12c0.74-12.66,4.29-24.99,10.38-36.1
			c33.31-61.46,66.58-75.52,89.32-74.31c22.74,1.21,35.06,25.75,32.1,54.03c-0.59,5.26-1.58,10.46-2.99,15.55
			c8.66-2.37,29.55-10.18,49.64-32.98c25.86-46.15,54.83-98.02,61.22-109.36c4.33-7.67,12.21-20.78,16.83-21.43
			c0,0,16.45-1.19,25.14,0.25c10.78,1.8-2.68,18.66-8.27,28.49c-5.59,9.83-36.17,66.47-55.8,102.44
			c15.12-9.59,44.75-31.71,67.1-31.62c19.25,0.06,20.09,21.64,8.62,38.64c-9.29,13.8-38.93,55.72-54.68,80.14
			c-4.73,7.36-6.39,23.74,11.28,7.12c7.19-6.78,24.18-31.53,44.82-56.35c9.18-11.64,22.46-29.85,29.68-38.08
			c16.16-18.52,26.81-31.8,47.95-31.8c26.34,0,20.45,30.12,12.78,44.62c-1.81,3.59-4.01,6.97-6.55,10.08
			c2.48,4.19,9.09,3.49,14.19,0.55c8.51-29.68,36.78-64.3,54.56-63.36c6.5,0.34,10.5,2.16,11.19,8.97
			c3.82,37.36-33.16,60.18-57.73,65.82c-1.33,8.24,0.84,17.26,16.06,18.54C1535.69,484.09,1556.08,463.97,1560.3,458.72z"/>
		<path fill-rule="evenodd" clip-rule="evenodd" fill="#001655" d="M1489.92,537.26c-4.67,9.02-1.18,16.37,7.79,16.37
			c8.97,0,20.09-7.35,24.82-16.37c4.72-9.02,1.18-16.32-7.89-16.32C1505.56,520.93,1494.61,528.23,1489.92,537.26z M1492.84,537.26
			c3.9-7.53,13.07-13.67,20.43-13.67s10.25,6.15,6.36,13.67c-3.9,7.53-13.14,13.71-20.55,13.71
			C1491.69,550.97,1488.92,544.79,1492.84,537.26z"/>
		<path fill-rule="evenodd" clip-rule="evenodd" fill="#001655" d="M1494.83,547.04h-2.7l-0.36,0.72h8.52l0.36-0.72h-2.56l4.99-9.65
			h1.81c3.63,0,3.62,1.19,1.91,4.97c-1.84,4.05-2.27,5.4,1.18,5.4h2.09l0.36-0.72h-0.7c-1.75,0-1.18-1.48,0.23-4.53
			c2.12-4.53,1.18-5.12-2.9-5.63v-0.06c2.95-0.34,5.58-1.32,7.3-4.65c2.17-4.17,0-4.94-3.65-4.94h-8.38l-0.37,0.71h2.69
			L1494.83,547.04z M1507.97,527.94h1.49c2.92,0,3.07,1.58,1.69,4.25c-1.18,2.37-3.06,4.31-5.6,4.31h-2.01L1507.97,527.94z"/>
		<path fill-rule="evenodd" clip-rule="evenodd" fill="#001655" d="M701.53,723.11h2.37l5.53-18.89h12.66l5.15,18.89h8.61
			l-16.35-55.18h-1.37L701.53,723.11z M721.43,701.87h-11.38l5.91-19.38h0.12L721.43,701.87z"/>
		<path fill-rule="evenodd" clip-rule="evenodd" fill="#001655" d="M758.92,694.66h7.61c6.81,0,9.53,4.85,9.53,13.28
			c0,7.75-2.04,13.29-10.64,13.29h-6.53L758.92,694.66z M758.92,670.75h6.32c5.98,0,7.1,5.23,7.1,11.38
			c0,7.73-2.37,10.17-7.76,10.17h-5.71L758.92,670.75z M751.16,723.12h17.4c9.12,0,15.65-2.96,15.65-14.57
			c0-10.48-5.72-13.81-14.19-14.96v-0.16c5.91-1.36,10.47-4.75,10.47-12.23c0-6.68-2.36-12.37-12.52-12.37h-16.83V723.12z"/>
		<path fill-rule="evenodd" clip-rule="evenodd" fill="#001655" d="M1258.91,696.73c0-12.9-5.04-27.31-16.54-27.31
			c-11.52,0-16.55,14.35-16.55,27.31c0,12.95,5.04,27.3,16.55,27.3C1253.87,724.03,1258.91,709.68,1258.91,696.73z M1250.75,696.73
			c0,17.17-2.05,24.92-8.45,24.92s-8.44-7.74-8.44-24.92c0-17.19,2.04-24.93,8.44-24.93S1250.75,679.63,1250.75,696.73z"/>
		<path fill-rule="evenodd" clip-rule="evenodd" fill="#001655" d="M1038.26,721.23v1.89h21.08c15.85,0,20.96-13.2,20.96-27.1
			c0-16.4-6.88-27.17-21.16-27.17h-20.88V721.23z M1046.01,670.75h11.82c10.2,0,13.94,10.32,13.94,25.27
			c0,13.21-3.95,25.21-14.18,25.21h-11.5L1046.01,670.75z"/>
		<path fill-rule="evenodd" clip-rule="evenodd" fill="#001655" d="M802.09,723.12h34.89v-20.04h-1.65
			c-2.18,14.89-6.39,18.15-14.19,18.15h-11.28v-52.38h-7.75L802.09,723.12z"/>
		<path fill-rule="evenodd" clip-rule="evenodd" fill="#001655" d="M557.33,723.12h34.53l0.61-18.6h-1.83
			c-1.43,10.85-4.84,16.7-15.24,16.7h-10.28v-24.6h3.67c7.9,0,8.27,2.51,8.37,11.99h2.04v-25.81h-2.04
			c0.07,8.2-0.47,11.47-8.37,11.47h-3.67v-23.53h3.28c15.5,0,18.02,1.36,20.09,14.8h1.78l-0.41-16.7h-32.53V723.12z"/>
		<path fill-rule="evenodd" clip-rule="evenodd" fill="#001655" d="M608.67,720.62c4.52,2.34,9.55,3.52,14.63,3.42
			c8.44,0,17.01-6.06,17.01-16.48c0-20.42-26.01-14.8-26.01-28.38c0-6.01,4.57-8.88,9.33-8.88c6.32,0,10.27,4.18,11.9,12.83h1.84
			l-0.41-11.87c-3.9-2.01-8.2-3.12-12.58-3.27c-8.03,0-15.37,5.39-15.37,15.03c0,18.75,26.4,13.52,26.4,28.17
			c0,7.29-5.58,10.56-11.22,10.56c-7.9,0-13.62-7.67-14.09-16.4h-1.9L608.67,720.62z"/>
		<path fill-rule="evenodd" clip-rule="evenodd" fill="#001655" d="M669.08,723.12h7.75V671.2h5.84c6.95,0,9.6,7.97,9.87,15.03h2.04
			v-17.38h-43.26v17.38h2.04c0.27-7.06,2.86-15.03,9.86-15.03h5.85V723.12z"/>
		<path fill-rule="evenodd" clip-rule="evenodd" fill="#001655" d="M880.83,720.62c4.52,2.34,9.55,3.52,14.63,3.42
			c8.44,0,17.01-6.06,17.01-16.48c0-20.42-26-14.8-26-28.38c0-6.01,4.57-8.88,9.32-8.88c6.33,0,10.27,4.18,11.9,12.83h1.84
			l-0.41-11.87c-3.9-2.01-8.21-3.12-12.59-3.27c-8.02,0-15.36,5.39-15.36,15.03c0,18.75,26.39,13.52,26.39,28.17
			c0,7.29-5.58,10.56-11.21,10.56c-7.9,0-13.62-7.67-14.1-16.4h-1.9L880.83,720.62z"/>
		<path fill-rule="evenodd" clip-rule="evenodd" fill="#001655" d="M958.25,694.28h-21.09v-25.43h-7.76v54.27h7.76v-26.94h21.09
			v26.94h7.74v-54.27h-7.74V694.28z"/>
		<path fill-rule="evenodd" clip-rule="evenodd" fill="#001655" d="M985.7,723.12h34.49l0.61-18.6h-1.83
			c-1.43,10.85-4.84,16.7-15.24,16.7h-10.28v-24.6h3.67c7.9,0,8.28,2.51,8.37,11.99h2.04v-25.81h-2.02
			c0.07,8.2-0.47,11.47-8.37,11.47h-3.67v-23.53h3.28c15.5,0,18.03,1.36,20.09,14.8h1.77l-0.41-16.7h-32.5V723.12z"/>
		<path fill-rule="evenodd" clip-rule="evenodd" fill="#001655" d="M1108.48,686.99c3.06-2.13,5.8-4.68,8.14-7.59h0.13v43.72h7.75
			v-54.27h-3.33c-2.92,7.12-8.36,12.37-14.01,16.54L1108.48,686.99z"/>
		<path fill-rule="evenodd" clip-rule="evenodd" fill="#001655" d="M1140.96,686.05l1.63,0.84l3.2-8.65h21.66
			c-8.57,13.59-15.65,28.48-18.5,44.94h8.5c1.02-20.86,6.39-35.9,17.62-52.68h-28.59L1140.96,686.05z"/>
		<path fill-rule="evenodd" clip-rule="evenodd" fill="#001655" d="M1183.99,686.05l1.63,0.84l3.19-8.65h21.71
			c-8.58,13.59-15.64,28.48-18.51,44.94h8.52c1.03-20.86,6.41-35.9,17.62-52.68h-28.7L1183.99,686.05z"/>
		<path fill="#001655" d="M861.52,668.85h-7.75v54.28h7.75V668.85z"/>
	</g>
</g>
</svg>
