<?xml version="1.0" encoding="utf-8"?>
<!-- Generator: Adobe Illustrator 27.4.0, SVG Export Plug-In . SVG Version: 6.00 Build 0)  -->
<svg version="1.1" id="レイヤー_1" xmlns="http://www.w3.org/2000/svg" xmlns:xlink="http://www.w3.org/1999/xlink" x="0px"
	 y="0px" width="1800px" height="960px" viewBox="0 0 1800 960" enable-background="new 0 0 1800 960" xml:space="preserve">
<g>
	<path d="M831.31,581.69c0,4.72,0,8.72,0,13.07c-34.14,0-68.01,0-102.3,0c0-4.07,0-8.08,0-13.07c4.59,0,9.4,0.02,14.2,0
		c13.79-0.08,18.55-4.75,18.55-18.18c0.01-27.62-0.4-55.25,0.15-82.86c0.35-17.22-12.01-30.49-28.91-34.05
		c-13.41-2.82-25.92,0.59-36.76,7.72c-8.96,5.89-15.79,14.68-18.18,25.74c-1.71,7.94-3.76,15.98-4,24.02
		c-0.58,19.62-0.24,39.28-0.16,58.92c0.05,13.14,5.5,18.5,18.7,18.68c4.28,0.06,8.56,0.01,13.34,0.01c0,4.38,0,8.51,0,13.04
		c-33.55,0-67.02,0-100.98,0c0-4.11,0-8.24,0-13.06c5.1,0,10.17,0.18,15.22-0.04c11.45-0.5,16.62-5.8,16.76-17.32
		c0.15-12.89,0.04-25.78,0.04-38.67c0-21.69,0.03-43.37-0.02-65.06c-0.02-8.73-2.64-11.88-11.36-12.52
		c-6.7-0.49-13.46-0.1-20.68-0.1c0-5.06,0-9.6,0-14.59c22.81-1.3,45.54-2.6,68.92-3.93c0,10.29,0,20.04,0,31.38
		c1.83-2.19,2.75-3.06,3.39-4.1c6.76-11.07,15.94-20.4,27.5-25.27c10.2-4.3,22.01-5.92,33.2-6.4c8.28-0.35,16.99,2.24,25.01,4.98
		c9.54,3.25,17.23,9.66,22.83,18.29c1.99,3.06,4.29,5.93,6.19,9.04c5.66,9.27,6.27,19.75,6.38,30.14
		c0.26,25.16,0.06,50.33,0.1,75.49c0.02,12.91,5.76,18.58,18.76,18.68C821.7,581.72,826.18,581.69,831.31,581.69z"/>
	<path d="M1570.06,510.78c-0.56,18.43-2.81,34.03-11.21,48.97c-11.91,21.19-29.77,33.03-52.49,38.59
		c-19.77,4.84-39.01,2.85-58.26-4.27c-19.28-7.14-33.21-20.34-41.38-37.92c-11.7-25.16-13.11-51.72-3.32-78.55
		c7.33-20.08,20.35-35.31,39.23-43.87c11.93-5.41,25.8-7.79,39.01-8.77c15.21-1.13,30.51,1.79,44.4,8.9
		c22.53,11.54,35.92,30.52,41.97,54.6C1569.98,496.25,1569.55,504.65,1570.06,510.78z M1530.16,508.12
		c-0.73-7.1-1.06-14.27-2.32-21.28c-1.14-6.38-3.15-12.63-5.02-18.87c-4.82-16.07-15.01-26.26-32.13-28.31
		c-13.22-1.59-26.04-0.25-35.16,10.64c-4.98,5.95-9.72,12.95-11.81,20.26c-3.04,10.63-4.67,21.94-4.93,33.01
		c-0.33,14.23,0.66,28.57,2.29,42.73c1.28,11.07,6.47,21.34,14.25,29.1c11.48,11.46,26.1,13.56,41.52,9.3
		c11.97-3.31,20.37-11.55,24.63-22.6C1528.12,544.89,1531.03,526.76,1530.16,508.12z"/>
	<path d="M1027.95,551.38c-7.5,12.22-14.55,23.62-25.77,31.85c-28.1,20.62-58.82,22.16-90.67,11.76
		c-10.44-3.41-21.38-8.01-29.56-15.03c-15.04-12.9-25.81-29.46-26.68-50.2c-0.51-12.19-0.8-24.73,1.41-36.62
		c3.53-18.98,12.46-35.8,27.68-48.37c13.56-11.19,29.66-16.48,46.9-19.03c15.92-2.36,31.64-1.2,46.44,4.4
		c12.3,4.65,22.12,13.48,30.13,24.24c13.33,17.9,17.72,38.62,20.32,60.68c-44.42,0-88.53,0-134.4,0c1.8,10.35,2.68,20.11,5.29,29.37
		c5.11,18.1,17.27,30.53,35.12,35.86c8.34,2.49,17.73,1.87,26.65,1.96c19.16,0.19,32.88-10.29,44.66-23.99
		c2.07-2.41,3.58-5.38,4.99-8.27c2.54-5.21,5.94-5.34,10.34-2.39C1022.83,548.95,1025.1,549.89,1027.95,551.38z M894.93,500.54
		c19.03,0,36.79,0.1,54.54-0.04c9.58-0.08,19.16-0.85,28.73-0.78c5.84,0.04,8.05-3.77,7.84-7.98c-0.46-9.45-0.58-19.37-3.58-28.15
		c-5.19-15.2-17.19-23.4-33.34-24.25c-12.38-0.65-24.42,0.75-34.28,9.73c-10.01,9.12-13.53,21.39-16.73,33.78
		C896.71,488.34,896.08,494.02,894.93,500.54z"/>
	<path d="M402.9,515.17c-44.27,0-87.98,0-132.07,0c-1.82,15.67,2.21,29.36,9.64,42.48c5.92,10.46,15.14,16.9,25.62,21.52
		c4.86,2.14,10.61,2.78,16.01,3.12c15.86,1.01,31.1,0.15,44.6-10.55c8.6-6.81,15.93-14.08,20.76-23.93
		c0.53-1.09,3.22-2.08,4.45-1.69c3.78,1.2,7.33,3.09,11.31,4.87c-14.06,28.93-36.28,45.09-67.32,49.1
		c-18.82,2.43-36.76-0.49-54.7-6.86c-20.33-7.22-35.11-20.55-43.68-39.35c-9.56-20.98-9.24-43.34-3.64-65.9
		c2.82-11.35,7.58-21.53,14.17-30.65c4.49-6.23,11.27-10.85,17.23-15.95c2.6-2.23,5.52-4.32,8.63-5.69
		c23.14-10.19,46.83-14.08,71.99-7.75c16.86,4.24,29.03,14.59,38.66,27.78C397.11,472.92,402.01,493.08,402.9,515.17z
		 M270.49,500.54c2.59,0,4.57,0,6.56,0c22.07-0.01,44.14,0.03,66.21-0.03c18.64-0.05,20.71-2.34,19.29-20.95
		c-1.51-19.67-13.35-34.82-32.29-39.06c-14.3-3.2-28.6-2.26-39.68,9.17c-4.25,4.38-7.72,9.73-10.63,15.14
		C274.1,475.67,271.52,487.52,270.49,500.54z"/>
	<path d="M1086.37,583.66c-7.26,6.92-10.88,20.4-25.89,14.33c0-21.61,0-43.63,0-66.61c3.72,0,7.7-0.71,11.21,0.27
		c2.04,0.57,3.7,3.66,4.88,5.95c2.94,5.74,5,11.97,8.33,17.45c6.42,10.56,14.86,19.61,26.37,24.42c15.6,6.53,31.89,10.24,48.71,4.5
		c5.26-1.8,10.69-3.9,15.15-7.11c9.1-6.55,12.97-19.36,7.21-28.74c-3.43-5.58-10.3-10.57-16.64-12.55
		c-16.09-5.04-32.6-9.25-49.24-11.84c-12.99-2.02-25.14-5.78-36.02-12.48c-6.59-4.06-12.22-10.03-14.28-18.71
		c-2.6-10.97-2.96-21.53-0.63-32.63c2.28-10.87,8.78-18.37,17.17-24.11c16.7-11.43,35.58-12.92,55.03-9.54
		c11.68,2.03,23.13,4.87,33.06,12.83c5.85-8.46,12.37-15.21,24.04-11.45c0,18.81,0,37.96,0,58.16c-3.12,0-6.58,0.47-9.81-0.2
		c-1.6-0.33-3.25-2.55-4.03-4.3c-6.44-14.4-14.43-27.43-28.81-35.37c-12.13-6.7-25.2-7.91-38.47-5.95
		c-6.22,0.92-12.81,2.92-18.04,6.28c-14.43,9.27-13.4,26.91,0.93,36.11c10.67,6.85,22.99,6.54,34.53,9.47
		c15.18,3.85,30.84,5.99,45.79,10.56c11.41,3.48,21.13,11.29,26.79,21.93c4.99,9.4,5.27,20.12,4.03,30.96
		c-1.95,17.05-11.53,28.89-25.58,36.52c-12.55,6.82-26.71,9.85-41.31,9.34c-14.46-0.5-28.18-4.26-41.4-9.81
		C1095,589.49,1091.06,586.46,1086.37,583.66z"/>
	<path d="M1303.63,358.57c0,23.71,0,46.95,0,70.81c20.16,0,39.7,0,59.63,0c0,5.43,0,10.23,0,15.99c-19.73,0-39.43,0-59.42,0
		c-0.16,2.7-0.35,4.48-0.35,6.27c-0.01,32.94-0.08,65.88,0.06,98.82c0.03,7.99,1.39,15.51,6.72,22.32c6.53,8.35,26,10.19,35.94,0.35
		c9.89-9.78,12.93-21.76,13.45-34.92c0.08-2.02,0.26-4.04,0.42-6.47c5.16,0,10.14,0,16.19,0c-0.58,6.48-0.89,12.72-1.75,18.88
		c-1.99,14.16-5.95,28.12-17.64,36.96c-7.66,5.8-17.49,9.59-26.93,12c-16.24,4.16-32.28,1.16-46.37-7.86
		c-11.24-7.19-17.04-18.29-17.05-31.96c-0.01-35.4,0-70.79,0-106.19c0-2.41,0-4.82,0-7.87c-10.73,0-20.88,0-31.52,0
		c0-5.59,0-10.56,0-16.28c11.55,1.22,20.83-3.95,29.54-10.7c9.86-7.64,14.41-18.63,17.96-29.86c3.06-9.68,4.62-19.83,6.97-30.3
		C1293.37,358.57,1297.96,358.57,1303.63,358.57z"/>
	<path d="M424.22,447.77c0-5.16,0-9.56,0-14.37c24.84-1.32,49.41-2.62,74.54-3.95c0,14.18,0,27.78,0,41.38
		c0.33,0.09,0.66,0.17,1,0.26c1.32-2.6,3.05-5.08,3.88-7.83c4.28-14.1,14.33-24.07,26.23-30.77c13.74-7.74,28.91-10.77,45.14-4.4
		c16.29,6.39,20.48,27.93,10.49,41.51c-0.82,1.12-2.02,2.03-3.17,2.84c-11.51,8.15-28.87,4.46-35.42-7.84
		c-3.12-5.87-2.11-11.9,1.57-17.39c1.09-1.63,2.39-3.12,3.6-4.67c-0.26-0.58-0.52-1.16-0.77-1.74c-4.07,1.16-8.56,1.58-12.13,3.62
		c-20.21,11.54-28.72,30.57-34.66,52.14c-6.38,23.18-5.51,46.54-5.6,70.01c-0.04,10.26,3.89,14.52,14.27,14.97
		c7.71,0.34,15.44,0.07,23.46,0.07c0,4.69,0,8.68,0,13.09c-36.16,0-72.08,0-108.5,0c0-4.11,0-8.24,0-13.07
		c5.98,0,11.86,0.15,17.74-0.03c10.48-0.33,15.98-5.45,16.04-15.96c0.2-36.02,0.08-72.04,0.06-108.06c0-4.76-2.75-7.62-7.1-8.68
		c-3.14-0.76-6.46-1-9.71-1.08C438.43,447.66,431.69,447.77,424.22,447.77z"/>
</g>
</svg>
