<?xml version="1.0" encoding="utf-8"?>
<!-- Generator: Adobe Illustrator 27.4.0, SVG Export Plug-In . SVG Version: 6.00 Build 0)  -->
<svg version="1.1" id="レイヤー_1" xmlns="http://www.w3.org/2000/svg" xmlns:xlink="http://www.w3.org/1999/xlink" x="0px"
	 y="0px" width="1800px" height="960px" viewBox="0 0 1800 960" enable-background="new 0 0 1800 960" xml:space="preserve">
<g>
	<path d="M843.75,476.51c10.59-17,23.6-29.35,46.33-20.44c0.25-2.27,0.39-3.94,0.62-5.6c0.55-4.01,2.67-6.42,6.92-6.32
		c4.41,0.11,4.59,3.5,4.75,6.64c1.16,22.07,2.17,44.15,3.46,66.21c0.26,4.39,1.05,8.87,2.41,13.04c2.03,6.22,4.31,6.44,8.74,1.38
		c1.01-1.16,2.01-2.41,2.67-3.79c14.37-30.07,28.79-60.12,42.95-90.3c2.7-5.75,4.07-12.11,6.52-18c2.73-6.57,6.5-7.26,11.37-1.95
		c6.68,7.3,13.36,14.67,19.26,22.59c3.34,4.48,5.69,4.4,9.89,1.5c11.53-7.99,20.3-18.57,28.84-29.42c0.7-0.89,1.44-2.02,1.5-3.08
		c0.61-10.38,7.03-18.32,11.37-27.11c2.88-5.83,6.36-6.54,10.79-1.75c8.14,8.81,15.78,18.09,23.63,27.17
		c0.87,1.01,1.74,2.02,2.99,3.46c18.67-13.62,35.7-28.43,44.68-50.27c2.53-6.15,6.42-7.04,12.21-5.05c0.16-2.71,0.36-5,0.42-7.3
		c0.1-4.19,1.67-7.53,6.23-7.59c5-0.06,5.55,3.73,5.54,7.78c-0.05,28.93-0.02,57.86-0.03,86.78c0,5.49-0.4,12.51,5.83,13.55
		c3.39,0.56,9.05-4.09,11.5-7.82c7.98-12.13,15.14-24.82,22.27-37.49c13.42-23.83,26.55-47.82,39.93-71.68
		c1.38-2.46,3.18-5.25,5.52-6.45c2-1.02,5.06,0.05,7.72,0.2c1.11-2.35,2.2-6.1,4.47-8.91c1.19-1.47,4.55-1.96,6.69-1.57
		c1.09,0.2,2.41,3.35,2.33,5.11c-0.7,15.69-1.69,31.36-2.58,47.04c-0.02,0.37,0.1,0.75,0.39,2.71c1.92-3.41,3.27-5.74,4.55-8.11
		c9.25-17.15,19.43-33.64,33.84-47.07c3.25-3.03,6.65-6.05,10.43-8.33c8.66-5.22,18.89-1.77,20.57,8.06
		c1.9,11.13,2.24,22.69,1.84,34.01c-0.73,20.72-2.63,41.4-3.71,62.11c-0.13,2.48,1.21,6.61,2.9,7.24c2.35,0.88,6.26-0.02,8.43-1.61
		c3.53-2.57,6.68-6,9.14-9.64c23.03-34.1,44.63-69.24,69.19-102.19c17.87-23.97,36.56-31.35,66.03-17.44
		c1.53,0.72,3.04,1.49,5.08,2.49c-0.34-6.73,1.37-11.69,7.92-13.69c3.34-1.02,5.64,0.23,6.09,3.39c0.87,6.21,1.05,12.77,7.43,16.16
		c7.71,4.09,16.16,4.04,24.48,2.66c10.32-1.7,18.83-6.96,25.82-14.7c1.3-1.44,2.34-3.62,3.94-4.15c2.54-0.84,5.97-1.56,8.02-0.47
		c1.57,0.84,2.83,5.09,2.05,6.9c-1.78,4.14-4.26,8.39-7.56,11.39c-17.2,15.62-36.69,22.1-59.5,13.35c-1.39-0.53-2.92-0.72-5.09-1.23
		c-0.58,8.24-1.15,16.09-1.69,23.93c-1.18,17.09-3.81,33.95-10.4,49.84c-2.86,6.9-6.65,13.59-11.02,19.67
		c-7.95,11.06-18.73,17.3-32.93,16.11c-0.97-0.08-1.95-0.06-2.92,0c-21.92,1.21-32.95-7.07-38.25-33.28
		c-2.27-11.25-1.48-23.11-2.13-35.61c-1.49,2.02-2.82,3.7-4.01,5.46c-14.22,21.08-28.49,42.12-42.6,63.27
		c-6.17,9.24-14.27,14.49-25.71,14.16c-10.06-0.29-14.99-3.97-15.5-14.16c-0.56-10.97-0.1-22.03,0.54-33.01
		c1.07-18.38,2.81-36.72,3.84-55.1c0.19-3.37-1.65-6.85-2.56-10.28c-3.01,1.74-6.52,2.97-8.95,5.31
		c-15.45,14.87-25.79,33.35-36.2,51.8c-10.29,18.24-15.71,37.83-17.45,58.56c-0.1,1.15-0.22,2.33-0.54,3.44
		c-1.06,3.73-3.63,5.5-7.45,4.88c-3.65-0.58-5.19-2.93-4.91-6.65c1.03-13.72,1.98-27.46,2.98-41.18
		c1.32-17.98,2.67-35.96,3.98-53.95c0.12-1.69,0.02-3.4,0.02-6.92c-2.06,3.28-3.31,5.09-4.37,7
		c-18.27,32.68-36.53,65.35-54.74,98.06c-4.37,7.84-8.8,15.56-17.04,20.14c-15.28,8.48-27.43,1.67-27.61-15.77
		c-0.23-22.13-0.16-44.26-0.22-66.39c-0.01-2.07,0-4.14,0-7.74c-1.72,2.13-2.61,2.98-3.21,4c-10.07,17.37-23.13,32.2-39.27,44.05
		c-5.44,3.99-5.53,7.05-2.98,12.73c3.29,7.34,6.15,15.22,7.19,23.12c0.87,6.64-0.15,13.95-2.07,20.45
		c-3.66,12.34-17.72,18.7-29.94,14.67c-6.25-2.06-9.92-6.61-12.26-12.39c-7.22-17.84-4.01-34.16,7.42-49.22
		c5.27-6.94,5.31-6.95-0.15-13.77c-3.37-4.22-6.85-8.37-10.41-12.71c-4.37,7.49-7.57,15.43-12.88,21.54
		c-9.5,10.94-20.01,21.05-30.65,30.9c-3.43,3.17-3.99,5.22-1.92,9.12c6.95,13.06,10.16,26.69,6.1,41.48
		c-3.42,12.47-21.7,22.42-34.15,11.43c-6.89-6.09-9.18-14.7-9.75-23.59c-0.71-11.12,2.89-20.92,9.75-29.7
		c6.16-7.89,6.04-8.02-0.43-15.65c-2.38-2.8-4.87-5.51-8.05-9.09c-2.65,5.12-5.09,9.62-7.32,14.21
		c-12.97,26.68-25.86,53.39-38.88,80.05c-1.69,3.47-3.67,6.88-6.03,9.92c-9.67,12.43-22.89,11.28-30.28-2.89
		c-3.02,4.59-5.84,9.06-8.85,13.41c-10.5,15.18-28.32,15.74-39.43,1.04c-7.8-10.32-9.75-22.63-10.55-35.1
		c-0.42-6.5-0.07-13.05-1.05-20.01c-1.2,2.25-2.51,4.46-3.58,6.77c-9.14,19.69-17.7,39.68-27.61,58.98
		c-3.86,7.52-9.9,14.47-16.41,19.95c-9.84,8.28-23.13,5.42-30.5-5.05c-5.77-8.18-8.2-17.49-9.16-27.25
		c-1.8-18.3-0.9-36.01,10.66-51.67c9.34-12.65,21.76-15.26,36.18-12.78c1.81,0.31,4.52,3.89,4.29,5.61
		c-0.34,2.52-2.93,4.76-4.66,7.04c-0.24,0.31-1.11,0.17-1.69,0.19c-21.15,0.57-28.88,6.83-32.76,27.94
		c-2.24,12.18-1.41,24.42,3.73,35.93c5.78,12.93,15.16,14.34,23.83,3.13c4.57-5.91,8.08-12.77,11.3-19.56
		c10.72-22.59,21.06-45.35,31.62-68.02C834.59,472.28,836.2,471.89,843.75,476.51z M1464.36,296.12
		c-13.97-0.12-23.23,4.52-29.6,14.18c-14.68,22.26-18.91,46.9-13.96,72.82c2.7,14.16,10.68,20.75,23.34,21.01
		c10.34,0.21,19.19-3.87,24.91-12.6c4.11-6.27,7.76-13.05,10.39-20.06c7.1-18.92,7.85-39.03,9.56-58.88
		c0.21-2.5-1.81-6.57-3.95-7.65C1477.2,300.98,1468.87,297.98,1464.36,296.12z M848.56,513.01c1.74,7.51,3.23,15.89,5.72,23.96
		c1.71,5.54,4.62,11.22,11.27,12.13c6.8,0.93,10.49-4.25,13.86-9.01c7.6-10.75,10.64-23.29,12.09-35.98
		c0.9-7.9,0.49-16.31-1.22-24.07c-2.33-10.56-12.3-14.22-21.84-9.12c-7.31,3.91-12.88,9.51-14.9,17.73
		C851.66,496.34,850.35,504.17,848.56,513.01z M1073.67,459.38c0.59,2.06,1.34,5.66,2.66,9.04c1.48,3.8,3.94,6.87,8.67,6.23
		c4.53-0.61,7.4-3.47,8.41-7.78c2.41-10.31-1.03-19.45-6.42-27.98c-0.49-0.77-3.8-0.97-4.42-0.25
		C1077.85,444.14,1074.07,450.2,1073.67,459.38z M989.44,488.55c0.39,0.25,0.78,0.5,1.16,0.74c0.45,2.46,0.62,5.02,1.42,7.36
		c1.38,4.02,2.78,8.62,8.24,8.31c5.27-0.3,7.33-4.26,8.55-8.9c2.35-8.88-1.46-16.33-5.49-23.66c-1.57-2.86-4.44-2.9-6-0.11
		C994.41,477.55,992.04,483.12,989.44,488.55z"/>
	<path d="M507.04,606.21c3.67-5.63,7.26-11.32,11.05-16.87c1.96-2.88,4.26-5.53,6.42-8.27c3.81-4.83,8.25-8.33,14.95-6.52
		c6.92,1.87,7.23,7.84,8.17,13.37c0.5,2.96,0.89,5.94,1.56,10.45c3.82-6.28,6.83-11.36,9.98-16.35c2.69-4.26,5.25-8.65,8.37-12.58
		c3.84-4.83,9.39-6.36,15.22-5.09c5.37,1.17,6.22,6.44,6.54,10.64c0.79,10.4,0.75,20.86,0.98,31.3c0.15,6.97,0.14,13.95,0.34,20.92
		c0.04,1.41,0.69,2.8,1.44,5.62c2.65-3.12,4.78-5.04,6.19-7.38c9.95-16.63,19.77-33.35,29.6-50.05c3.05-5.18,6.09-10.37,8.97-15.65
		c3.39-6.24,5.43-6.89,12.35-3.13c1.87-3.77,3.65-7.59,5.61-11.3c6.29-11.89,15.18-16.74,28.63-15.38c4.16,0.42,7.2,0.19,9.75-4.05
		c2.66-4.43,8.52-3.59,10.56,1.37c1.99,4.82,5.02,6.05,10,5.64c8.98-0.75,15.82-4.63,20.97-11.91c2.43-3.44,5.26-8.19,10.07-4.83
		c4.58,3.2,2.54,8.34-0.05,12.02c-7.54,10.7-16.88,18.84-31.08,18.48c-5.33-0.14-7.48,1.44-7.06,7.48
		c0.94,13.69,2.16,27.49-1.69,41.04c-4.43,15.61-14.5,24.91-28.9,26.44c-7.96,0.85-14.56-1.8-19.5-8.09
		c-5.68-7.23-8.7-15.49-8.81-24.72c-0.07-6.36-0.01-12.71-0.01-19.07c-0.61-0.16-1.21-0.32-1.82-0.48
		c-1.06,1.66-2.19,3.29-3.19,4.99c-11.34,19.43-22.56,38.92-34.06,58.26c-2.9,4.88-5.35,10.37-11.86,12.07
		c-10.94,2.86-17.58-1.82-17.7-13.17c-0.16-14.75-0.01-29.5-0.09-44.25c-0.01-2.44-0.47-4.89-2.16-7.9
		c-2.57,3.25-5.36,6.34-7.66,9.77c-10.13,15.17-16.97,31.73-20.21,49.69c-0.54,3.01-0.34,6.18-0.25,9.27
		c0.18,6.01-1.68,8.24-6.85,8.33c-6.21,0.1-5.42-4.49-5.4-8.18c0.1-15.71,0.47-31.42,0.58-47.13c0.02-3.67-0.61-7.35-1.06-12.29
		c-2.25,1.82-3.27,2.36-3.9,3.19c-11.91,15.85-20.21,33.5-25.36,52.55c-1.18,4.35-0.79,9.19-0.7,13.79c0.1,5.14-2.55,8.53-7.23,8.52
		c-3.24-0.01-5.17-1.34-5.11-4.84c0.3-19.39,0.61-38.78,0.85-58.18c0.06-4.63-0.04-9.27-0.28-13.89c-0.21-3.98,2.76-8.02,6.61-8.06
		c5-0.05,5.19,3.46,5.09,7.27c-0.15,5.69-0.04,11.39-0.04,17.09C506.24,606.18,506.64,606.19,507.04,606.21z M658.19,578.68
		c1.47,6.83,2.17,12.86,4.1,18.47c3.92,11.39,14.82,13.7,23.42,5.14c2.13-2.12,3.79-4.95,4.94-7.76c5.9-14.34,4.73-29.25,2.81-44.11
		c-0.24-1.85-2.28-4.14-4.08-4.99c-9.57-4.57-21.09-0.56-24.83,9.32C661.57,562.63,660.15,571.09,658.19,578.68z"/>
	<path d="M307.56,645.66c-10.21,8.27-19.35,15.76-28.59,23.12c-7.75,6.17-15.51,12.33-23.47,18.22c-6.02,4.45-12.89,6.17-20.39,4.83
		c-7.9-1.41-12.33-7.38-10.52-15.1c3.59-15.27,7.52-30.46,11.38-45.67c0.98-3.87,3.04-6.63,7.63-6.6c5.58,0.04,7.72,2.39,6.38,8.2
		c-2.78,12.07-5.97,24.05-8.74,36.12c-0.51,2.22,0.13,4.69,0.24,7.05c2.32-0.6,5.15-0.57,6.89-1.92
		c13.83-10.69,27.47-21.61,41.13-32.52c4.7-3.76,9.08-7.96,13.97-11.44c4.74-3.37,6.46-7.81,7.15-13.29
		c2.51-20.07,5.89-40.03,16.36-57.74c3.67-6.2,8.9-11.67,14.18-16.69c4.84-4.6,11.37-5.6,18.01-4.91
		c7.43,0.77,12.85,5.06,13.09,12.44c0.21,6.77-0.51,13.99-2.73,20.34c-5.11,14.6-15.52,25.8-26.26,36.59
		c-2.33,2.34-4.29,5.07-6.76,7.23c-16.67,14.59-13.54,32.8-9.31,51.09c0.98,4.24,4.58,6.21,8.59,3.96
		c6.55-3.68,13.48-7.2,18.93-12.21c17.3-15.9,33.93-32.52,50.96-48.7c3.19-3.03,6.8-5.86,10.71-7.76c1.74-0.85,5.42,0.09,6.91,1.55
		c1.22,1.19,0.76,4.4,0.49,6.65c-0.14,1.17-1.37,2.31-2.31,3.27c-22.32,22.72-44.22,45.94-69.8,65.13
		c-4.76,3.57-10.94,5.95-16.82,7.15c-11.08,2.26-20.3-4.3-22.96-15.48C310.23,661.48,309.16,654.23,307.56,645.66z M330.14,597.32
		c0.61,0.33,1.21,0.66,1.82,0.99c7.05-9.26,14.39-18.32,21-27.89c2.42-3.51,3.47-8.14,4.4-12.41c0.42-1.91-0.37-5.2-1.74-6.07
		c-1.34-0.85-4.94-0.17-6.15,1.13c-3.86,4.18-8.04,8.53-10.32,13.61c-3.54,7.87-5.68,16.37-8.25,24.65
		C330.31,593.23,330.37,595.32,330.14,597.32z"/>
	<path d="M1161.31,301.6c-0.08,5.29-3.99,9.56-8.87,9.68c-5.23,0.13-9.29-4.81-9.27-11.26c0.02-6.36,3.68-10.7,9.04-10.73
		C1157.1,289.26,1161.41,295.09,1161.31,301.6z"/>
	<path d="M249.67,613.2c-5.33-0.03-8.93-2.81-8.97-6.94c-0.05-4.24,4.72-8.39,9.5-8.27c4.62,0.12,8.91,4.06,8.91,8.2
		C259.11,610.55,255.51,613.23,249.67,613.2z"/>
</g>
</svg>
