<?xml version="1.0" encoding="UTF-8"?>
<svg id="_レイヤー_1" data-name="レイヤー 1" xmlns="http://www.w3.org/2000/svg" viewBox="0 0 1800 960">
  <g id="svgg">
    <path id="path0" d="m416.62,247.11c-.12.12-8.47.27-18.55.31-19.55.08-28.87.85-36.4,2.98-4.61,1.3-18.05,7.23-19.55,8.62-.5.46-1.1.84-1.33.84-.43,0-5.26,3.31-6.46,4.43-.37.34-2.41,1.96-4.54,3.59-4.82,3.69-11.72,10.35-11.72,11.3,0,.39.89,1.68,1.97,2.87l1.97,2.16,6.21-.35c12.21-.7,18.09,2.45,18.72,10.03.17,2.03.19,39.12.04,82.42-.36,104.56-.36,114.18-.05,182.69.41,90.38.88,144.08,1.33,153.88,1.48,31.79.27,36.5-11.84,45.81-1.74,1.33-5.09,3.91-7.46,5.73-6.24,4.79-7.32,6.22-7.67,10.2-.33,3.78-.02,4.1,5.66,5.75,4.87,1.42,45.98,1.11,57.29-.43,4.64-.63,15.12-4.28,18.25-6.35,1.72-1.14,4.18-2.7,5.47-3.47,5.04-3,15.12-12.51,16.38-15.46.39-.93.92-1.68,1.15-1.68s.43-.4.43-.89.23-.89.5-.89c.73,0,3.97-10.87,4.7-15.74.41-2.75.56-16,.44-39.21-.11-20.6.05-37.26.39-40.4.69-6.44.72-11.17.12-16.34-.25-2.12-.63-5.47-.86-7.43-.39-3.41-.49-49.73-.22-101.6.07-13.4-.07-34.52-.32-46.93-.61-30.45-.58-167.83.04-172.3.94-6.86,7.08-16.74,12.13-19.56,2.32-1.29,3.96-2.35,4.3-2.79,1.2-1.53,12.57-5.42,19.94-6.83,6.87-1.32,32.21-1.63,41.75-.51,3.79.44,8.18.96,9.75,1.14,7.13.83,11.78,1.63,21.51,3.69,5.06,1.08,11.95,3.03,13.27,3.76.51.28,2.06.83,3.44,1.21,3.81,1.06,18.97,8.47,21.16,10.35.47.41,1.31.9,1.86,1.11,1.06.39,9.7,6.27,10.19,6.94.16.22,1.22,1.04,2.36,1.83,6.18,4.31,22.28,20.65,27.76,28.18.47.66,1.85,2.53,3.06,4.16,1.88,2.54,4.5,6.65,8.83,13.82,1.58,2.63,8.9,18.13,9.32,19.74.38,1.47,1.52,4.58,2.93,8.02.66,1.61,1.82,5.68,2.28,8.02.5,2.53,2.08,10.13,2.59,12.48,3.65,16.73.83,42.52-6.81,62.45-8.57,22.33-28.23,46.36-46.6,56.96-20.56,11.86-37.95,17.6-64.8,21.39-6.47.91-12.28,1.82-12.91,2.01-.63.19-2.05.6-3.15.9-9.33,2.56-15.52,10.66-11.97,15.66.76,1.07,1.75,2.69,2.2,3.62.45.92,1.74,2.15,2.86,2.73,1.12.58,3.06,1.62,4.33,2.3,2.97,1.62,16.63,7.54,21.8,9.45,2.21.82,5.38,2.13,7.05,2.91,1.67.78,3.16,1.42,3.33,1.42s2.8,1.24,5.86,2.74c9.5,4.68,18.65,8.91,23.64,10.93,1.74.7,3.41,1.49,3.73,1.75.32.26,1.22.68,2.01.93.79.25,3.02,1.22,4.97,2.15,1.95.94,3.69,1.7,3.88,1.7s1.44.51,2.78,1.14c6.67,3.11,11.79,5.4,12.1,5.4.37,0,5.27,2.23,9.9,4.5,1.61.79,3.08,1.44,3.27,1.44.33,0,2.3.92,12.16,5.65,5.7,2.73,21.16,10.69,25.25,12.99,10.21,5.75,14.28,7.99,19.22,10.52,6.34,3.27,19.85,9.92,21.52,10.61.63.26,1.79.74,2.58,1.06.79.32,2.6,1.14,4.02,1.81,1.42.67,5.68,2.45,9.47,3.96,3.79,1.51,7.53,3.03,8.32,3.39,2.46,1.13,3.63,1.62,6.89,2.88,1.74.67,3.67,1.47,4.3,1.78,1.31.64,3.11,1.29,14.34,5.17,4.42,1.53,8.35,2.84,8.73,2.91s2.32.66,4.3,1.31c5.03,1.64,9.66,3.01,11.35,3.35,3.38.67,5.04,1.06,10.26,2.4,4.63,1.19,14.53,2.84,21.58,3.61,2.63.29,12.27.93,21.52,1.44,9.09.5,52.77.39,55.08-.14.79-.18,3.89-.51,6.89-.72,4.24-.31,14.47-2.61,15.27-3.44.08-.08.29-1.5.47-3.17l.33-3.03-4.74-2.27c-6.1-2.93-7.57-3.47-14.49-5.33-8.49-2.28-22.13-5.49-25.52-6-1.11-.17-2.8-.54-3.75-.82-.95-.28-3.53-.82-5.74-1.21-2.21-.38-4.79-.92-5.74-1.2-.95-.28-2.58-.64-3.62-.8-1.04-.16-3.11-.58-4.59-.94-1.48-.36-6.57-1.6-11.3-2.76-7.86-1.92-15.82-4.12-23.65-6.54-1.65-.51-3.33-.99-3.73-1.06-4.98-.87-29.63-9.83-33.95-12.32-.6-.35-1.89-1.09-2.87-1.66-4.91-2.83-10.4-6.12-13.71-8.22-2.36-1.49-3.65-2.27-10.17-6.08-2.36-1.38-5.92-3.57-7.9-4.84s-4.5-2.85-5.59-3.5c-1.1-.65-2.96-1.75-4.15-2.45-1.18-.7-3.7-2.15-5.59-3.22-1.89-1.07-5.12-2.89-7.17-4.05-2.05-1.16-5.8-3.21-8.32-4.55-5.67-3.02-13.11-7.06-20.66-11.23-3.15-1.74-8.84-4.83-12.62-6.85-27.6-14.77-31.61-17.58-36.85-25.73-2.12-3.3-2.83-8.01-1.48-9.74.34-.43.97-1.98,1.39-3.44.79-2.75,8.38-11.21,13.28-14.78,7.75-5.66,14.18-10.19,14.47-10.19.49,0,3.99-2.59,4.22-3.12.11-.24.41-.45.68-.45s1.99-1.03,3.82-2.28c1.84-1.26,4.63-3.02,6.21-3.92,1.58-.9,3.28-2.01,3.78-2.47.5-.46,1.21-.83,1.58-.83s.67-.22.67-.5.58-.77,1.29-1.11c5.57-2.65,28.14-22.26,31.52-27.39,1.01-1.53,2.04-2.87,2.3-2.98.26-.11.46-.56.46-.99s.19-.88.43-.99c.49-.23,5.31-7.35,5.31-7.85,0-.18,1.13-2.82,2.51-5.85,2.26-4.97,3.75-9.34,4.62-13.53.17-.82.68-3.23,1.13-5.35,1.86-8.71,2.29-39.18.64-45.75-.12-.49-.39-2.23-.61-3.86-1.34-10.39-1.21-9.82-3.99-18.42-1.16-3.59-2.21-6.94-2.32-7.43-.49-2.03-12.04-24.73-13.45-26.44-.54-.66-1.12-1.59-1.29-2.09-.33-.98-9.43-13.57-10.51-14.55-.36-.32-1.33-1.53-2.14-2.67-1.89-2.65-14.74-16.31-16-17-.53-.29-1.95-1.46-3.16-2.61-1.21-1.15-3.36-3.01-4.78-4.14-1.42-1.13-3.48-2.93-4.57-4-1.1-1.08-2.17-1.95-2.4-1.95s-.75-.34-1.17-.75c-.42-.41-2.24-1.79-4.06-3.07-1.81-1.28-3.3-2.55-3.3-2.82s-.36-.5-.79-.5-1.11-.41-1.51-.9c-.68-.85-11.67-8.64-12.9-9.14-.31-.13-1.48-.95-2.58-1.83-3.85-3.06-16.78-10.27-26.1-14.56-3.95-1.82-14.87-5.58-20.37-7.02-16.87-4.41-18.62-4.5-98.79-4.81-38.08-.15-69.34-.16-69.46-.03m558.98.3c-12.15.2-22.48.53-22.95.73-.47.2-1.87.52-3.11.7-8.81,1.33-18.45,5.12-29.11,11.46-4.09,2.43-13.4,9.94-17.85,14.41l-4.52,4.54,1.76,1.95c.97,1.08,1.76,2.17,1.76,2.43s3.42.44,7.6.38c11.61-.14,17,2.2,17.9,7.77.4,2.48.52,149.01.13,153.74-.41,4.88-.46,35.66-.13,75.46.69,82.71,1.07,136.21,1.16,161.9.05,14.87.26,33.72.46,41.89.47,19.39-.24,22.82-5.9,28.67-1.86,1.92-9.26,8-11.4,9.36-.52.33-1.06.75-1.22.93-.16.18-1.75,1.47-3.54,2.85-3.71,2.87-5.07,5.34-5.07,9.15,0,4.83,4.51,5.68,29.84,5.64,20.7-.03,32.42-.83,38.16-2.6,1.58-.49,4.29-1.31,6.02-1.83,4.07-1.23,5.62-1.94,7.8-3.59.98-.74,2.08-1.35,2.44-1.35s.66-.24.66-.52.77-.85,1.72-1.26c.95-.41,1.72-.97,1.72-1.26s.39-.52.86-.52.86-.2.86-.45c0-.24.84-1.04,1.86-1.76,4.9-3.47,13.95-14.25,14.89-17.73,3.7-13.75,3.94-18.67,3.43-69.18-.13-12.47.06-19.59.64-24.66.75-6.52.76-8.36.11-13.67-2.05-16.61-2.12-19.05-1.63-57.04.6-46.23.62-85.29.06-103.68-.65-21.34-.59-162.86.08-168.44.57-4.75,2.78-10.46,5.06-13.08.56-.65,1.77-2.11,2.68-3.25.91-1.14,2.59-2.66,3.73-3.37,5.11-3.18,9.57-5.82,9.96-5.9.23-.05.56-.16.72-.24.16-.08.55-.22.86-.3.32-.08.7-.22.86-.3.16-.08.48-.21.72-.27.24-.07,1.08-.41,1.88-.75,1.61-.7,9.08-2.28,13.47-2.85,4.66-.61,29.43-.82,34.71-.3,9.53.94,12.42,1.29,19.51,2.39,15.84,2.46,18.19,3.01,29.8,6.95,6.21,2.11,20.97,9.23,24.99,12.06,1.26.89,3.84,2.64,5.74,3.89,1.89,1.25,3.57,2.42,3.73,2.61.16.18,1.32,1.07,2.58,1.96s3.07,2.32,4.02,3.17c.95.85,3.01,2.66,4.59,4.02,3.58,3.08,12.34,12.22,15.78,16.44,1.42,1.74,2.99,3.59,3.49,4.11.5.51,1.78,2.27,2.84,3.91s2.39,3.48,2.96,4.11c.56.63,1.17,1.63,1.36,2.23.18.6.55,1.09.83,1.09s.67.58.89,1.29c.22.71,1.32,2.78,2.46,4.6,5.19,8.34,11.99,23.98,14.49,33.32,1.5,5.59,2.61,10.55,3.32,14.85.35,2.12.8,4.66.99,5.65,1.51,7.75.7,28.62-1.52,39.21-2.31,11.02-10.47,32.54-12.69,33.47-.26.11-.48.51-.48.89-.01.73-6.03,9.88-10.22,15.53-3.64,4.91-16.4,17.86-19.04,19.33-.58.32-1.4.94-1.82,1.37-9.07,9.31-40.19,21.85-63.59,25.62-7.33,1.18-9.53,1.5-16.64,2.41-22.63,2.89-29.04,17.47-11.53,26.19,6.74,3.36,7.03,3.49,10.95,5.05,1.74.69,3.93,1.62,4.88,2.07.95.45,3.92,1.64,6.6,2.65,2.68,1,5.91,2.32,7.17,2.94,2.72,1.32,8.72,4.16,12.34,5.85,1.42.66,4.58,2.16,7.01,3.34,2.44,1.18,4.56,2.14,4.72,2.14s1.65.66,3.32,1.46c1.66.8,5.33,2.43,8.13,3.62,2.81,1.19,5.52,2.4,6.02,2.68.51.29,2.86,1.34,5.22,2.35,2.37,1.01,4.75,2.09,5.3,2.4.55.31,1.25.57,1.56.57s2.58.95,5.03,2.11c2.45,1.16,4.97,2.32,5.61,2.57.63.25,2.31,1.01,3.73,1.69,1.42.67,4.78,2.22,7.46,3.43,6.95,3.13,8.64,3.93,16.35,7.76,11.5,5.7,13.52,6.77,22.95,12.16,9.9,5.66,33.85,17.7,42,21.11,2.59,1.08,5.62,2.39,6.74,2.9,1.12.51,2.88,1.32,3.92,1.79,4.59,2.09,24.17,9.81,31.98,12.61,1.42.51,2.97,1.07,3.44,1.25.47.18,1.05.39,1.29.46.24.07.5.18.58.25.08.07.53.2,1,.3.47.1,2.28.64,4.02,1.2,1.74.56,4.71,1.52,6.6,2.12,14.65,4.7,36.14,8.87,50.49,9.81,3.47.22,7.34.51,8.61.64,5.23.52,52.1.7,57.66.22,3.31-.29,7.87-.68,10.14-.87,2.26-.19,6.13-.9,8.61-1.57,2.47-.67,4.88-1.29,5.36-1.38.62-.11.91-1.09,1.03-3.44l.17-3.28-3.61-1.83c-8.37-4.23-20.49-7.69-42.05-12-11.94-2.38-18.46-3.81-27.26-5.98-3.94-.97-7.82-1.92-8.61-2.11-3.5-.83-5.75-1.42-10.04-2.63-2.52-.71-5.62-1.54-6.89-1.85-2.07-.51-10.87-3.24-18.36-5.7-1.58-.52-3-.94-3.16-.93-.25.01-8.99-3.18-14.92-5.45-2.63-1.01-11.66-5.97-14.8-8.13-1.36-.93-2.6-1.7-2.75-1.7s-1.65-.9-3.32-2.01c-1.67-1.1-3.59-2.19-4.27-2.42-.69-.22-1.25-.66-1.25-.96s-.23-.56-.52-.56c-.55,0-8.73-4.73-9.23-5.33-.34-.41-7.44-4.77-7.77-4.77-.13,0-3.53-1.96-7.56-4.34-4.03-2.39-7.72-4.54-8.19-4.77-.48-.23-3.19-1.74-6.02-3.35-2.84-1.61-7.23-4.03-9.76-5.36-2.52-1.34-7.17-3.86-10.33-5.61-5.76-3.18-9.51-5.21-24.96-13.52-11.33-6.09-15.05-8.2-16.06-9.09-.47-.41-1.7-1.19-2.73-1.73-3.12-1.64-9.59-7.78-11.59-11-2.87-4.64-2.73-8.17.64-15.79,1.92-4.35,13.9-14.58,26.3-22.45,2.05-1.3,3.86-2.55,4.02-2.79.16-.23,1.58-1.2,3.15-2.15,1.58-.95,4.07-2.53,5.54-3.51,1.47-.98,4.17-2.73,6.01-3.87,1.83-1.14,5.45-3.68,8.04-5.65,2.59-1.96,5.27-3.96,5.96-4.45.68-.49,1.8-1.39,2.49-2,.68-.61,2.27-1.79,3.53-2.63,3.71-2.45,15.12-14.35,17.79-18.54,1.35-2.12,3.03-4.53,3.73-5.35,1.27-1.48,3.72-6.54,6.52-13.44,1.28-3.17,3.36-10.47,4.08-14.4.13-.7.36-1.48.52-1.74.38-.63,1.73-18.76,1.72-22.99-.01-2.76-.93-19.11-1.14-20.2-.12-.65-.5-3.68-.83-6.72-.51-4.67-1.13-7.68-3.08-14.96-.13-.49-.28-.89-.33-.89-.05,0-.17-.4-.28-.89-1.14-5.19-4.36-12.62-12.18-28.1-2.8-5.54-7.71-12.94-14.39-21.68-1.67-2.19-3.61-4.77-4.3-5.71-2.92-4-14.24-15.13-20.56-20.22-2.01-1.61-3.9-3.23-4.22-3.6-.32-.37-2.64-2.26-5.16-4.2-2.52-1.94-4.72-3.67-4.88-3.84-1.55-1.7-19.22-14.25-20.06-14.25-.27,0-.58-.23-.69-.51-.61-1.6-28.16-16.73-30.48-16.73-.43,0-.97-.18-1.19-.41-.22-.23-.95-.5-1.63-.61-.67-.11-1.51-.41-1.85-.68-1.01-.8-12.26-4.17-17.26-5.17-1.26-.26-2.42-.5-2.58-.54-1.88-.52-4.43-.91-7.75-1.2-2.21-.19-6.08-.59-8.61-.89-5.41-.65-133.54-1.08-165.53-.56" style="fill: #045484; fill-rule: evenodd; stroke-width: 0px;"/>
    <path id="path1" d="m1363.47,195.07c-64.82,14.41-69.61,110.63-6.6,132.44,46.63,16.14,93.06-27.88,83.13-78.81-4.82-24.75-20.93-43.87-43.58-51.71-9.45-3.28-23.23-4.08-32.95-1.92m26.56,15.11c44.74,13.76,50.88,77.89,9.59,100.13-40.81,21.99-86.26-20.38-71.01-66.2,8.77-26.37,36.39-41.62,61.42-33.92m-42.05,50.51v36h17.79v-26.74h4.05c7.02,0,9.27,2.22,14.87,14.64,2.04,4.53,4.2,9.1,4.79,10.16l1.08,1.93h9.41c5.18,0,9.41-.1,9.41-.22,0-4.35-14.44-30.17-17.97-32.14l-2.07-1.15,3.34-2.19c6.11-4,7.8-7.6,7.8-16.58,0-16.08-5.25-19.11-33.71-19.47l-18.79-.24v35.99m30.64-21.01c2.91,1.51,4.07,3.76,4.05,7.89-.04,6.64-2.84,8.71-11.75,8.71h-5.15v-17.96l5.59.25c3.28.14,6.29.6,7.26,1.11" style="fill: #c44444; fill-rule: evenodd; stroke-width: 0px;"/>
    <path id="path2" d="m682.69,315.69c1.55,1.63,2.96,2.97,3.11,2.97s-.99-1.34-2.54-2.97c-1.55-1.63-2.96-2.97-3.11-2.97s.99,1.34,2.54,2.97" style="fill: #0c5484; fill-rule: evenodd; stroke-width: 0px;"/>
    <path id="path3" d="m422.34,247.19c.71.14,1.87.14,2.58,0,.71-.14.13-.26-1.29-.26s-2,.12-1.29.26m37.01,0c.87.14,2.29.14,3.16,0,.87-.13.16-.25-1.58-.25s-2.45.11-1.58.25m543.07,0c.71.14,1.87.14,2.58,0,.71-.14.13-.26-1.29-.26s-2,.12-1.29.26m37.01,0c.87.13,2.16.13,2.87,0,.71-.14,0-.25-1.58-.25-1.58,0-2.16.12-1.28.26m218.17,62.55c1.55,1.63,2.96,2.97,3.11,2.97s-.99-1.34-2.54-2.97c-1.55-1.63-2.95-2.97-3.11-2.97s.99,1.34,2.54,2.97m-69.43,16.04c1.55,1.63,2.96,2.97,3.11,2.97s-.99-1.34-2.54-2.97c-1.55-1.63-2.96-2.97-3.11-2.97s.98,1.34,2.54,2.97m-260.64,46.34c0,1.14.12,1.61.26,1.04.14-.57.14-1.51,0-2.08-.14-.57-.26-.1-.26,1.04m-497.42,85.85c0,1.63.11,2.23.25,1.33.13-.9.13-2.24,0-2.97-.14-.73-.24,0-.24,1.64m-83.23,111.4c0,1.14.12,1.61.26,1.04.14-.57.14-1.51,0-2.08-.14-.57-.26-.1-.26,1.04m581.32,94.47c0,4.41.09,6.22.2,4.01.11-2.21.11-5.81,0-8.02-.11-2.21-.2-.4-.2,4.01m-579.6,62.38c0,1.14.12,1.61.26,1.04.14-.57.14-1.51,0-2.08-.14-.57-.26-.11-.26,1.04" style="fill: #044c88; fill-rule: evenodd; stroke-width: 0px;"/>
    <path id="path4" d="m422.34,247.19c.71.14,1.87.14,2.58,0,.71-.14.13-.26-1.29-.26s-2,.12-1.29.26m37.01,0c.87.14,2.29.14,3.16,0,.87-.13.16-.25-1.58-.25s-2.45.11-1.58.25m543.07,0c.71.14,1.87.14,2.58,0,.71-.14.13-.26-1.29-.26s-2,.12-1.29.26m37.01,0c.87.13,2.16.13,2.87,0,.71-.14,0-.25-1.58-.25-1.58,0-2.16.12-1.28.26m218.17,62.55c1.55,1.63,2.96,2.97,3.11,2.97s-.99-1.34-2.54-2.97c-1.55-1.63-2.95-2.97-3.11-2.97s.99,1.34,2.54,2.97m-69.43,16.04c1.55,1.63,2.96,2.97,3.11,2.97s-.99-1.34-2.54-2.97c-1.55-1.63-2.96-2.97-3.11-2.97s.98,1.34,2.54,2.97m-260.64,46.34c0,1.14.12,1.61.26,1.04.14-.57.14-1.51,0-2.08-.14-.57-.26-.1-.26,1.04m-497.42,85.85c0,1.63.11,2.23.25,1.33.13-.9.13-2.24,0-2.97-.14-.73-.24,0-.24,1.64m-83.23,111.4c0,1.14.12,1.61.26,1.04.14-.57.14-1.51,0-2.08-.14-.57-.26-.1-.26,1.04m581.32,94.47c0,4.41.09,6.22.2,4.01.11-2.21.11-5.81,0-8.02-.11-2.21-.2-.4-.2,4.01m-579.6,62.38c0,1.14.12,1.61.26,1.04.14-.57.14-1.51,0-2.08-.14-.57-.26-.11-.26,1.04" style="fill: #044c88; fill-rule: evenodd; stroke-width: 0px;"/>
  </g>
</svg>