<?xml version="1.0" encoding="utf-8"?>
<!-- Generator: Adobe Illustrator 27.4.0, SVG Export Plug-In . SVG Version: 6.00 Build 0)  -->
<svg version="1.1" id="レイヤー_1" xmlns="http://www.w3.org/2000/svg" xmlns:xlink="http://www.w3.org/1999/xlink" x="0px"
	 y="0px" width="1800px" height="960px" viewBox="0 0 1800 960" enable-background="new 0 0 1800 960" xml:space="preserve">
<g>
	<path fill="#BDB0A9" d="M636.13,538.35c-0.07-0.44-0.12-0.89-0.17-1.33c1.21-5.27,5.63-3.48,8.8-3.66
		c11.49-0.65,13.98-3.54,11.17-14.58c-0.64-2.52,1.25-4.37,0.82-6.36c-4.73-2.08-10.86,2.33-14.22-3.9
		c3.62-0.66,7.24-1.31,10.86-1.97c3.27-0.94,6.54-1,9.81,0.03c2.22,0.87,3.03,2.69,3.3,4.88c-0.02,1.07-0.04,2.13-0.06,3.2
		c0.91,3.71,0.97,7.41-0.03,11.12c-2.22,3.22-2.72,7.59-6.5,9.78C653.68,542.65,643.21,543.87,636.13,538.35z"/>
	<path fill="#EFEEEF" d="M1414.48,419.47c-3.18-0.02-6.35-0.03-9.53-0.05c-0.09-0.51-0.18-1.02-0.27-1.53
		c0.7-0.79,1.56-1.36,2.56-1.72c8.38-1.61,16.86-0.74,25.29-0.78c26.95-0.12,53.9-0.14,80.85,0.05c3.88,0.03,8.68-1.33,10.84,3.93
		c-7.45,0.03-14.9,0.07-22.36,0.1c-22.24,0-44.48,0-66.73,0c-3.18,1.99-6.35,1.55-9.53,0
		C1421.89,419.47,1418.18,419.47,1414.48,419.47z"/>
	<path fill="#DDDBDA" d="M1255.7,343.14c-2.67,0.08-5.35,0.16-8.02,0.24c-13.77,0-27.54,0-41.3,0c-4.72,0.02-9.44,0.03-14.16,0.05
		c-0.59-1.07-0.38-1.94,0.63-2.62c6.05-2.75,12.48-1.45,18.74-1.55c11.6-0.19,23.22-0.25,34.82,0.06
		C1249.78,339.42,1254.1,338.27,1255.7,343.14z"/>
	<path fill="#D6C8C0" d="M988.72,420.76c3.21-2.07,6.4-2.01,9.56,0.11C995.1,420.84,991.91,420.8,988.72,420.76z"/>
	<path fill="#DACBC4" d="M1015.72,420.86c2.37-2.3,5.32-1.15,8.04-1.34C1021.41,421.94,1018.47,420.86,1015.72,420.86z"/>
	<path fill="#BEB0A7" d="M494.97,692.14c20.78-12.79,39.2-28.13,54.36-47.84c12.25-15.93,25.94-30.86,38.11-46.95
		c10.6-14.02,20.57-28.49,28.28-44.31c1.83-3.74,4.52-5.29,7.71-6.89c7.65-2.97,15.35-6.69,22.21,1.56
		c2.86,2.59,1.13,5.17,0.14,7.89c-5.05,14-13.34,25.96-22.29,37.74c-17.85,23.49-37.81,45.02-59.34,65.05
		c-24.77,23.04-50.53,44.98-77.41,65.56c-17.79,12.79-35.58,25.58-53.38,38.35c-1.27,0.91-2.65,1.66-3.96,2.52
		c-4.02,2.65-8.41,5.41-12.83,1.78c-4-3.29-5.62-7.89-3.36-13.27c0.67-1.6,0.37-3.61,0.51-5.43"/>
	<path fill="#BEB0A7" d="M775.91,622.42c5.61,2.05,11.98,2.6,15.88,8.03c1.19,3.2,1.08,6.42,0.08,9.64c-4.66,7.41-11,5.81-16.4,1.92
		c-8.97-6.46-35.9,3.77-39.29,12.38c-1.57,3.98-5.24,8.19-2.02,12.49c2.96,3.96,7.98,3.74,12.46,3.1c9.57-1.37,19.1-2.97,28.63-4.6
		c15.49-2.65,30.63-6.57,45.09-12.85c2.91-2.2,6.05-2.99,9.55-1.52c1.63,1.99,4.99,0.75,6.29,3.36l0.11-0.14
		c-15.96,6.66-31.44,14.47-47.9,19.95c-16.39,5.45-33.67,10.53-50.23,6.38c-13.66-3.42-25.73-3.88-38.48,0.85
		c-3.22,0.97-6.44,0.93-9.67,0.02c-2.72,0.09-5-1.2-7.42-2.2c-4.94-2.05-6.03-4.93-3.51-9.83c1.37-2.65,4.24-5.55,1.48-9.08
		c-1.36-3.99-6.94-6.88-3.19-12.2c5.2-1.47,10.29-3.44,15.8-3.52c3.19-0.84,6.36-1.27,9.47,0.3c2.18,1.64,3.59,3.12,1.83,6.3
		c-2.52,4.57-4.28,9.54-6.41,14.33c-0.73,1.64-2.38,3.33-1.06,5.06c1.77,2.33,3.81,0.21,5.69-0.31c2.52-0.71,4.98-1.65,7.53-2.24
		c5.04-1.16,6.96-3.76,7.08-9.34c0.27-12.95,10.25-19.18,19.73-25.33c4.33-2.81,9-5.1,13.52-7.62c4.19-1.12,8.38-2.25,12.56-3.37
		C767.38,621.42,771.65,621.36,775.91,622.42z"/>
	<path fill="#BEB0A7" d="M906.08,676.38c-21.92,7.76-40.95,20.82-60.49,32.93c-7.55,4.68-15.32,9.08-22.06,14.97
		c-25.9,16.87-48.82,37.8-74.74,54.64c-2.86,1.86-5.42,5.88-9.29,1.62c-3.7-4.07-1.17-6.88,1.83-10.02
		c15.91-16.69,35.48-28.33,54.6-40.77c12.88-8.38,24.62-18.51,35.62-29.35c0.31-0.83,0.83-0.94,1.52-0.42
		c12.97-10.2,26.09-20.2,38.24-31.4c1.62-5.54,7.32-6.94,10.77-10.64c3.69-1.68,5.71-6.67,10.86-5.47c4.06,2.6,13.15,0.11,10.1,9.92
		c-2.03,3.12-6.53,4.21-6.85,8.75c2.34,1.75,4.55-0.18,6.87-0.77c3.08,0.94,7.58-2.93,9.26,2.73l0.43,0.51
		C911.21,676.2,908.77,676.59,906.08,676.38z"/>
	<path fill="#BEB0A7" d="M1085.55,668.4c-2.01-0.52-4.04-0.99-6.04-1.55c-13.06-3.65-16.76-13.77-8.4-24.03
		c15.02-18.42,32.41-34.47,50.67-49.63c10.88-9.04,21.52-18.37,32.27-27.57c6.54-0.02,2.64-5.08,3.72-7.72
		c1.55-2.71,0.25-4.98-1.14-7.25c0.07-1.68,1.03-2.69,2.5-3.32c1.52-0.14,3.03-0.26,4.51,0.21c3.74,2.24,7.9,1.41,11.91,1.57
		c4.67-0.93,9.87-0.58,11.56-6.97c0.57-2.18,3.47-1.92,5.56-1.09c3.16,1.25,4.63,3.82,3.65,6.92c-1.42,4.49-1.65,10.03-7.9,11.29
		c-1.4,0.28-1.83,1.79-2.69,2.75c-0.5,0.17-1.01,0.29-1.53,0.36c-3.91-0.52-6.58,1.02-7.93,4.76l0.03-0.03
		c-11.89,1.86-18.53,10.69-25.45,19.15c-6.95,9.6-17.78,14.48-26.68,21.71c-12.44,10.1-24.86,20.19-35.87,31.87
		c-1.42,1.51-2.57,3.32-3.65,5.1c-4.43,7.25-2.59,10.46,5.61,11.02c18.44,1.26,35.03-5.35,51.74-11.58
		c1.96-0.73,3.76-2.07,5.76-2.47c3.14-0.63,6.48-0.85,7.85,3.2c1.37,4.08-2.4,3.89-4.35,4.89c-16.21,8.3-33.61,13.1-51.27,17.1
		C1095.3,668.9,1090.23,666.57,1085.55,668.4z"/>
	<path fill="#BEB0A8" d="M1185.72,562c0-2.21,0.28-3.75,3.06-4.6c5.17-1.59,5.4-6.9,6-10.98c0.62-4.19-3.14-4.5-6.48-4.47
		c-0.94,3.1,3.42,1.23,2.85,3.61c-0.63,2.63-2.55,1.7-4.36,1.77c-3.87,0.16-6,5.43-10.61,3.82c-1.25-1.51-1.32-3.03,0-4.54
		c5.9,0.47,8.12-5.21,12.41-7.52c6.96-3.75,9.32-3.28,11.58,3.97c0.75,2.4,2.39,3.31,4.71,3.29c3.68-0.02,7.36-0.1,11.04-0.15
		c3.61-1.2,7.33-0.31,10.99-0.58c4.1,0,8.2,0,12.29,0c4.41-0.34,8.88,0.72,13.25-0.63c4.24-0.14,8.48-0.28,12.72-0.42
		c4.28-1.15,8.64-0.26,12.95-0.54c6.37,0,12.74,0,19.11,0c14.49,0,28.98,0,43.46,0c4.86,0,9.72,0,14.58,0
		c3.31,0.26,6.69-0.59,9.95,0.58c2.11,0.11,4.23,0.22,6.34,0.33c2.48,1.64,5.56-0.27,8.04,1.37c1.59,0.36,3.88-0.56,4.38,1.92
		c0.52,2.59-1.43,2.7-3.29,2.98c-1.97,0.3-3.89,0.89-5.83,1.35c-2.74-1.29-5.65-0.36-8.47-0.65c-4.09,0.37-8.26-0.79-12.28,0.68
		c-5.83,0.12-11.66,0.23-17.49,0.35c-5.61,1.18-11.29,0.27-16.92,0.56c-3.23,0-6.45,0-9.68,0c-4.89,0.34-9.84-0.71-14.69,0.64
		c-4.24,0.12-8.48,0.24-12.73,0.36c-4.13,1.24-8.37,0.29-12.54,0.59c-4.6,0-9.21,0-13.81,0c-4.44,0.34-8.95-0.73-13.34,0.63
		c-4.77,0.13-9.53,0.26-14.3,0.38c-4.53,1.23-9.14,0.27-13.71,0.57c-4.44,0.39-8.96-0.84-13.34,0.72
		C1196.01,557.99,1190.8,559.75,1185.72,562z"/>
	<path fill="#BEB0A7" d="M912.31,673.11c-2.46-3.02-6.77,0.21-9.26-2.73c28.68-15.63,58.35-29.21,89.72-38.28
		c8.57-2.48,18.16-2.65,27.23-4.55c3.2-0.67,7.93,0.36,9.59,4.06c1.3,2.9-0.71,6.21-2.51,8.74c-10.27,14.46-24.95,19.23-41.98,18.68
		c-3.4-0.11-5.11-1.24-3.49-4.86c1.16-2.6,2.29-5.21,3.69-8.4c-5.8-2.63-10.74,0.35-15.26,2.79
		C951.55,658.55,931.79,665.49,912.31,673.11z"/>
	<path fill="#BEB0A7" d="M677.38,648.13c-2.15,4.9,5.34,7.3,3.19,12.2c-19.01,8.12-38.02,16.24-57.04,24.37
		c-2.75,0.7-5.48,0.89-8.2-0.13c-8.26-0.88-8.96-1.96-5.78-9c0.76-1.68,2.1-3.25,2.33-4.98c0.28-2.13,3.24-4.49,0.51-6.36
		c-2.13-1.46-4.73-0.02-6.63,1.32c-8.5,5.99-18.48,8.73-27.76,13c-3.99,1.84-6.85,0.94-10.44-2.16
		c19.89-9.65,39.43-18.41,58.19-28.74c4.82-2.65,9.69-1.23,14.52,0.3c3.27,1.04,4.15,2.76,2.43,5.9c-1.6,2.92-2.87,6.01-4.6,9.69
		c5.45-0.82,8.93-4.96,13.84-4.63c2.15,3.66-0.76,5.57-3.04,6.85c-3.16,1.79-5.3,4.56-7.94,6.92c8-5.35,16.47-9.7,25.61-12.78
		c5.54-1.86,0.62-5.75,1.38-8.57C671.08,650.25,674.23,649.19,677.38,648.13z"/>
	<path fill="#BEB0A7" d="M836.18,654.36c7.3-11.98,16.85-21.89,27.99-30.32c1.44-1.09,3.06-2.22,4.77-2.62
		c3.01-0.7,6.55-1.65,8.92,1c2.93,3.28-1.16,5.45-2.55,7.19c-9.33,11.6-18.99,22.94-28.86,34.09c-1.67,1.89-3.18,6.46-7.34,3.48
		c-3.66-2.62-6.21-5.84-3.22-10.65c0.38-0.62,0.28-1.53,0.4-2.31C836.29,654.22,836.18,654.36,836.18,654.36z"/>
	<path fill="#BEB0A7" d="M1049.11,624.13c0.55-0.47,1.09-0.94,1.64-1.42c3.35-2.48,6.36-5.36,10.37-7.02
		c3.28-1.36,6.07-0.1,7.93,1.59c2.1,1.92-0.24,4.64-1.58,6.26c-10.2,12.33-20.7,24.42-30.93,36.73c-1.98,2.39-3.94,2.1-6.27,1.28
		c-2.58-0.91-3.39-2.75-3.46-5.47c-0.27-10.11,7.47-15.81,12.59-22.85C1041.96,629.71,1045.83,627.13,1049.11,624.13z"/>
	<path fill="#BFAFA6" d="M1157.13,551.14c4.64,1.09,6.59,2.85,1.59,6.35c-4.88,3.25-10.12,5.19-16.13,4.83
		c-2.89-0.17-5.79,0.14-7.7,2.85c-5.77,0.4-11.53,1.16-16.5-3.15c-5.63-4.88-5.47-10.53,0.7-15.39c3.73,1.19,7.57,0.27,11.35,0.56
		c2.58,0,5.16,0,7.73,0c3.83,0.01,7.66-0.03,11.48,0.02C1152.29,548.26,1155.06,549.04,1157.13,551.14z"/>
	<path fill="#BEB0A7" d="M867.98,663.7c-3.33,0.39-6.25,0.15-7.54-3.77c-1.19-3.65,0.62-5.91,3.04-8.2
		c6.21-5.87,12.72-10.78,22.05-8.3c7.45-0.02,14.14,3.63,21.45,4.38c2.86,0.29,6.05,0.75,5.62,4.98l0.01-0.02
		c-6.38,7.94-12.22,1.13-18.24-0.66c-5.64-1.75-8.84,3.23-13.26,4.83C876.5,658.72,873.87,664.38,867.98,663.7z"/>
	<path fill="#BEB0A7" d="M882.24,616.37c-9.56-4.64-10.29-10.92-1.99-16.73c4.55-3.18,9.27-5.97,14.71-7.36
		c2.65-0.85,5.29-1.35,7.84,0.29c0.72,1.5,2.85,3.14,0.71,4.66c-6.68,4.74-8.55,12.26-11.61,19.12
		C888.68,617.31,885.46,617.29,882.24,616.37z"/>
	<path fill="#BEB0A8" d="M1072.94,611.55c-7.79-4.04-8.86-11.43-2.21-16.42c6.13-4.61,12.57-8.53,20.85-7.49
		c4.7,0.59,4.86,3.7,2.23,5.76c-5.26,4.12-8.98,8.51-8.76,15.56c0.03,0.88-1.7,1.81-2.62,2.71
		C1079.27,612.45,1076.1,612.63,1072.94,611.55z"/>
	<path fill="#BDB0A8" d="M912.61,652.79c-0.91-1.72-2.39-3.66-4.17-3.06c-7.23,2.4-12.76-6.35-20.12-2.89
		c-0.32,0.15-1.82-2.22-2.77-3.41c5.64-3.19,11.33-6.3,16.92-9.59c4.98-2.93,9.89-3.86,14.92-0.23c1,3.73,1.01,7.46,0,11.19
		C915.23,647.13,916.33,651.39,912.61,652.79z"/>
	<path fill="#BEB0A7" d="M667.93,651.32c5.95,6.41,4.91,8.17-3.01,11.22c-6.12,2.36-12.62,4.41-17.91,8.97
		c-3.01,2.59-7.01,4.83-11.83,2.4c5.56-5.24,13.05-8.06,16.75-15.01c0.56-0.43,1.12-0.86,1.69-1.29c2.21,0.89,3.42-0.54,4.62-1.98
		C660.89,652.89,664.68,652.7,667.93,651.32z"/>
	<path fill="#BEB0A8" d="M1150.84,586.23c-1.93-4.7,2.94-8.5,4.47-9.31c6.79-3.57,11.09-13.06,20.98-9.84
		C1167.81,573.46,1159.32,579.85,1150.84,586.23z"/>
	<path fill="#BEB0A8" d="M1134.89,565.17c0.14-1.78,0.1-4.55,2.28-4.17c7.69,1.35,14.17-3.68,21.55-3.51c0.5,2.2,1.2,4.39,1.44,6.62
		c0.24,2.16-1.59,3.02-3.24,3.7c-2.1,0.87-2.66-0.48-2.86-2.19c0,0-0.28-0.35-0.28-0.35c-1.12-4.51-3.95-1.89-6.25-1.49
		C1143.31,564.24,1139.1,564.71,1134.89,565.17z"/>
	<path fill="#BDB0A8" d="M894.87,649.56c5.34,4.23,10.94,7.05,17.75,3.21c-1.44,4.96-4.78,8.02-9.59,9.63
		c0.12-4-1.22-6.65-5.81-6.55c-2.32,0.05-4.97,0.41-5.38-3.04C891.97,650.91,893.9,650.68,894.87,649.56z"/>
	<path fill="#CDC7C2" d="M1341.47,544.69c-14.87,0.01-29.73,0.02-44.6,0.02c-0.49-0.35-0.64-0.68-0.44-0.97
		c0.19-0.28,0.37-0.42,0.55-0.42c14.79-0.01,29.59-0.01,44.38-0.02c0.53,0.27,0.72,0.57,0.58,0.89
		C1341.79,544.53,1341.63,544.69,1341.47,544.69z"/>
	<path fill="#BFAFA6" d="M1176.19,546.6c0,1.51,0,3.03,0,4.54c-4.17-1.31-9.71,3.08-12.71-3.07c1.8-1.89,4.56,0.05,6.43-1.59
		C1172,546.52,1174.1,546.56,1176.19,546.6z"/>
	<path fill="#BEB0A8" d="M1176.27,567.11c-0.41-6.65,2.09-8.48,7.93-4.76C1181.55,563.94,1178.91,565.53,1176.27,567.11z"/>
	<path fill="#DFDBD6" d="M1296.98,543.32c-0.04,0.47-0.08,0.93-0.12,1.4c-6.36-0.03-12.72-0.07-19.08-0.1
		c-0.47-0.34-0.6-0.66-0.42-0.96c0.18-0.28,0.35-0.42,0.53-0.42C1284.26,543.27,1290.62,543.29,1296.98,543.32z"/>
	<path fill="#F5ECE6" d="M1319.24,552.89c5.79,0.01,11.59,0.03,17.38,0.04c-5.64,2.95-11.68,0.7-17.5,1.33
		c-0.5-0.35-0.65-0.67-0.45-0.96C1318.86,553.03,1319.05,552.89,1319.24,552.89z"/>
	<path fill="#DFDDDC" d="M1169.91,546.48c-1.74,2.17-4.25,1.21-6.43,1.59c-1.61,0.04-3.21,0.07-4.82,0.11
		c-1.44,0.76-2.91,1.23-4.48,0.33c-0.44-0.41-0.62-0.85-0.54-1.32c0.08-0.49,0.18-0.73,0.3-0.73
		C1159.27,546.47,1164.59,546.47,1169.91,546.48z"/>
	<path fill="#DEDBD9" d="M1153.95,546.46c0,0.46,0.01,0.92,0.01,1.38c-0.99,0.96-2.05,1.09-3.18,0.24
		c-4.23-0.05-8.46-0.1-12.69-0.14c-0.53-0.33-0.71-0.66-0.55-1.01c0.17-0.35,0.33-0.52,0.51-0.52
		C1143.35,546.43,1148.65,546.45,1153.95,546.46z"/>
	<path fill="#E3DBD4" d="M1085.55,668.4c4.59-2.83,9.62-0.91,14.43-1.34C1095.4,669.98,1090.37,668.07,1085.55,668.4z"/>
	<path fill="#F2EAE5" d="M1214.41,556.06c4.73,0.01,9.47,0.02,14.2,0.03c-4.56,2.78-9.56,0.82-14.33,1.35
		c-0.51-0.36-0.66-0.68-0.45-0.97C1214.02,556.2,1214.21,556.06,1214.41,556.06z"/>
	<path fill="#E0DCD9" d="M1255.69,554.4c4.76,0.02,9.53,0.04,14.29,0.06c0.48,0.35,0.62,0.67,0.43,0.96
		c-0.18,0.28-0.36,0.42-0.54,0.42c-4.77-0.02-9.54-0.04-14.31-0.05c-0.48-0.36-0.62-0.68-0.42-0.98
		C1255.32,554.53,1255.5,554.4,1255.69,554.4z"/>
	<path fill="#D1C4BF" d="M1295.33,554.13c4.55-2.81,9.56-0.83,14.33-1.36c0.51,0.35,0.66,0.67,0.46,0.96
		c-0.19,0.27-0.38,0.41-0.57,0.41C1304.81,554.14,1300.07,554.13,1295.33,554.13z"/>
	<path fill="#DCD8D3" d="M1341.47,544.69c-0.04-0.46-0.07-0.93-0.11-1.39c4.77-0.02,9.54-0.04,14.3-0.06
		c0.51,0.26,0.7,0.55,0.56,0.86c-0.14,0.33-0.28,0.5-0.44,0.5C1351.01,544.64,1346.24,544.66,1341.47,544.69z"/>
	<path fill="#DCD5CF" d="M1214.41,556.06c-0.06,0.46-0.1,0.92-0.13,1.39c-4.24-0.02-8.48-0.04-12.72-0.06
		C1205.59,554.52,1210.11,556.32,1214.41,556.06z"/>
	<path fill="#F1EFEB" d="M1269.86,555.84c0.03-0.46,0.07-0.92,0.11-1.39c4.21,0.01,8.42,0.03,12.63,0.04
		C1278.61,557.3,1274.11,555.34,1269.86,555.84z"/>
	<path fill="#CEC7C3" d="M1255.69,554.4c-0.04,0.46-0.08,0.93-0.13,1.39c-4.22-0.02-8.43-0.05-12.65-0.07
		C1246.92,552.93,1251.43,554.86,1255.69,554.4z"/>
	<path fill="#C9C5C0" d="M1354.11,552.59c4.01-2.87,8.53-0.9,12.79-1.35c0.47,0.36,0.61,0.69,0.41,0.98
		c-0.18,0.28-0.37,0.42-0.54,0.42C1362.55,552.62,1358.33,552.6,1354.11,552.59z"/>
	<path fill="#FAFBF1" d="M829.89,651c-3.18,0.51-6.37,1.02-9.55,1.52c1.77-5.48,6.37-1.98,9.54-3
		C829.88,650.02,829.88,650.51,829.89,651z"/>
	<path fill="#D2C6C3" d="M1252.45,544.98c-4.01,2.78-8.52,0.84-12.77,1.33c-0.49-0.35-0.64-0.68-0.44-0.98
		c0.19-0.28,0.37-0.43,0.56-0.43C1244.01,544.93,1248.23,544.96,1252.45,544.98z"/>
	<path fill="#E4D9D5" d="M1239.79,544.91c-0.04,0.47-0.08,0.93-0.11,1.4c-4.24-0.02-8.47-0.03-12.71-0.04
		c-0.49-0.35-0.63-0.68-0.44-0.98c0.19-0.29,0.37-0.43,0.55-0.43C1231.32,544.88,1235.56,544.89,1239.79,544.91z"/>
	<path fill="#EDEEEB" d="M1277.9,543.25c-0.03,0.46-0.06,0.92-0.11,1.38c-4.21-0.02-8.41-0.03-12.62-0.05
		C1269.18,541.85,1273.66,543.79,1277.9,543.25z"/>
	<path fill="#F2E9E4" d="M1147.52,563.78c1.99-2.25,4.98-2.12,7.02-1.36c3.51,1.32,0.52,2.11-0.77,2.85
		C1152.11,563.01,1149.62,564.21,1147.52,563.78z"/>
	<path fill="#E4DDD9" d="M917.37,644.8c0-3.73,0-7.46,0-11.19C919.69,637.34,919.67,641.07,917.37,644.8z"/>
	<path fill="#F4EEE9" d="M1227.08,544.86c-0.03,0.47-0.07,0.94-0.11,1.41c-3.68-0.02-7.37-0.05-11.05-0.07
		C1219.37,543.5,1223.36,545.28,1227.08,544.86z"/>
	<path fill="#B8B5B5" d="M1130.13,547.96c-3.67-0.54-7.62,1.27-11.04-1.33c3.67-0.06,7.34-0.12,11.01-0.18
		c0.53,0.32,0.72,0.65,0.55,0.99C1130.47,547.79,1130.3,547.96,1130.13,547.96z"/>
	<path fill="#DFD7D2" d="M702.66,644.91c-3.16-0.1-6.31-0.2-9.47-0.3C696.41,642.66,699.59,641.99,702.66,644.91z"/>
	<path fill="#E1D8D2" d="M1309.55,554.14c0.04-0.46,0.08-0.91,0.11-1.37c3.19,0.04,6.38,0.08,9.58,0.12
		c-0.05,0.46-0.09,0.92-0.12,1.37C1315.93,554.22,1312.74,554.18,1309.55,554.14z"/>
	<path fill="#DEDBD9" d="M690.02,681.43c3.22-0.01,6.45-0.02,9.67-0.03C696.47,683.6,693.25,683.55,690.02,681.43z"/>
	<path fill="#F3EEEA" d="M1072.94,611.55c3.17,0.04,6.33,0.08,9.5,0.11C1079.25,613.71,1076.08,613.81,1072.94,611.55z"/>
	<path fill="#E4DDD6" d="M882.24,616.37c3.22,0,6.44-0.01,9.66-0.01C888.68,618.56,885.46,618.5,882.24,616.37z"/>
	<path fill="#EEEBEA" d="M1355.79,544.61c-0.05-0.45-0.09-0.91-0.12-1.36c3.19,0.39,6.67-1.18,9.56,1.36
		C1362.08,544.6,1358.93,544.61,1355.79,544.61z"/>
	<path fill="#D8CBC3" d="M1379.61,546.3c-2.73-0.17-5.68,0.99-8.04-1.37C1374.31,544.99,1377.26,543.88,1379.61,546.3z"/>
	<path fill="#D9D3CF" d="M615.33,684.57c2.73,0.04,5.47,0.08,8.2,0.13C620.76,686.78,618.03,686.62,615.33,684.57z"/>
	<path fill="#CAC7C6" d="M1130.13,547.96c0-0.5-0.01-1.01-0.03-1.51c2.65-0.01,5.3-0.03,7.95-0.05c0.01,0.51,0.03,1.02,0.04,1.53
		C1135.43,547.95,1132.78,547.95,1130.13,547.96z"/>
	<path fill="#DFDBD6" d="M1366.77,552.64c0.05-0.47,0.09-0.94,0.13-1.4c2.69,0.25,5.64-1.12,7.96,1.32
		C1372.17,552.58,1369.47,552.61,1366.77,552.64z"/>
	<path fill="#DFD9D5" d="M902.8,592.58c-2.61-0.1-5.23-0.2-7.84-0.29C897.65,590.31,900.29,589.68,902.8,592.58z"/>
	<path fill="#BEB0A7" d="M658.23,655.63c-0.36,3.41-1.74,4.44-4.62,1.98C655.15,656.95,656.69,656.29,658.23,655.63z"/>
	<path fill="#BFB0A6" d="M761.6,418.09c-2.03-1.8-2.44-3.74,0.48-4.73c8.63-2.93,5.79-8.8,3.53-14.1
		c-7.2-16.91-14.65-33.72-22.06-50.54c-11.95-27.14-23.92-54.27-35.97-81.37c-2.33-5.25-4.49-10.79-10.76-12.85
		c-2.37-0.78-1.86-2.86-1.91-4.66c12.69-2.07,25.45-0.52,38.18-0.81c1.14-0.03,1.71,1.01,1.68,2.2
		c-10.07,7.73-5.25,16.14-1.43,24.82c16.2,36.8,32.19,73.69,48.3,110.52c0.88,2.01,0.58,5.51,3.74,5.25c2.61-0.21,2.9-3.44,3.8-5.49
		c13.62-31.05,27.14-62.15,40.71-93.22c3.68-8.43,7.6-16.75,11.11-25.25c2.15-5.22,4.02-10.69-3.5-13.74
		c-1.71-0.69-1.18-2.74-1.21-4.28c11.39-2,22.86-0.55,34.29-0.79c2.19,1.5,1.89,3.28,0.59,5.18c-10.02,7.42-12.14,19.44-16.86,29.77
		c-16.35,35.84-32.09,71.97-48.03,108c-1.69,3.82-3.15,7.75-4.72,11.62c0.51,4.57,4.75,7.02,6.27,11.01
		c0.01,0.55,0.01,1.1,0.02,1.66c0,1.65-0.96,2.3-2.46,2.28C790.79,418.35,776.18,419.3,761.6,418.09z"/>
	<path fill="#CBC6C4" d="M1106.37,343.39c0-6.41-0.01-12.82-0.01-19.23C1108.78,330.57,1108.79,336.98,1106.37,343.39z"/>
	<path fill="#F0EDEB" d="M906.3,338.48c-0.12,1.07-0.25,2.13-0.37,3.2c-2.19-5.3-2.11-10.61-0.04-15.92
		c1.23,0.92,1.09,2.02,0.42,3.19c0,1.07,0,2.15,0,3.22C907.9,334.29,907.46,336.38,906.3,338.48z"/>
	<path fill="#BFB1A8" d="M906.31,328.96c-0.14-1.06-0.28-2.13-0.42-3.19c0.16-1.03,0.31-2.07,0.47-3.1
		C911.98,324.81,908.89,326.88,906.31,328.96z"/>
	<path fill="#B8B5B5" d="M871.16,249.84c1.05-0.03,2.1-0.06,3.15-0.09c0,2.22,0.44,4.76-3.14,4.47
		C871.17,252.77,871.16,251.3,871.16,249.84z"/>
	<path fill="#D6CCC6" d="M1025.35,248.01c-2.73-0.16-5.68,0.97-8.04-1.37C1020.07,246.66,1023,245.61,1025.35,248.01z"/>
	<path fill="#BFB0A6" d="M1531.92,273.28c-4.9,0.8-4.29-5.21-7.72-6.23c-2.75-1.42-5.7-0.7-8.55-0.71
		c-33.24-0.06-66.48-0.04-99.71-0.04c-0.91-0.01-1.84,0.01-2.75,0.08c-1.63,0.65-3.32,0.99-5.07,0.6c-0.75-0.19-1.45-0.52-2.1-0.94
		c-1-0.8-1.36-2.06-2.17-3.14c-0.75,2.2-0.29,4.59-1.44,6.65c-0.38,0.76-0.76,1.49-1.11,2.26c-1.12,17.18-0.34,34.35-0.46,51.52
		c-0.15,20.35-0.06,40.69-0.01,61.04c0.01,3.14-0.43,6.37,1.09,9.34c0.54,0.81,0.94,1.67,1.25,2.59c0.65,3.62,1.55,7.51-2.48,9.69
		c-3.21,1.74-6.01,0.25-8.22-2.4c0-1.59,0-3.19,0.01-4.78c2.09-3.12,1.32-6.66,1.32-10.03c0.05-41.74,0.02-83.48,0.04-125.22
		c0.01-10.04,2.51-12.53,12.58-12.91c31.18-1.18,62.38-1.04,93.57-0.87c2.92,0.02,7.96-1.95,7.96,3.45c0,4.65-4.49,4.34-7.93,4.35
		c-19.04,0.06-38.09,0.02-57.13,0.03c16.79,0.01,33.57,0.03,50.36,0c6.26-0.01,12.23-0.13,18.42-2.85
		c6.94-3.04,14.6-2.29,20.46,3.97C1533.05,263.59,1533.47,268.45,1531.92,273.28z"/>
	<path fill="#BFB0A6" d="M1489.1,320.96c1.03-1.59,2.06-3.18,3.08-4.77c3.67-1.45,4.14,0.91,4.05,3.56
		c-0.31,8.94,0.86,17.92-0.62,26.84c-4.32,3.01-4.08-0.93-4.91-3.23c-2.95-8.11-11.02-8.29-16.96-8.43
		c-15.41-0.36-31-2.61-46.35,2.03c-5.95,1.8-12.48,0.5-19.16-0.02c3.68,7.1,1.84,14.28,1.99,21.26c0.23,10.53,0.37,21.08-0.1,31.61
		c-0.23,5.05-1.78,9.31-8.35,5.83v0c-1.87-2.25-1.56-4.96-1.57-7.58c-0.03-37.26-0.03-74.51,0-111.77c0-2.62-0.31-5.33,1.57-7.58
		c1.63-1,1.82-4.15,4.77-3.17c3.53,2.75,3.77,6.64,3.78,10.65c0.03,11.26-0.04,22.51,0.04,33.77c0.02,2.86-0.29,5.78,0.96,8.49
		c0.47,0.78,0.6,1.64,0.4,2.53c-2.12,2.04-3.61,3.99,0.73,5.14c4.13,1.09,8.61,1.52,12.47,0.37c13.68-4.09,27.58-1.5,41.35-2.19
		c5.23-0.26,10.51-0.3,15.74,0.1C1485.22,324.64,1487.71,324.14,1489.1,320.96z"/>
	<path fill="#BFAFA7" d="M1531.98,259.19c-8.38-3.81-16.64-5.41-25.3-0.28c-1.97,1.17-5.18,0.27-7.83,0.27
		c-20.09,0.01-40.18,0.03-60.27-0.02c-2.43-0.01-5.09,0.64-7.98-1.53c3.1-2.37,6.04-1.57,8.69-1.58
		c19.56-0.08,39.12-0.04,58.68-0.05c1.85,0,3.7-0.03,5.55-0.09c1.83-0.06,3.2-1.12,3.3-2.79c0.15-2.49-2.07-1.89-3.44-1.84
		c-25.3,0.87-50.65-1.75-75.94,1.35c-7.03,0.86-14.26,0.16-21.39,0.21c-9.24,0.06-10.62,1.38-10.63,10.53
		c-0.03,42.51,0.02,85.01-0.09,127.52c-0.01,2.77,1.84,6.65-2.86,7.91c-0.08-42.66-0.16-85.32-0.24-127.97
		c-0.01-6.76,1.41-14.05-7.22-17.32c-0.6-0.23-0.45-2.39-0.66-3.66c6.91-2.04,13.99-0.42,20.97-0.95c36.23,0,72.45,0.02,108.68-0.04
		c2.85,0,5.82,0.72,8.57-0.74c1.54-0.59,3.09-1.17,4.63-1.76c3.39,1.2,4.39,4.24,5.54,7.16
		C1532.59,255.44,1533.42,257.47,1531.98,259.19z"/>
	<path fill="#BFAFA7" d="M1401.77,395.65c4.72,0.6,6.5-1.26,6.45-6.2c-0.16-15.02,0.03-30.05,0.37-45.07
		c0.05-2.24-0.78-3.26-2.14-4.59c-2.43-2.38-1.64-5.23-0.81-8.1c7.6,6.1,16.11,4.46,24.05,2.28c3-0.82,5.88-1.74,8.96-1.76
		c10.56-0.07,21.21,0.79,31.66-0.31c7.14-0.75,12.26,4.23,19.11,4.15c4.05-0.05,0.38,4.84,1.28,7.32c-1.58-1.14-3.16-2.28-4.73-3.41
		c-24.05-1.38-48.12-0.48-72.19-0.47c-0.97,0-1.2,0.85-1.64,1.46c-0.16,19.62-0.06,39.23-0.04,58.83c0.22,4.12-5.58,4.68-5.27,8.86
		c-0.26,1.15-0.69,2.21-1.42,3.14c-1.77,1.54-3.91,1.28-5.82,1.25c2.26,0.78,6.89-0.97,5.26,4.62l0.16,0.43
		c-6.91,0.72-13.81,1.33-20.67-0.39c-0.13-2.1-0.19-4.05,2.37-5c4.14-1.55,5.5-5.01,5.75-9.09
		C1401.71,406.11,1401.71,406.11,1401.77,395.65z"/>
	<path fill="#BFB0A5" d="M1404.86,417.64c-1.93-6.37-8.78-0.25-12.04-5.1c4.12-1.82,8.22-0.69,12.13-1.03c2.6-2.37,5.84-2.21,9-2.21
		c36.48-0.03,72.96-0.05,109.45,0c0.79,0,1.59-0.01,2.38,0.07c3.46,0.35,7.36,0.44,7.41,5.23c0.05,5.2-3.94,4.63-7.4,4.57
		c-0.53,0.07-1.05,0.13-1.58,0.2c-2.65-2.67-6.02-1.43-9.05-1.45C1478.39,417.75,1441.62,417.72,1404.86,417.64z"/>
	<path fill="#BCB1AA" d="M1525.78,419.17c1.46-2.3,6.81-0.17,5.95-4.78c-0.89-4.77-5.11-2.78-7.85-2.79
		c-39.65-0.13-79.29-0.09-118.94-0.09c0-1.06,0-2.12,0-3.17c3.59-3.03,7.95-2.38,12.1-2.39c33.97-0.06,67.95,0.05,101.92-0.21
		c2.08-0.02,6.87,3.15,6.69-2.99c-0.49-0.8-0.46-1.57,0.07-2.31c3.68-0.7,2.82-7.13,7.82-6.16c1.38,10.45,1.37,20.9,0.01,31.35
		C1527.74,427.33,1529.4,420.08,1525.78,419.17z"/>
	<path fill="#BFAFA7" d="M1489.1,320.96c-0.79,4.35-0.77,6.41-7.71,5.58c-15.87-1.89-32.19-1.34-48.18-0.06
		c-4.43,0.36-9.3,2.25-14.23,2.61c-5.36,0.39-9.75-0.63-12.53-5.79c1.49-0.7,3.11-1.47,4.73-2.23c0.98,0.06,1.17,1.03,1.76,1.54
		l-0.06,0.13c12.01,1.63,24.08,0.6,36.12,0.65c11.79,0.05,23.61,0.82,35.38-0.52C1485.94,322.23,1487.52,321.6,1489.1,320.96z"/>
	<path fill="#F0EDEC" d="M1522.57,248.13c-1.3,1.76-3.23,1.54-5.06,1.53c-37.52-0.05-75.04-0.11-112.57-0.17
		c-0.52-0.31-0.69-0.62-0.52-0.92c0.17-0.31,0.34-0.46,0.52-0.46C1444.15,248.12,1483.36,248.12,1522.57,248.13z"/>
	<path fill="#F0EDEC" d="M1525.72,400.43c-0.14,0.47-0.26,0.94-0.36,1.42c-2.4,2.69-5.68,2.6-8.82,2.61
		c-31.7,0.12-63.4,0.11-95.1,0.02c-2.64-0.01-5.3-0.13-7.69-1.5c-1.04-0.66-1.29-1.54-0.75-2.64
		C1450.57,400.36,1488.14,400.4,1525.72,400.43z"/>
	<path fill="#EFEEEE" d="M1412.98,265.74c35.11-0.07,70.22-0.14,105.33-0.2c2.07,0,4.28-0.36,5.89,1.51
		c-6.92,0.03-13.84,0.06-20.77,0.1c-22.77,0-45.54,0-68.31,0c-7.38,0.02-14.75,0.03-22.13,0.05c-0.41-0.32-0.55-0.64-0.42-0.97
		C1412.71,265.91,1412.85,265.74,1412.98,265.74z"/>
	<path fill="#CCC7C2" d="M1411.4,340.18c1.22-1.83,3.12-1.66,4.95-1.66c21.77,0,43.54,0,65.31,0c1.6,0,3.16,0.09,4.31,1.43
		c-24.3,0.1-48.61,0.2-72.91,0.3C1412.48,340.92,1411.93,340.87,1411.4,340.18z"/>
	<path fill="#D1C3BF" d="M1484.37,322.87c-1.18,0.45-2.36,1.3-3.55,1.3c-21.49,0.08-42.99,0.08-64.48-0.01
		c-1.16,0-2.32-0.93-3.47-1.43C1436.7,322.79,1460.53,322.83,1484.37,322.87z"/>
	<path fill="#DEDBD7" d="M1411.4,340.18c0.55,0.02,1.1,0.05,1.65,0.07c-0.02,20.03-0.04,40.05-0.06,60.08
		c-0.04,0.49-0.05,0.97-0.02,1.46c-0.46,0.52-0.97,0.54-1.52,0.14C1411.44,381.35,1411.42,360.76,1411.4,340.18z"/>
	<path fill="#DEDBD7" d="M1412.98,265.74c-0.04,0.49-0.03,0.97,0.02,1.46c-0.02,18.47-0.05,36.95-0.07,55.42
		c-0.58-0.51-1.17-1.03-1.76-1.54c0.01-0.53,0.01-1.06,0.02-1.6c-1.78-2.29-1.45-5-1.46-7.61c-0.04-12.93-0.04-25.87,0-38.8
		c0.01-2.6-0.46-5.34,1.7-7.47C1411.96,265.6,1412.47,265.65,1412.98,265.74z"/>
	<path fill="#D0C7C0" d="M1495.61,346.59c-0.04-8.13-0.07-16.25-0.12-24.38c-0.02-2.59,0.46-5.48-3.31-6.02
		c1.99-1.85,4.61-1.92,4.59,0.89C1496.7,326.92,1498.76,336.88,1495.61,346.59z"/>
	<path fill="#D1C6BF" d="M1533.54,425.61c0-10.45,0-20.9,0-31.35C1536.33,404.71,1536.31,415.16,1533.54,425.61z"/>
	<path fill="#CBC7C6" d="M1531.98,259.19c0.01-2.12,0.01-4.24,0.02-6.36c-1.8-3.61-3-7.22-0.07-10.86c2.82,10.44,2.83,20.87,0,31.31
		C1531.94,268.58,1531.96,263.89,1531.98,259.19z"/>
	<path fill="#BFB0A6" d="M1531.92,241.97c0.02,3.62,0.05,7.24,0.07,10.86c-2.89-1.2-3.45-4.12-4.79-6.46
		C1527.46,243.51,1528.67,241.64,1531.92,241.97z"/>
	<path fill="#F0EDEC" d="M1384.35,417.68c6.89,0.13,13.78,0.26,20.67,0.39c-0.05,0.45-0.07,0.9-0.07,1.35
		C1398.11,418.45,1390.94,421.57,1384.35,417.68z"/>
	<path fill="#F1EDEA" d="M1404.95,248.11c0,0.46,0,0.93,0,1.39c-6.86,0.12-13.73,0.24-20.59,0.36
		C1390.93,245.94,1398.11,249.04,1404.95,248.11z"/>
	<path fill="#CEC6C3" d="M1171.62,260.78c2.18,2.2,1.36,4.99,1.37,7.54c0.05,43.63,0.04,87.26,0,130.9c0,2.55,0.82,5.34-1.36,7.54
		C1171.62,358.09,1171.62,309.43,1171.62,260.78z"/>
	<path fill="#EFEEEB" d="M1268.31,249.48c-34.92,0.13-69.84,0.26-104.76,0.39c1.63-2.5,4.2-1.76,6.46-1.76
		c30.79-0.04,61.58-0.03,92.38-0.01C1264.45,248.1,1266.65,247.68,1268.31,249.48z"/>
	<path fill="#D1C6BE" d="M1191.86,405.16c-2.13-2.18-1.33-4.94-1.34-7.47c-0.07-16.21-0.07-32.43,0.01-48.64
		c0.01-2.49-0.95-5.32,1.63-7.28c0.02,0.55,0.03,1.1,0.05,1.66C1192.1,364.01,1191.98,384.58,1191.86,405.16z"/>
	<path fill="#F0EEEB" d="M1292.22,417.67c13.2,0.01,26.4,0.01,39.6,0.02c-1.37,2.22-3.62,1.74-5.65,1.75
		c-9.43,0.04-18.87,0.04-28.3,0.01C1295.83,419.43,1293.58,419.89,1292.22,417.67z"/>
	<path fill="#F0EEEB" d="M1163.56,417.64c10,0.07,20.01,0.16,30.01,0.22c1.83,0.01,3.73,0.15,5.05-1.56c0.73,0.85,1.14,2.5,0.1,2.52
		C1186.98,419.03,1175.16,421.46,1163.56,417.64z"/>
	<path fill="#D5CBC6" d="M1279.26,343.3c-0.58-3.31-0.58-3.31,5.13-3.01C1282.68,341.3,1280.97,342.3,1279.26,343.3z"/>
	<path fill="#BEB0A6" d="M1025.35,248.01c40.06,5.54,71.04,27.44,80.42,69.11c0.51,2.27,0.41,4.69,0.59,7.04
		c1.16,6.41,1.13,12.82,0.01,19.23c-3.4,31-19.98,52.68-47.37,66.63c-10.59,5.39-21.81,8.82-33.73,9.72c-0.49-0.19-1-0.26-1.52-0.22
		c-2.48,1.64-5.55-0.22-8.04,1.34c-5.81,0.01-11.62,0.01-17.43,0.02c-3.17-1.12-6.36-0.93-9.56-0.11c-1,0.07-2.01,0.14-3.01,0.21
		c-8.67-2.6-17.54-4.68-25.99-7.89c-28.78-10.93-52.23-39.65-53.79-71.41c-0.61-0.95-0.58-1.97-0.36-3.01
		c1.03-2.17,1.76-4.34,0.05-6.53c-0.29-1.01-0.27-2.02-0.04-3.04c0.92-2.07,3.23-3.97,0.78-6.44c0.86-16.01,7.35-29.88,17.38-41.93
		c17.52-21.04,40.19-31.56,67.71-32.99c8.61-0.45,17.21-1.13,25.85-1.1C1019.79,248.26,1022.87,246.36,1025.35,248.01z
		 M990.23,265.49c-32.71,0.93-61.86,28.57-63.63,60.34c-0.94,5.29-0.95,10.58,0.01,15.87c0.92,20.56,11.24,36.47,27.48,47.38
		c30.04,20.17,62.67,19.89,94.68,5.52c21.35-9.59,34.39-27.12,36.93-51.22c1.65-2.47-0.17-5.51,1.31-8
		c-0.01-0.54-0.01-1.09-0.02-1.63c-1.45-2.51,0.33-5.54-1.29-8.02c-1.06-31.65-31.56-59.86-65.12-60.22
		C1010.47,263.71,1000.35,263.73,990.23,265.49z"/>
	<path fill="#FEFAF4" d="M1020.59,265.5c-10.12,0-20.24-0.01-30.36-0.01c2.82-2.76,6.45-0.97,9.62-1.73
		c3.71-0.95,7.42-0.84,11.13-0.06C1014.14,264.56,1017.8,262.69,1020.59,265.5z"/>
	<path fill="#CEC5C2" d="M926.6,325.83c0,5.29,0.01,10.58,0.01,15.87C924.39,336.41,924.41,331.12,926.6,325.83z"/>
	<path fill="#CDC5C0" d="M1010.98,263.7c-3.71,0.02-7.42,0.04-11.13,0.06C1003.55,261.55,1007.26,261.61,1010.98,263.7z"/>
	<path fill="#BFB1A8" d="M906.3,338.48c0-2.1,0.01-4.2,0.01-6.3C911.99,334.3,908.91,336.39,906.3,338.48z"/>
	<path fill="#F3EDEB" d="M1085.7,343.38c0.24-2.7-1-5.64,1.31-8C1087,338.11,1088.22,341.05,1085.7,343.38z"/>
	<path fill="#F3EDEB" d="M1087,333.74c-2.3-2.37-1.06-5.31-1.29-8.02C1088.24,328.06,1087,331,1087,333.74z"/>
	<path fill="#BEB0A7" d="M359.72,418.05c-31.28,0.02-62.56,0.03-93.84,0.05c-1.81-1.82-2.36-3.75,0.54-4.77
		c2.68-0.93,4.53-2.56,5.98-4.84c1.05-1.7,0.7-3.59,0.7-5.41c0.02-46.19,0.02-92.37,0-138.56c0-1.81,0.39-3.72-0.77-5.38
		c-1.24-2.32-3.17-3.8-5.46-5.07c-1.75-0.97-3.67-2.47-0.9-4.58c18.11-1.33,36.24-0.48,54.36-0.51c14.7-0.02,29.41-0.85,44.1,0.51
		c11.53,2.65,23.69,2.06,34.71,7.7c4.66,2.39,8.77,5.36,13.06,8.19c-4.19,4.85-10.82,4.24-13.22,0.78
		c-6.88-9.91-14.23-4.5-21.87-2.41c14.24-4.09,22.51,5.27,31.24,13.51c1.02,0.97,1.3,3.73,3.19,2.53c8.95-5.71,6.57,2.15,6.26,5.58
		c-0.47,5.29,1.23,9.73,2.94,14.47c1.88,5.24,3.39,10.88-2.36,15.14c-3.13-3.45-3.56-8.05-5.2-12.14
		c-6.86-17.09-18.27-29.03-36.93-32.88c-3.86-0.91-7.87-0.55-11.73-1.49c-21.11-1.58-42.23-0.42-63.34-0.59
		c-5.44-0.04-5.99,4.05-5.99,8.35c0.02,19.79,0.01,39.57,0.01,59.36c0,18.47,0.15,36.94-0.08,55.4c-0.08,6.44,2.26,8.94,8.82,8.86
		c19.01-0.25,38.03-0.11,57.04-0.09c3.06-0.04,6.15,0.29,9.14-0.66c5.87-1.26,11.8-2.35,17.17-5.24
		c20.79-10.02,27.45-28.71,30.55-49.59c0.35-2.35,0.27-4.75,0.83-7.07c1.18-3.1,0.73-6.17-0.21-9.24c-0.56-3.04-0.57-6.03,0.69-8.93
		c3.73-5.67,2.87-12.04,2.54-18.23c-0.2-3.7-0.45-7.31,4.18-7.83c4.71-0.53,5.72,3.24,5.73,6.8c0,8.25,1.77,16.57-4.22,24.22
		c-3.71,4.73-3.12,11.54,0.25,16.49c5.27,7.75,2.86,14.24-1.4,20.95c-1.52,1.02-3.77,2.14-3.72,3.83
		c0.24,7.97-3.83,13.13-9.95,17.45c-2.03,1.43-1.41,3.7,0.11,5.59c1.73,2.15,2.85,4.46,1.15,7.19c-2.39,1.8-4.95,1.79-7.32,0.22
		c-3.83-2.53-6.47-1.19-8.45,2.33c-2.37,4.2-5.43,6.26-10.39,4.31c-1.77-0.7-3.65,0.05-5.43,0.57c-0.6,0.58-0.29,0.32,0.27,0.59
		c7.73,3.78,14.37,2.06,20.46-3.6c2.98-2.77,7.49-2.15,10.8-4.33c2.72-6.95,4.47-14.39,11.2-19.09c2.86-2,2.33-4.86,0.69-7.71
		c-1.23-2.14-3.28-4.51-0.12-6.83c5.09-0.76,6.94-4.74,7.81-8.86c1.8-8.43,4.78-16.71,3.76-25.62c-0.32-2.77-0.44-5.87,2.06-8.11
		c2.78,2.22,1.03,5.37,1.66,8.03c1.03,4.26,1.03,8.53,0,12.79c-1.99,26.18-10.03,49.44-32.84,64.99
		c-9.64,6.57-20.36,10.87-32.31,11.26c-2.52,1.51-5.59-0.31-8.1,1.31C364.95,417.84,362.33,417.94,359.72,418.05z"/>
	<path fill="#BEB0A7" d="M424.8,362.33c2.47-4.19,1.03-9.63,4.45-13.61c0.75-0.87,0.09-2.64-1.08-3.5
		c-7.51-5.46-4.27-13.45-4.87-20.53c-0.06-0.73,0.12-1.92,0.59-2.19c10.67-6.05,3.75-16.15,5.58-24.21c0.42-1.86-0.3-3.78-2.78-3.94
		c-2.98-0.19-3.43,1.85-3.45,4.15c-0.03,5.02-0.01,10.05-0.04,15.07c-0.02,2.61,0.47,5.54-3.41,5.98c-3.16-0.96-2.73-2.75-1.12-4.82
		c1.65-5.56,3.21-10.31-1.08-16.38c-3.55-5.02-2.27-12.69-1.31-19.5c-3.93,0.66-1.42,5.83-5.24,5.45c-3.55-0.36-2.71-4.96-4.1-5.66
		c-7.25-3.67-10.18-13.92-20.28-13.14c-4.18,0.32-8.4,0.05-12.86,0.05c6.88-9.19,18.91-9.36,25.02-1.4
		c3.36,4.38,8.77,1.84,13.36,1.25c17,13.99,25.77,32.08,26.97,53.95c-0.02,6.07,0.87,12.32-0.27,18.17
		c-1.64,8.38-1.9,17.25-7.89,24.54C428.24,365.4,426.89,363.49,424.8,362.33z"/>
	<path fill="#DECECA" d="M367.57,417.73c2.39-2.33,5.33-1.28,8.09-1.31C373.26,418.67,370.33,417.71,367.57,417.73z"/>
	<path fill="#BEB0A7" d="M540.76,265.33c-1.59,0.13-3.17,0.26-4.76,0.38c-8.77,1.11-8.79,1.11-8.76,10.33
		c0.04,15.28-0.12,30.56,0.09,45.84c0.45,0.61,0.73,1.43,1.7,1.43c23.5-0.02,47.01,0.85,70.51-0.46c4.53-0.72,5.67-7.25,11.08-6.46
		c1.29,10.01,1.46,20.01-0.11,30.01c-2.24,1.5-3.64,0.79-4.71-1.55c-1.22-2.67-3.21-4.55-6.27-5c-23.32-1.26-46.66-0.27-69.99-0.52
		c-1.15-0.01-1.92,0.65-2.26,1.77c-0.26,20.23,0.3,40.46-0.29,60.69c-8.72,4.25-12.76,2.64-13.28-6.35
		c-1-17.32-1.2-34.63,0.31-52.03c0.76-8.72-0.17-17.82-0.73-26.76c-0.92-14.71-0.29-29.48-0.28-40.55
		c-0.69,18.16,0.54,39.98,0.79,61.81c0.11,9.42-1.14,18.83-0.92,28.3c0.29,12.11-0.29,24.24,1.11,36.34
		c0.45,3.92,1.28,8.93-5.5,8.65c-1.82-3.2-1.04-6.71-1.05-10.07c-0.06-43.99-0.02-87.97-0.07-131.96c0-3.36,0.76-6.89-1.4-9.98
		c-0.15-0.44-0.24-0.9-0.25-1.37c-1.07-3.11-1.91-6.06,3.33-4.47c1.32,0.88,2.31,2.1,3.19,3.4c5.66,8.33,5.6,8.27,13.32,1.35
		c4.69-4.21,9.95-5.56,15.78-2.18c0.72,1.04,1.07,2.2,1.22,3.44C542.77,261.61,542.36,263.65,540.76,265.33z"/>
	<path fill="#C0AFA5" d="M508.99,411.51c4.45-2.17,3.13-6.28,3.14-9.79c0.06-41.71,0.04-83.42,0.04-125.13c0-2.58,0-5.15,0-7.73
		c0.53,0,1.06-0.01,1.59-0.01c0,12.77-0.56,25.57,0.17,38.29c0.64,11.12,0.58,22.37,3.12,33.35c0.22,0.96,0.52,2.17,0.16,2.97
		c-7.36,16.15-2.22,33.04-2.91,49.57c-0.36,8.54,5.15,10.27,12.42,8.85c2.5-1.27,5.18-0.63,7.76-0.63
		c32.11-0.05,64.22-0.01,96.32-0.07c2.84-0.01,5.79,0.72,8.53-0.73c4.12,0.06,3.39-4.87,6.27-6.09c2.81,9.68,5.22,19.34-1.68,28.45
		c-1.64-0.98-1.92-3.76-4.55-3.44c-1.34-1.72-3.26-1.5-5.09-1.49c-44.96,0.07-89.92,0.16-134.89,0.24
		c-3.97-7.44,5.68-4.42,6.38-8.28C507.17,409.75,508.12,410.56,508.99,411.51z"/>
	<path fill="#C0B0A6" d="M540.76,265.33c0-2.05,0-4.1,0-6.14c2.59-2.37,5.83-2.2,8.99-2.21c28-0.04,56-0.05,83.99,0
		c1.58,0,3.17,0.04,4.74,0.29c2.51,0.41,4.66,1.38,5.1,4.17c0.52,3.24-1.24,4.91-4.28,5.49l-0.76,0.11c0,0-0.77-0.01-0.77-0.01
		c-2.39-2.5-5.47-1.43-8.25-1.44C599.95,265.45,570.36,265.41,540.76,265.33z"/>
	<path fill="#BCB1AA" d="M639.31,266.94c1.52-1.69,4.05-3.04,2.68-5.9c-1.35-2.82-4.14-1.8-6.35-1.81
		c-31.63-0.06-63.26-0.04-94.89-0.04c0-1.06,0-2.11,0-3.17c3.27-3.1,7.42-2.31,11.28-2.32c26.66-0.1,53.32,0.04,79.97-0.2
		c1.96-0.02,6.54,2.72,5.85-3.11c-0.64-0.74-0.64-1.47-0.03-2.2c4.48-0.09,3.45-8.07,9.17-6.38c1.57,10.53,1.5,21.07,0.04,31.61
		C641.72,274.54,642.03,268.93,639.31,266.94z"/>
	<path fill="#BAB1AC" d="M508.99,411.51c-1.35-0.03-2.55-0.35-3.22-1.67c0.04-1.52,0.08-3.04,0.13-4.56c1.1-1.68,0.73-3.58,0.73-5.4
		c0.02-44.07,0.02-88.15,0-132.22c0-1.82,0.38-3.71-0.74-5.39c0.03-1.02,0.06-2.05,0.1-3.07c5.08,1.45,2.91,5.66,2.92,8.61
		C509.03,315.71,508.99,363.61,508.99,411.51z"/>
	<path fill="#BAB1AC" d="M499.39,249.45c13.79,0.14,27.57,0.28,41.36,0.42c1.45,3.53-1.05,4.29-3.49,4.38
		c-9.42,0.34-18.84,2.28-28.27,0.18c-4.17-1.82-2.92,1.56-3.27,3.4C504.56,254.32,496.67,255.88,499.39,249.45z"/>
	<path fill="#CCC8C2" d="M528.14,340.31c-0.53-0.01-1.06-0.03-1.58-0.04c1.14-1.94,3.06-1.74,4.87-1.74
		c21.25-0.01,42.5-0.01,63.76-0.01c1.59,0,3.16,0.06,4.35,1.35C575.73,340.01,551.94,340.16,528.14,340.31z"/>
	<path fill="#D1C3BE" d="M599.53,322.86c-0.41,0.31-0.83,0.9-1.24,0.9c-23.31,0.11-46.63,0.17-69.94,0.16
		c-0.59,0-1.18-0.91-1.77-1.4c0.5-0.66,1.02-0.64,1.56-0.04C551.94,322.6,575.74,322.73,599.53,322.86z"/>
	<path fill="#BAB1AA" d="M643.92,422.81c3.55-9.31,0.85-18.98,1.68-28.45c1-0.08,1.99-0.16,2.99-0.24
		c1.58,10.54,1.52,21.08,0.04,31.62C646.43,425.78,644.03,426.12,643.92,422.81z"/>
	<path fill="#BFB0A7" d="M642.54,508.52c6.18,3.33,13.31-0.3,20.38,2.51c-2.88,3.03-10.38,4.36-2.27,9.81
		c3.76,2.53-4.92,13.89-11.05,14.48c-4.55,0.44-9.46-1.79-13.63,1.69c-2.98-1.24-3.69-4.39-5.25-6.68
		c-5.22-7.69-3.5-14.16,4.68-18.85C637.61,510.21,640.15,509.49,642.54,508.52z"/>
	<path fill="#E5DFDB" d="M775.91,622.42c-4.26-0.01-8.53-0.03-12.79-0.04C767.39,620.16,771.65,620.13,775.91,622.42z"/>
	<path fill="#D8D0CB" d="M791.87,640.08c-0.03-3.21-0.05-6.43-0.08-9.64C794.35,633.64,794.02,636.85,791.87,640.08z"/>
	<path fill="#BEB0A8" d="M1150.78,548.08c1.06-0.08,2.12-0.16,3.18-0.24c1.57,0.11,3.14,0.22,4.71,0.34
		c-0.51,0.99-1.02,1.97-1.53,2.96C1154.68,550.82,1151.37,552.26,1150.78,548.08z"/>
	<path fill="#BEB0A8" d="M1175.89,556.03c-0.91,0.54-1.46,1.13-2.04,1.16c-1.08,0.06-1.98-0.57-1.6-1.76
		c0.14-0.43,1.23-0.8,1.84-0.75C1174.62,554.72,1175.1,555.4,1175.89,556.03z"/>
	<path fill="#BEB0A7" d="M906.11,638.71c0.21-1.89,0.59-5.64,4.46-4.34c1.09,0.37,5.85-0.2,4.98,3.63
		c-0.85,3.73-2.96,7.79-6.58,8.41C906.66,646.8,905.34,642.83,906.11,638.71z"/>
	<path fill="#BFAFA7" d="M1401.77,268.71c0,42.31,0,84.62,0,126.93c-3.93-0.55-3.15-3.61-3.16-6.12c-0.03-38.23-0.03-76.46,0-114.69
		C1398.61,272.33,1397.84,269.27,1401.77,268.71z"/>
	<path fill="#BFAFA7" d="M1411.44,265.59c-0.08,17.96-0.16,35.92-0.24,53.89c-4.36-0.85-2.99-4.35-3.02-6.95
		c-0.12-11.28-0.15-22.56,0-33.84c0.06-4.49-0.28-8.87-1.64-13.15C1408.17,265.56,1409.8,265.57,1411.44,265.59z"/>
	<path fill="#BFAFA7" d="M1406.53,265.54c-1.65,0.96-2.3,3.44-4.77,3.17c0-0.78-0.09-1.57,0.02-2.34c0.35-2.67-1.28-7.13,2.05-7.45
		C1408.36,258.49,1404.28,263.76,1406.53,265.54z"/>
	<path fill="#BFB0A6" d="M1411.45,401.93c0.51,0.01,1.02-0.04,1.52-0.14c37.47,0.02,74.93,0.04,112.39,0.06
		c2.47,0.64,6.79-1.12,6.31,3.65c-0.44,4.39-4.49,2.77-7.04,2.77c-39.9,0.1-79.79,0.07-119.69,0.07
		C1404.17,403.22,1406.62,401.37,1411.45,401.93z"/>
	<path fill="#BEB0A7" d="M1320.45,408.06c-13.39-21.79-27.4-43.21-41.18-64.75c-0.3-4.42,3.86-1.26,5.13-3.01
		c21.68-2.29,38.28-17.4,40.83-39.02c1.97-16.7-5.18-38.31-26.27-46.11c-10.06-3.72-20.54-3.3-30.64-5.69
		c-1.23-0.59-2.55-0.57-3.87-0.57c-32.14,0-64.27,0-96.41,0.01c-1.55,0-3.19-0.32-4.49,0.95c-0.14,2.22,0.02,4.03,2.84,4.7
		c3.08,0.73,4.77,3.06,5.23,6.21c1.13,2.53,0.6,5.2,0.6,7.8c0.04,43.46,0.04,86.92,0,130.37c0,2.6,0.53,5.27-0.6,7.8
		c-0.17,3.1-2.31,4.47-4.84,5.47c-2.48,0.98-3.75,2.67-3.22,5.42c11.08,2.12,22.27,0.56,33.4,0.85c1.14,0.03,1.7-1.01,1.66-2.2
		c-1.14-4.39-7.85-5.39-6.76-11.13c-1.31-8.07-0.65-16.2-0.52-24.29c0.21-13.03-1.19-26.11,0.82-39.1
		c18.95-0.02,37.9-0.07,56.85-0.05c2.29,0,4.8-0.64,6.69,1.41c12.23,19.27,24.4,38.59,36.73,57.8c3.2,4.98,8.55,9.63-0.11,14.44
		c-0.35,0.19-0.08,1.51-0.09,2.3c13.2,1.61,26.4,1.55,39.6,0.02C1330.38,411.81,1323.39,412.85,1320.45,408.06z M1271.51,325.61
		c-26.41,0.05-52.82,0.1-79.23,0.14c-2.13-11.42-0.78-22.94-0.84-34.4c-0.05-8.57-1.31-17.23,0.81-25.75
		c23.25,0.05,46.5,0.1,69.76,0.14c3.6,1.64,7.63-0.46,11.21,1.3c6.31-0.2,12.34,1,18.1,3.59c8.08,3.63,11.93,10.34,13.64,18.61
		c1.08,3.77,1.05,7.54,0.01,11.31c1.17,10.49-12.12,23.28-23.83,23.77C1278.1,326.02,1274.56,324.06,1271.51,325.61z"/>
	<path fill="#D1C6BE" d="M1192.24,265.6c0.01,20.05,0.02,40.1,0.03,60.15c-1.97-1.11-1.78-3.04-1.78-4.86
		c-0.01-16.81-0.01-33.61,0-50.42C1190.5,268.66,1190.3,266.74,1192.24,265.6z"/>
	<path fill="#E5E3E5" d="M1304.97,300.55c-0.01-3.77-0.01-7.54-0.02-11.31C1307.23,293.01,1307.41,296.78,1304.97,300.55z"/>
	<path fill="#EEEDEE" d="M1273.21,267.05c-3.74-0.41-7.73,1.35-11.21-1.31C1265.76,265.97,1269.75,264.24,1273.21,267.05z"/>
	<path fill="#EFE9E6" d="M1271.51,325.61c2.94-2.45,6.39-1.04,9.62-1.3C1278.21,326.86,1274.77,325.6,1271.51,325.61z"/>
	<path fill="#BEB0A7" d="M413.68,395.64c0-1.85,0.25-4.01-1.4-5.15c-7.86-5.47-2.6-9.07,2.01-11.97c4.6-2.9,6.9-6.25,5.47-11.64
		c-1.28-4.84,2.16-4.37,5.04-4.56c0.14,0.77,0.01,1.77,0.46,2.28c6.01,6.81,5.27,11.51-2.92,16.6
		C417.87,383.97,418.11,391.64,413.68,395.64L413.68,395.64z"/>
	<path fill="#BEB0A7" d="M413.68,395.65c-0.51,4.43-4.9,2.61-7.26,4.06c-3.57,2.18-6.56,4.96-9.96,7.19
		c-2.71,1.78-5.97,4.06-9.24-0.7c-2.04-2.97-7.2,0.5-11.79-3.94c6.24,0.66,9.88-5.76,15.62-0.76c1.25,1.09,2.72-0.1,3.57-1.85
		c3.41-7.02,7.81-10.8,15.2-4.25C410.58,396.07,412.36,395.59,413.68,395.65L413.68,395.65z"/>
	<path fill="#C0B0A6" d="M508.99,254.43c8.05-3.55,16.51-0.63,24.72-1.6c2.61-0.31,6.1,1.36,7.05-2.96
		c32.26-0.08,64.52-0.17,96.78-0.25c1.58,0.04,3.16,0.04,4.73,0.12c1.37,0.07,2.69,0.39,2.92,2.01c0.29,2-1.33,2.62-2.71,3.36
		c-2.46,1.32-5.14,0.89-7.75,0.9c-31.32,0.02-62.64,0.02-93.97,0.02c-6.47,0.37-14.02-2.01-15.93,8.16
		c-0.57,3.02-10.91,1.57-12.1-2.16C511.82,259.18,509.24,257.41,508.99,254.43z"/>
	<path fill="#BCB1AA" d="M641.3,410.8c-41.62,0-83.23,0-124.85,0c0-0.53-0.01-1.06-0.01-1.59c41.62,0,83.23,0,124.85,0
		C641.3,409.74,641.3,410.27,641.3,410.8z"/>
</g>
</svg>
