<svg width="20" height="20" viewBox="0 0 20 20" fill="none" xmlns="http://www.w3.org/2000/svg">
<path d="M5.71427 1.42871H14.2857C16.6428 1.42871 18.5714 3.35728 18.5714 5.71443V14.2859C18.5714 16.643 16.6428 18.5716 14.2857 18.5716H5.71427C3.35713 18.5716 1.42856 16.643 1.42856 14.2859V5.71443C1.42856 3.35728 3.35713 1.42871 5.71427 1.42871Z" stroke="#231815" stroke-miterlimit="10"/>
<path d="M9.89286 14.1789C12.2598 14.1789 14.1786 12.2601 14.1786 9.89314C14.1786 7.5262 12.2598 5.60742 9.89286 5.60742C7.52593 5.60742 5.60715 7.5262 5.60715 9.89314C5.60715 12.2601 7.52593 14.1789 9.89286 14.1789Z" stroke="#231815" stroke-miterlimit="10"/>
<path d="M15.9286 4.75014C15.9286 5.06573 15.6728 5.32157 15.3572 5.32157C15.0416 5.32157 14.7857 5.06573 14.7857 4.75014C14.7857 4.43455 15.0416 4.17871 15.3572 4.17871C15.6728 4.17871 15.9286 4.43455 15.9286 4.75014Z" stroke="#231815"/>
</svg>
